<svg width="24" height="24" viewBox="0 0 24 24" fill="none" xmlns="http://www.w3.org/2000/svg">
<g clip-path="url(#clip0_3_43)">
<path d="M15.7269 14.3744V13.4365C16.3042 13.2385 16.7246 12.6236 16.7246 11.8959C16.7246 11.1681 16.3042 10.5515 15.7269 10.3552V9.41732C16.2706 9.23147 16.676 8.67392 16.7209 8H16.0595V8.28659C16.0595 8.50718 15.925 8.70171 15.7269 8.79898V8.66523C15.7269 8.46896 15.555 8.30917 15.3439 8.30917H15.3103C15.0992 8.30917 14.9272 8.46896 14.9272 8.66523V8.79898C14.7292 8.70171 14.5947 8.50891 14.5947 8.28659V8H13.9333C13.9782 8.67392 14.3836 9.23147 14.9272 9.41732V10.3552C14.3518 10.5515 13.9296 11.1664 13.9296 11.8959C13.9296 12.6254 14.3499 13.2402 14.9272 13.4365V14.3744C14.3836 14.5603 13.9782 15.1179 13.9333 15.7917H14.5947V15.5052C14.5947 15.2846 14.7292 15.09 14.9272 14.9928V15.1265C14.9272 15.3228 15.0992 15.4826 15.3103 15.4826H15.3439C15.555 15.4826 15.7269 15.3228 15.7269 15.1265V14.9928C15.925 15.09 16.0595 15.2828 16.0595 15.5052V15.7917H16.7209C16.676 15.1179 16.2706 14.5603 15.7269 14.3744ZM14.5947 12.3058V11.4842C14.5947 11.2636 14.7292 11.0691 14.9272 10.9718V11.1056C14.9272 11.3019 15.0992 11.4617 15.3103 11.4617H15.3439C15.555 11.4617 15.7269 11.3019 15.7269 11.1056V10.9718C15.925 11.0691 16.0595 11.2619 16.0595 11.4842V12.3058C16.0595 12.5264 15.925 12.7209 15.7269 12.8182V12.6844C15.7269 12.4882 15.555 12.3284 15.3439 12.3284H15.3103C15.0992 12.3284 14.9272 12.4882 14.9272 12.6844V12.8182C14.7311 12.7209 14.5947 12.5281 14.5947 12.3058Z" fill="white"/>
<path d="M19.7848 12.3944V11.3957C20.3622 11.1976 20.7826 10.5828 20.7826 9.85502C20.7826 9.12725 20.3622 8.51065 19.7848 8.31438V8H18.9871V8.31438C18.4098 8.51239 17.9894 9.12725 17.9894 9.85502C17.9894 10.5828 18.4098 11.1994 18.9871 11.3957V12.3944C18.4098 12.5924 17.9894 13.2072 17.9894 13.935C17.9894 14.6628 18.4098 15.2794 18.9871 15.4757V15.79H19.7848V15.4757C20.3622 15.2776 20.7826 14.6628 20.7826 13.935C20.7826 13.2072 20.3622 12.5924 19.7848 12.3944ZM18.6526 10.2649V9.44337C18.6526 9.22278 18.7872 9.02825 18.9852 8.93098V9.06472C18.9852 9.261 19.1571 9.42079 19.3682 9.42079H19.4C19.6111 9.42079 19.783 9.261 19.783 9.06472V8.93098C19.9811 9.02825 20.1155 9.22104 20.1155 9.44337V10.2649C20.1155 10.4855 19.9811 10.68 19.783 10.7773V10.6436C19.783 10.4473 19.6111 10.2875 19.4 10.2875H19.3664C19.1553 10.2875 18.9833 10.4473 18.9833 10.6436V10.7773C18.7891 10.68 18.6526 10.4872 18.6526 10.2649ZM20.1174 14.3467C20.1174 14.5672 19.9829 14.7618 19.7848 14.859V14.6628C19.7848 14.4665 19.613 14.3067 19.4019 14.3067H19.3701C19.159 14.3067 18.9871 14.4665 18.9871 14.6628V14.859C18.7891 14.7618 18.6545 14.569 18.6545 14.3467V13.5251C18.6545 13.3045 18.7891 13.11 18.9871 13.0127V13.0839C18.9871 13.2802 19.159 13.44 19.3701 13.44H19.4037C19.6148 13.44 19.7867 13.2802 19.7867 13.0839V13.0127C19.9848 13.11 20.1193 13.3028 20.1193 13.5251V14.3467H20.1174Z" fill="white"/>
<path d="M11.1552 11.1005C11.1477 11.0606 11.1384 11.0223 11.1235 10.9859C11.1291 10.9772 12.3696 9.37054 11.2206 8.37704C10.0735 7.38353 8.73386 8.67926 8.72639 8.68621C8.5134 8.62368 8.29855 8.58547 8.08556 8.5681C8.08556 8.5681 8.08556 8.5681 8.08369 8.5681C7.6465 8.50036 7.03369 8.5681 7.03369 8.5681C6.82258 8.58547 6.60959 8.62368 6.39847 8.68447C6.39099 8.67752 5.05141 7.38179 3.90427 8.3753C2.75712 9.36881 3.99581 10.9772 4.00142 10.9841C3.98834 11.0223 3.97713 11.0606 3.96965 11.0988C3.84635 11.7866 3 11.9985 3 13.197C3 14.418 3.88371 15.3802 5.68851 15.3802H6.42836C6.4321 15.3837 6.71795 15.7624 7.30834 15.7849C7.30834 15.7849 7.44473 15.7988 7.7586 15.7884C8.38449 15.7884 8.68903 15.3872 8.69089 15.382H9.43074C11.2355 15.382 12.1192 14.4197 12.1192 13.1987C12.1248 12.002 11.2785 11.7883 11.1552 11.1005Z" fill="white"/>
</g>
<circle cx="12" cy="12" r="11.5" stroke="white"/>
<defs>
<clipPath id="clip0_3_43">
<rect width="17.82" height="7.80876" fill="white" transform="translate(3 8)"/>
</clipPath>
</defs>
</svg>
