<svg width="257" height="25" viewBox="1 1 258 25" fill="none" xmlns="http://www.w3.org/2000/svg"><path fill-rule="evenodd" clip-rule="evenodd" d="M258.969.275H.146l.193 10.66c.559.876 1.613 1.109 2.67 1.228 1.912.205 3.499 1.593 4.05 3.533.385 1.375 1.32 2.301 2.329 2.301 1.146 0 2.03-1.141 2.369-3.05.601-3.36 1.811-5.364 3.244-5.364 1.415 0 2.697 1.922 3.258 4.903.772 4.086 2.19 6.725 3.614 6.725.634 0 1.538-.54 2.203-3.11.128-.483.243-.958.349-1.41.586-2.433 1.01-4.191 2.398-4.191l.082.005c.215.009.417.04.609.073l.026.004c.196.03.385.06.56.06.082 0 .164-.005.237-.019a1.29 1.29 0 0 0 .826-.502c.343-.47.75-.717 1.165-.717.443 0 .89.274 1.26.772.96 1.305 1.936 1.99 2.822 1.99.94 0 1.766-.771 2.383-2.242 1.117-2.648 2.85-4.291 4.529-4.291 1.958 0 3.32 2.291 3.55 5.976.236 3.89 1.935 5.985 3.42 5.985 1.205 0 2.613-1.402 2.943-5.346.45-5.374 1.514-8.177 3.25-8.57a6.037 6.037 0 0 1 1.285-.155c1.347 0 2.254.667 2.938 2.164.928 2.032 2.43 3.296 3.923 3.296 1.246 0 2.362-.862 3.147-2.428.894-1.8 2.144-2.83 3.427-2.83 1 0 1.906.625 2.626 1.803 1.28 2.114 2.317 3.606 4.024 3.606.022 0 .044 0 .067-.002l.074-.002c.06-.005.119-.005.178-.005 1.397 0 2.329.794 3.037 2.575.847 2.137 1.945 3.265 3.173 3.265.931 0 1.892-.626 2.865-1.868.16-.221.314-.442.462-.656l.023-.033.004-.006c.528-.773.98-1.438 1.684-1.811.312-.16.594-.242.872-.242.356 0 .642.132.918.26.24.114.47.22.716.22h.064c.335-.022.603-.172.885-.33l.031-.017c.118-.069.24-.137.37-.197.281-.132.586-.205.883-.205.708 0 1.276.383 1.562 1.054.325.768.446 1.931.546 3.68.26 4.501 2.09 6.515 3.789 6.515 1.707 0 3.579-2.014 3.913-6.506.127-1.774.559-1.877 1.503-2.1h.002l.07-.017c.264-.064.563-.136.884-.257 1.746-.384 2.973-1.187 3.745-2.452.859-1.425 1.95-2.242 2.99-2.242 1.091 0 1.961.873 2.385 2.388.138.487.256.943.367 1.365l.079.306.004.016c.572 2.214.918 3.55 2.185 3.636.051.005.101.005.151.005 1.018 0 1.356-.735 2.019-2.196l.088-.194c.066-.145.135-.297.211-.454.466-1.014 1.208-1.598 2.039-1.598.543 0 1.082.246 1.569.707.577.553 1.157.835 1.719.835.602 0 1.167-.324 1.685-.958.938-1.16 1.695-1.676 2.454-1.676.398 0 .702.084.947.213.366.191.608.426.822.633.447.433.768.745 1.833.28.134-.059.262-.122.389-.184.433-.214.853-.421 1.473-.421 1.772 0 2.35 1.5 2.533 2.793.419 2.926 1.685 4.817 3.229 4.817 1.529 0 2.844-1.732 3.515-4.467.553-2.254 1.552-3.23 2.916-3.23.521 0 1.081.192 1.654.57.901.599 1.605.877 2.221.877.749 0 1.376-.425 1.912-1.292 1.211-1.931 2.83-3.04 4.442-3.04 3.611 0 4.243 3.643 4.8 6.857.454 2.643.887 5.14 2.942 5.14 2.716 0 3.207-3.391 3.681-6.67.438-3.045.857-5.916 2.897-6.168.073-.008.151-.013.233-.013 1.082 0 2.17.835 2.898 2.232.184.356.355.708.512 1.041l.001.001c.745 1.56 1.333 2.793 2.895 2.83 1.114 0 2.017-1.27 2.756-3.886.583-2.063 1.735-3.25 3.164-3.25 1.141 0 2.347.781 3.391 2.196 1.694 2.301 3.039 3.721 4.482 3.721.735 0 1.477-.378 2.266-1.16.767-.757 1.532-1.14 2.285-1.14.785 0 1.555.424 2.287 1.264.919 1.055 1.846 1.566 2.827 1.566.946 0 1.937-.466 3.038-1.424 1.008-.808 1.941-1.215 2.781-1.215 3.018 0 4.409 5.223 5.046 9.61.427 2.936 1.907 3.982 3.149 3.982 1.246 0 2.366-.968 2.715-2.36 1.057-4.155 2.836-6.008 5.762-6.008.553 0 1.161.069 1.803.21.967.206 1.79.306 2.521.306 1.972 0 3.278-.744 3.985-2.27 1.129-2.446 2.47-5.053 4.054-5.053.625 0 1.259.429 1.881 1.273.431.584.742 1.207 1.042 1.806l.028.057c.597 1.206 1.119 2.242 2.278 2.25h.003a2.62 2.62 0 0 1 .266-.018c.553 0 1.215.229 1.234 1.33.105 5.044 2.284 6.834 4.119 6.834 3.827 0 3.728-6.157 3.69-8.486v-.006c-.033-2.114.992-3.48 2.608-3.48.767 0 1.595.334 2.327.941.779.648 1.575.986 2.305.986.671 0 1.264-.292 1.675-.83a2.99 2.99 0 0 0 .534-1.238L258.969.275ZM8.235 10.593c.95 0 1.545-.671 1.772-1.986.272-1.621.036-3.064-.636-3.848-.295-.347-.645-.534-1.02-.534a1.29 1.29 0 0 0-.55.132c-.43.201-.823.37-1.275.37l-.062-.002a.628.628 0 0 0-.062-.003c-.484-.032-1.021-.2-1.808-.566-.277-.132-.529-.196-.743-.196-.493 0-.688.351-.765.648-.32 1.246.751 3.876 3.22 5.332.73.434 1.377.653 1.93.653Zm217.855 3.232c1.114 0 1.691-.68 1.815-2.137.082-1-.237-2.008-.877-2.767-.677-.799-1.681-1.278-2.897-1.388a5.817 5.817 0 0 0-.553-.022c-2.182 0-3.636 1.15-4.269 2.228-.492.826-.567 1.744-.194 2.383.424.73 1.385 1.119 2.777 1.119.174 0 .361-.01.552-.023l.184-.01c.186-.01.336-.017.464-.017.425 0 .65.064 1.068.21l.069.022c.248.087.505.174.79.247.417.105.77.155 1.071.155Z" fill="#202020"/></svg>