<svg width="252" height="25" fill="none" xmlns="http://www.w3.org/2000/svg" viewBox="1 0 253 25"><path fill-rule="evenodd" clip-rule="evenodd" d="M258.965 25.7H.142l.194-10.665c.559-.877 1.613-1.11 2.67-1.228 1.912-.206 3.499-1.593 4.05-3.534.385-1.374 1.32-2.3 2.328-2.3 1.146 0 2.03 1.14 2.37 3.049.6 3.36 1.811 5.365 3.244 5.365 1.415 0 2.697-1.923 3.257-4.904.773-4.086 2.19-6.724 3.615-6.724.634 0 1.538.539 2.203 3.109.128.484.243.959.349 1.41.585 2.434 1.01 4.191 2.398 4.191l.082-.004c.215-.01.416-.041.608-.073l.026-.004c.197-.03.385-.06.56-.06a1.29 1.29 0 0 1 1.064.52c.343.47.75.717 1.165.717.443 0 .89-.274 1.26-.771.96-1.306 1.936-1.99 2.822-1.99.94 0 1.766.77 2.383 2.241 1.116 2.648 2.849 4.292 4.529 4.292 1.958 0 3.32-2.292 3.55-5.976.235-3.89 1.935-5.986 3.419-5.986 1.205 0 2.614 1.402 2.944 5.347.45 5.373 1.513 8.176 3.25 8.569a6.03 6.03 0 0 0 1.285.155c1.346 0 2.253-.666 2.938-2.164.928-2.032 2.43-3.296 3.922-3.296 1.246 0 2.363.863 3.147 2.429.894 1.799 2.145 2.83 3.428 2.83 1 0 1.906-.625 2.626-1.803 1.28-2.114 2.316-3.607 4.023-3.607l.068.002a.88.88 0 0 0 .074.003c.06.005.119.005.178.005 1.397 0 2.329-.795 3.037-2.575.846-2.137 1.944-3.265 3.172-3.265.932 0 1.893.626 2.866 1.867.16.222.313.442.462.656l.023.034.004.005c.527.774.98 1.438 1.684 1.812.312.16.593.242.872.242.356 0 .641-.133.918-.26.24-.114.47-.22.716-.22h.064c.335.022.602.172.885.33l.03.017c.118.068.24.137.371.196.28.132.586.206.883.206.708 0 1.276-.384 1.562-1.055.324-.767.446-1.93.546-3.68.26-4.5 2.09-6.514 3.789-6.514 1.707 0 3.579 2.013 3.913 6.506.127 1.774.559 1.876 1.502 2.1h.003a7.083 7.083 0 0 1 .954.274c1.746.383 2.973 1.187 3.744 2.451.86 1.425 1.95 2.242 2.991 2.242 1.091 0 1.961-.872 2.385-2.388.137-.487.256-.942.366-1.365l.08-.305.004-.016c.572-2.214.917-3.55 2.185-3.637.05-.004.101-.004.151-.004 1.018 0 1.356.735 2.019 2.196l.088.193c.066.145.135.298.211.455.465 1.014 1.208 1.598 2.039 1.598.543 0 1.082-.247 1.569-.708.576-.552 1.157-.835 1.718-.835.603 0 1.168.324 1.686.959.938 1.16 1.695 1.675 2.453 1.675.399 0 .703-.083.948-.212.365-.191.608-.426.821-.633.447-.434.769-.745 1.833-.28.135.058.263.121.39.184.432.213.852.42 1.473.42 1.772 0 2.35-1.5 2.533-2.792.419-2.927 1.685-4.817 3.228-4.817 1.53 0 2.845 1.731 3.516 4.467.552 2.254 1.551 3.23 2.916 3.23.521 0 1.081-.192 1.654-.571.901-.598 1.605-.877 2.221-.877.749 0 1.375.425 1.912 1.292 1.211 1.931 2.83 3.04 4.442 3.04 3.611 0 4.243-3.643 4.799-6.857.454-2.643.888-5.14 2.942-5.14 2.717 0 3.208 3.392 3.682 6.67.438 3.045.856 5.917 2.897 6.168.073.009.151.014.232.014 1.083 0 2.17-.836 2.899-2.233.184-.356.355-.708.512-1.04v-.002c.745-1.56 1.334-2.793 2.896-2.83 1.114 0 2.017 1.27 2.755 3.886.584 2.063 1.736 3.25 3.165 3.25 1.141 0 2.347-.78 3.39-2.196 1.695-2.3 3.04-3.72 4.483-3.72.735 0 1.477.378 2.266 1.159.767.758 1.531 1.141 2.285 1.141.785 0 1.555-.424 2.287-1.264.919-1.055 1.845-1.566 2.827-1.566.945 0 1.937.465 3.038 1.424 1.007.808 1.941 1.214 2.781 1.214 3.018 0 4.409-5.223 5.045-9.61.428-2.936 1.908-3.982 3.15-3.982 1.246 0 2.366.968 2.715 2.36 1.057 4.155 2.836 6.009 5.762 6.009.553 0 1.161-.07 1.803-.21.967-.206 1.79-.306 2.521-.306 1.972 0 3.278.744 3.985 2.269 1.129 2.447 2.469 5.054 4.054 5.054.625 0 1.258-.43 1.881-1.274.431-.584.742-1.206 1.041-1.805l.029-.058c.597-1.205 1.118-2.241 2.278-2.25h.003c.086.009.176.018.266.018.553 0 1.214-.228 1.234-1.329.105-5.045 2.283-6.834 4.119-6.834 3.827 0 3.728 6.157 3.69 8.485v.006c-.034 2.114.991 3.48 2.608 3.48.767 0 1.595-.334 2.327-.94.779-.649 1.574-.987 2.305-.987.671 0 1.264.293 1.674.83.259.339.438.759.535 1.238l-.199 10.974ZM8.232 15.375c.95 0 1.545.671 1.772 1.987.272 1.62.036 3.063-.637 3.847-.294.347-.644.535-1.018.535-.183 0-.37-.046-.55-.133-.43-.2-.825-.37-1.276-.37-.021 0-.042.002-.062.003l-.062.002c-.484.032-1.021.201-1.809.566-.276.133-.528.197-.743.197-.492 0-.687-.352-.764-.648-.32-1.247.75-3.877 3.22-5.333.729-.433 1.376-.653 1.929-.653Zm217.855-3.232c1.114 0 1.69.681 1.815 2.137a3.83 3.83 0 0 1-.878 2.767c-.676.8-1.68 1.279-2.897 1.388a5.79 5.79 0 0 1-.552.023c-2.183 0-3.636-1.151-4.27-2.228-.491-.827-.566-1.745-.194-2.384.424-.73 1.385-1.118 2.778-1.118.174 0 .361.009.552.023l.184.009c.185.01.335.018.464.018.425 0 .65-.064 1.068-.21l.069-.023c.248-.086.505-.173.79-.246.417-.105.77-.156 1.071-.156Z" fill="#202020"/></svg>