<svg width="1729" height="209" fill="none" xmlns="http://www.w3.org/2000/svg" viewBox="0 0 1729 130"><g filter="url(#a)"><path fill-rule="evenodd" clip-rule="evenodd" d="M0 156.502V16.348c19.81-5.226 42.881-6.014 66.669-1.267 49.403 9.862 86.784 40.588 94.878 74.332 14.295-10.786 32.315-15.672 50.467-12.05 19.857 3.964 35.66 17.272 44.375 34.959 16.934-30.788 57.76-47.843 100.562-39.3 48.653 9.712 82.25 48.984 77.762 89.364 12.038-7.966 31.028-11.057 51.147-7.041 20.832 4.159 37.622 14.887 45.35 27.42 15.472-5.772 34.921-9.21 56.045-9.21 11.826 0 23.128 1.078 33.5 3.039 14.495-21.342 46.167-36.145 82.906-36.145 40.745 0 75.257 18.206 87.019 43.347 9.63-10.672 23.149-17.311 38.12-17.311 16.376 0 31.017 7.945 40.73 20.426 8.555-26.738 38.236-46.462 73.536-46.462 40.128 0 72.984 25.483 75.824 57.783 8.29-8.114 22.86-13.498 39.45-13.498 15.78 0 29.75 4.874 38.2 12.336 1.07-.21 2.13-.416 3.21-.618 6.93-25.488 44.23-49.534 92.07-57.131 13.14-2.087 25.9-2.747 37.81-2.15 11.91-28.971 44.19-52.88 85-59.362 45.28-7.188 87.2 9.256 105.2 38.296 8.6-14.908 22.31-25.51 38.95-28.15 18.2-2.89 36.02 4.362 49.26 18.096 4.25-34.603 33.36-64.252 72.58-70.48 44.57-7.08 86.09 18.662 95.58 58.138 7.62-11.504 22.75-20.737 41.18-23.665 3.95-.626 7.84-.931 11.62-.94V170.03c-29.39 3.506-55.35-1.53-67.84-12.177-13.06 16.336-32.78 28.281-56.05 31.977-11.32 1.797-22.43 1.48-32.88-.641-6.49 7.096-15.03 13.803-25.21 19.811H138.905c-27.639-9.835-50.18-23.252-64.243-37.773-12.343.593-25.344-.335-38.566-2.974-12.964-2.588-25.1-6.613-36.096-11.751Z" fill="#FFCD4D"/></g><path fill-rule="evenodd" clip-rule="evenodd" d="M1729 66.401a77.93 77.93 0 0 0-12.04.973c-16.63 2.642-30.87 10.292-39.61 20.386-12.17-37.97-53.4-61.808-97.16-54.858-38.33 6.087-67.46 33.995-74 67.614-13.29-11.882-30.33-18.009-47.83-15.23-16.15 2.563-29.59 12.224-38.61 25.815-19.83-27.938-61.38-42.975-105.54-35.962-40.71 6.465-73.43 30.026-86.33 59.249-11.55-.45-23.85.258-36.49 2.264-24.23 3.848-45.86 11.87-62.38 22.235-15.79 9.911-27.21 22.159-31.39 35.217-.1.021-.21.042-.32.063-9.12-7.488-23.29-12.136-38.96-12.136-14.8 0-28.29 4.152-37.43 10.944-5.75-31.615-38.809-55.229-77.843-55.229-34.245 0-63.776 18.119-74.472 43.875-10.079-10.98-24.166-17.839-39.794-17.839-14.445 0-27.577 5.861-37.442 15.421-13.761-24.584-48.173-41.457-87.696-41.457-36.521 0-68.568 14.38-84.124 35.877-10.068-1.793-20.943-2.771-32.283-2.771-20.491 0-39.494 3.191-54.956 8.642-8.665-12.513-25.57-22.74-45.91-26.8-18.303-3.653-35.936-1.627-48.611 4.797 1.402-40.224-32.722-77.624-80.296-87.12-41.76-8.335-82.091 7.125-100.966 36.463-9.396-16.22-24.862-28.307-43.973-32.121-17.63-3.52-35.104.654-49.406 10.251-10.207-33.56-47.748-62.915-95.939-72.534C43.367 7.673 20.117 8.372 0 13.555v5.59c19.498-5.27 42.392-6.155 66.141-1.415l1.058-5.3-1.057 5.3c48.796 9.741 85.019 39.96 92.78 72.312l.962 4.011 3.293-2.484c13.736-10.364 30.982-15.015 48.31-11.556 18.953 3.783 34.098 16.491 42.48 33.502l2.292 4.652 2.5-4.544h-.001c16.249-29.543 55.764-46.316 97.665-37.951 47.688 9.518 79.898 47.807 75.606 86.415l-.637 5.739 4.815-3.187c11.289-7.472 29.501-10.562 49.125-6.645 20.331 4.059 36.356 14.472 43.58 26.187l1.165 1.889 2.08-.775c15.128-5.643 34.25-9.038 55.099-9.038 11.665 0 22.797 1.062 32.997 2.991l.503-2.655h.001l-.503 2.655 1.742.33.996-1.467c13.845-20.385 44.528-34.961 80.671-34.961 40.144 0 73.416 17.948 84.571 41.79h.001l1.725 3.688 2.728-3.023c9.161-10.152 21.969-16.418 36.113-16.418 15.469 0 29.351 7.499 38.598 19.382l3.145 4.042 1.561-4.878c8.12-25.372 36.554-44.583 70.962-44.583 39.174 0 70.453 24.82 73.133 55.317l.5 5.693 4.08-3.998c7.65-7.488 21.47-12.726 37.56-12.726 15.31 0 28.57 4.736 36.41 11.659l1 .885 1.32-.26c1.05-.208 2.11-.412 3.18-.613l1.66-.313.45-1.634c3.21-11.817 13.63-23.724 29.52-33.695 15.83-9.928 36.75-17.727 60.36-21.476 12.96-2.058 25.55-2.707 37.26-2.12l1.91.096.73-1.767c11.47-27.911 42.82-51.352 82.92-57.722 44.52-7.07 85.2 9.19 102.48 37.052l2.37 3.838 2.27-3.912c8.26-14.316 21.32-24.337 37.03-26.831 17.17-2.728 34.15 4.089 46.89 17.302l3.93 4.082.7-5.628c4.09-33.295 32.16-62.083 70.31-68.14 43.38-6.89 83.42 18.181 92.54 56.102l1.45 6.039 3.44-5.18c7.09-10.738 21.48-19.652 39.34-22.488a72.49 72.49 0 0 1 11.19-.907v-5.404Zm0 100.906v5.443c-13.75 1.614-26.8 1.391-38.14-.4-11.89-1.877-22.11-5.508-29.29-10.743-13.47 15.8-33.09 27.247-56.04 30.891-11.1 1.763-22.02 1.548-32.35-.372-5.68 5.991-12.75 11.671-20.97 16.874h-10.65c11.79-6.465 21.54-13.832 28.67-21.635l2 1.823v-.004l-2-1.819 1.04-1.13 1.49.305c10.14 2.056 20.93 2.367 31.93.621 22.61-3.592 41.72-15.191 54.36-30.997l1.75-2.177 2.12 1.809-1.76 2.054.01.002 1.75-2.056c6.16 5.253 16.17 9.223 28.79 11.215 10.97 1.734 23.75 1.94 37.29.296ZM147.338 209h-16.174c-24.311-9.455-44.348-21.706-57.585-35.022-12.203.488-25.007-.481-38.01-3.076-12.72-2.54-24.673-6.444-35.569-11.425v-5.966c11.091 5.302 23.412 9.453 36.626 12.091 13.01 2.596 25.79 3.507 37.908 2.924l1.22-.058.851.878c14.947 15.434 39.939 29.758 70.733 39.654Zm952.412-12.549.5 2.656-.5-2.656Zm578.72-101.252-2.26-1.49 2.26 1.49Zm-581.93 101.875-1.79 2.021 1.79-2.026v.005ZM161.549 89.412Z" fill="#000"/><defs><filter id="a" x="0" y=".225" width="1729" height="208.775" filterUnits="userSpaceOnUse" color-interpolation-filters="sRGB"><feFlood flood-opacity="0" result="BackgroundImageFix"/><feColorMatrix in="SourceAlpha" values="0 0 0 0 0 0 0 0 0 0 0 0 0 0 0 0 0 0 127 0" result="hardAlpha"/><feOffset dy="-11.71"/><feComposite in2="hardAlpha" operator="out"/><feColorMatrix values="0 0 0 0 0.923333 0 0 0 0 0.923333 0 0 0 0 0.923333 0 0 0 1 0"/><feBlend in2="BackgroundImageFix" result="effect1_dropShadow_295_4718"/><feBlend in="SourceGraphic" in2="effect1_dropShadow_295_4718" result="shape"/></filter></defs></svg>