<svg width="24" height="24" viewBox="0 0 24 24" fill="none" xmlns="http://www.w3.org/2000/svg">
<path d="M12 0C5.61688 0 0.441223 5.17565 0.441223 11.5588C0.441223 17.9419 5.61688 23.1176 12 23.1176C18.3831 23.1176 23.5588 17.9419 23.5588 11.5588C23.5588 5.17565 18.3831 0 12 0ZM18.605 6.54568L17.5524 7.55449C17.4595 7.62416 17.4156 7.73768 17.4337 7.84863V15.2715C17.4156 15.3851 17.4595 15.4986 17.5524 15.5657L18.5844 16.5745V16.7989H13.4036V16.5848L14.4692 15.5502C14.5749 15.4444 14.5749 15.4134 14.5749 15.2561V9.24961L11.6078 16.7731H11.2079L7.75577 9.24961V14.2937C7.72481 14.5052 7.79963 14.7194 7.94928 14.8716L9.33736 16.5513V16.7757H5.39499V16.5513L6.78308 14.8716C6.85621 14.7961 6.91064 14.7045 6.942 14.6041C6.97336 14.5037 6.98079 14.3974 6.96368 14.2937V8.46269C6.98174 8.30014 6.91982 8.14275 6.79598 8.03181L5.5627 6.54568V6.32121H9.39413L12.3509 12.8101L14.9542 6.32637H18.605V6.54568Z" fill="#FFCD4D"/>
</svg>
