<svg width="24" height="24" viewBox="0 0 24 25" fill="none" xmlns="http://www.w3.org/2000/svg">
<path d="M5 19.0966L7.66311 16.3856L5.07654 13.1849V12.9805L7.89274 9.4239L5.38007 7H7.84259L11.7013 10.9318V7H13.6043V10.9653L17.4868 7H19.9493L17.4103 9.4239L20.2291 12.9805V13.1849L17.6399 16.3856L20.3822 19.0966H17.9698L13.6043 14.5906V19.0966H11.7013V14.4884L7.33319 19.0966H5ZM16.5472 15.2846L18.2733 13.1162V13.0492L16.2701 10.4914L13.9342 12.7603L16.5472 15.2846ZM8.75581 15.2846L11.3186 12.7938L8.95904 10.5249L7.02967 13.0492V13.1162L8.75581 15.2846Z" fill="white"/>
<path d="M12.5 24C18.8513 24 24 18.8513 24 12.5C24 6.14873 18.8513 1 12.5 1C6.14873 1 1 6.14873 1 12.5C1 18.8513 6.14873 24 12.5 24Z" stroke="white"/>
</svg>
