<svg width="139" height="66" fill="none" xmlns="http://www.w3.org/2000/svg" viewBox="0 0 139 66"><path d="m43.9-2.233 2.316 6.278 3.895-5.72-2.316-6.277-3.894 5.719Z" fill="#CC8C4E"/><path d="m46.138 4.672-2.56-6.945 4.294-6.306 2.561 6.945-4.295 6.306Zm-1.915-6.865 2.07 5.61 3.495-5.132-2.07-5.61-3.495 5.131Z" fill="#926845"/><path d="m40.006 3.488 2.315 6.278 3.895-5.72L43.9-2.23l-3.895 5.72Z" fill="#CC8C4E"/><path d="m42.244 10.393-2.56-6.945 4.294-6.306 2.56 6.944-4.294 6.307Zm-1.915-6.865 2.07 5.611 3.494-5.132-2.07-5.61-3.494 5.13Z" fill="#926845"/><path d="m36.112 9.205 2.315 6.278 3.894-5.719-2.315-6.278-3.894 5.72Z" fill="#CC8C4E"/><path d="m38.35 16.111-2.561-6.945 4.294-6.307 2.561 6.945-4.294 6.307Zm-1.916-6.866 2.07 5.612 3.494-5.133-2.07-5.61-3.494 5.131Z" fill="#926845"/><path d="m32.217 14.925 2.316 6.279 3.894-5.72-2.315-6.278-3.895 5.72Z" fill="#CC8C4E"/><path d="m34.455 21.83-2.56-6.944 4.294-6.307 2.56 6.945-4.294 6.306Zm-1.915-6.865 2.07 5.611 3.494-5.131-2.07-5.612-3.494 5.132Z" fill="#926845"/><path d="m8.85 49.242 2.315 6.278 3.895-5.72-2.316-6.277-3.894 5.719Z" fill="#CC8C4E"/><path d="m11.088 56.147-2.56-6.945 4.293-6.306 2.56 6.944-4.293 6.307Zm-1.915-6.865 2.07 5.61 3.494-5.13-2.07-5.612-3.494 5.132Z" fill="#926845"/><path d="M12.745 43.521 15.06 49.8l3.895-5.72-2.316-6.277-3.894 5.72Z" fill="#CC8C4E"/><path d="m14.983 50.426-2.56-6.945 4.294-6.306 2.56 6.944-4.294 6.307Zm-1.915-6.866 2.07 5.611 3.494-5.131-2.07-5.612-3.495 5.132Z" fill="#926845"/><path d="M4.956 54.962 7.27 61.24l3.894-5.72-2.315-6.277-3.894 5.719Z" fill="#CC8C4E"/><path d="m7.193 61.867-2.56-6.944 4.295-6.307 2.56 6.945-4.295 6.306ZM5.28 55.002l2.07 5.61 3.494-5.131-2.07-5.611-3.494 5.132Z" fill="#926845"/><path d="m28.323 20.645 2.315 6.278 3.894-5.719-2.315-6.278-3.894 5.72Z" fill="#CC8C4E"/><path d="M30.56 27.55 28 20.606l4.294-6.307 2.56 6.945-4.294 6.306Zm-1.915-6.865 2.07 5.61 3.494-5.131-2.069-5.612-3.495 5.133Z" fill="#926845"/><path d="m.72 61.18 4.503 3.066 2.048-3.008-2.315-6.278L.72 61.18Z" fill="#CC8C4E"/><path d="M5.3 64.646.319 61.255l4.714-6.922 2.56 6.945L5.3 64.646Zm-4.178-3.543 4.025 2.74 1.8-2.645-2.069-5.61-3.756 5.515Z" fill="#926845"/><path d="m24.428 26.363 2.315 6.278 3.895-5.72-2.315-6.277-3.895 5.719Z" fill="#CC8C4E"/><path d="m26.666 33.269-2.56-6.945 4.293-6.306 2.561 6.944-4.294 6.307Zm-1.915-6.865 2.07 5.61 3.494-5.131-2.07-5.611-3.494 5.132Z" fill="#926845"/><path d="m16.639 37.803 2.315 6.278 3.895-5.72-2.315-6.277-3.895 5.72Z" fill="#CC8C4E"/><path d="m18.877 44.707-2.56-6.944 4.294-6.307 2.56 6.945-4.294 6.306Zm-1.915-6.865 2.07 5.611 3.494-5.132-2.07-5.61-3.494 5.13Z" fill="#926845"/><path d="m20.534 32.083 2.315 6.277 3.894-5.718-2.315-6.279-3.894 5.72Z" fill="#CC8C4E"/><path d="m22.772 38.988-2.561-6.945 4.295-6.307 2.56 6.945-4.294 6.307Zm-1.916-6.865 2.07 5.611 3.494-5.132-2.07-5.611-3.494 5.132Z" fill="#926845"/><path d="m119.752 36.366-6.682-.141 3.888 5.722 6.682.144-3.888-5.725Z" fill="#CC8C4E"/><path d="m124.195 42.392-7.393-.159-4.286-6.31 7.391.158 4.288 6.311Zm-7.082-.73 5.973.128-3.49-5.138-5.972-.126 3.489 5.135Z" fill="#926845"/><path d="m123.64 42.094-6.682-.145 3.887 5.723 6.685.147-3.89-5.725Z" fill="#CC8C4E"/><path d="m128.084 48.119-7.395-.162-4.285-6.31 7.393.16 4.287 6.312ZM121 47.385l5.975.13-3.49-5.136-5.973-.13L121 47.386Z" fill="#926845"/><path d="m108.085 19.192-6.677-.133 3.887 5.722 6.679.136-3.889-5.725Z" fill="#CC8C4E"/><path d="m112.527 25.217-7.387-.151-4.286-6.31 7.386.15 4.287 6.311Zm-7.076-.723 5.969.122-3.49-5.138-5.968-.12 3.489 5.136Z" fill="#926845"/><path d="m111.974 24.916-6.679-.137 3.887 5.723 6.68.139-3.888-5.725Z" fill="#CC8C4E"/><path d="m116.417 30.942-7.389-.154-4.287-6.31 7.388.152 4.288 6.312Zm-7.079-.726 5.971.125-3.49-5.138-5.969-.122 3.488 5.135Z" fill="#926845"/><path d="m115.862 30.644-6.679-.14 3.887 5.723 6.682.142-3.89-5.725Z" fill="#CC8C4E"/><path d="m120.306 36.669-7.391-.156-4.286-6.31 7.389.154 4.288 6.312Zm-7.081-.729 5.972.127-3.489-5.138-5.971-.124 3.488 5.135Z" fill="#926845"/><path d="m137.177 62.02-1.87-2.753-6.688-.152 4.052 5.966 4.506-3.061Z" fill="#CC8C4E"/><path d="m132.594 65.482-4.53-6.67 7.399.168 2.116 3.115-4.985 3.387Zm-3.42-6.066 3.574 5.261 4.027-2.735-1.624-2.39-5.977-.136Z" fill="#926845"/><path d="m127.53 47.818-6.685-.147 3.887 5.722 6.686.15-3.888-5.725Z" fill="#CC8C4E"/><path d="m131.973 53.843-7.396-.165-4.287-6.31 7.395.162 4.288 6.313Zm-7.085-.737 5.976.133-3.49-5.137-5.975-.131 3.489 5.135Z" fill="#926845"/><path d="m131.418 53.541-6.686-.15 3.887 5.723 6.688.152-3.889-5.725Z" fill="#CC8C4E"/><path d="m135.862 59.569-7.399-.168-4.286-6.31 7.397.165 4.288 6.313Zm-7.087-.74 5.978.135-3.49-5.136-5.976-.134 3.488 5.135Z" fill="#926845"/><path d="m104.196 13.467-6.675-.132 3.888 5.723 6.676.134-3.889-5.725Z" fill="#CC8C4E"/><path d="m108.638 19.49-7.385-.148-4.285-6.309 7.383.146 4.287 6.312Zm-7.074-.72 5.967.12-3.491-5.138-5.966-.118 3.49 5.136Z" fill="#926845"/><path d="m100.307 7.746-6.673-.13 3.887 5.722 6.675.133-3.889-5.725Z" fill="#CC8C4E"/><path d="m104.75 13.769-7.384-.146-4.285-6.309 7.381.143 4.288 6.312Zm-7.074-.718 5.966.118-3.491-5.139-5.964-.115 3.49 5.136Z" fill="#926845"/><path d="M92.528-3.707 85.86-3.83l3.888 5.723 6.67.126-3.889-5.725Z" fill="#CC8C4E"/><path d="m96.97 2.317-7.38-.141-4.284-6.309 7.377.138 4.288 6.312Zm-7.069-.714 5.963.114-3.49-5.138-5.962-.112 3.49 5.136Z" fill="#926845"/><path d="m96.418 2.018-6.671-.126 3.887 5.722 6.673.13-3.89-5.726Z" fill="#CC8C4E"/><path d="m100.86 8.043-7.381-.142-4.286-6.31 7.38.141 4.287 6.311Zm-7.07-.715 5.963.115-3.49-5.139-5.963-.113 3.49 5.136Z" fill="#926845"/><path d="m132.671 65.08-31.65-46.593L85.196-4.808l-7.913-11.649-1.978-2.912-.494-.727-.452-.605-.222-.298-.24-.277c-.163-.18-.314-.386-.483-.548a8.274 8.274 0 0 0-2.066-1.65 4.558 4.558 0 0 0-2.132-.59c-.72-.03-1.49.157-2.278.484-.787.347-1.582.85-2.33 1.464a14.063 14.063 0 0 0-1.574 1.521l-.2.237a.128.128 0 0 0-.014.019l-.123.18-1.982 2.91-7.927 11.642-15.855 23.283-31.71 46.568-1.626-1.108 31.71-46.567L51.16-6.714l7.928-11.642 1.982-2.91c.266-.42.667-.834 1.052-1.237.391-.4.805-.78 1.236-1.134.863-.708 1.803-1.312 2.798-1.75.998-.418 2.053-.684 3.104-.645a6.532 6.532 0 0 1 3.022.825c.939.516 1.804 1.21 2.56 2.028.2.193.37.42.555.628l.275.319.252.337.506.677.494.728 1.979 2.913 7.914 11.65 15.828 23.3L134.3 63.971l-1.63 1.108Z" fill="#ECB35E"/><path opacity=".67" d="m135.764 62.978-31.659-46.606-15.83-23.304-7.916-11.651-1.978-2.913-.495-.728c-.175-.246-.37-.496-.553-.744l-.28-.372-.304-.354c-.208-.233-.395-.48-.62-.701a11.966 11.966 0 0 0-3.006-2.37 8.32 8.32 0 0 0-3.823-1.037c-1.348-.045-2.66.29-3.847.79-1.183.52-2.252 1.215-3.218 2.007a17.785 17.785 0 0 0-2.017 1.95 12.57 12.57 0 0 0-.315.374 2.62 2.62 0 0 0-.174.236l-.123.182-1.982 2.91L49.696-7.71 33.842 15.572 2.132 62.14l-.69-.47 31.71-46.567L49.006-8.18l7.928-11.642 1.982-2.91.124-.183c.064-.099.135-.196.209-.284.13-.163.226-.274.34-.405a18.588 18.588 0 0 1 2.115-2.047c1.016-.831 2.146-1.568 3.417-2.126 1.276-.54 2.71-.908 4.197-.86 1.48.03 2.958.448 4.2 1.138a12.8 12.8 0 0 1 3.216 2.53c.238.235.433.49.65.735l.32.371.293.389c.192.257.396.523.575.775l.495.728 1.98 2.913 7.915 11.652 15.831 23.305 31.662 46.609-.691.47Z" fill="#ECB35E"/><path d="m43.9-2.233 2.316 6.278 3.895-5.72-2.316-6.277-3.894 5.719Z" fill="#CC8C4E"/><path d="m46.138 4.672-2.56-6.945 4.294-6.306 2.561 6.945-4.295 6.306Zm-1.915-6.865 2.07 5.61 3.495-5.132-2.07-5.61-3.495 5.131Z" fill="#926845"/><path d="m40.006 3.488 2.315 6.278 3.895-5.72L43.9-2.23l-3.895 5.72Z" fill="#CC8C4E"/><path d="m42.244 10.393-2.56-6.945 4.294-6.306 2.56 6.944-4.294 6.307Zm-1.915-6.865 2.07 5.611 3.494-5.132-2.07-5.61-3.494 5.13Z" fill="#926845"/><path d="m36.112 9.205 2.315 6.278 3.894-5.719-2.315-6.278-3.894 5.72Z" fill="#CC8C4E"/><path d="m38.35 16.111-2.561-6.945 4.294-6.307 2.561 6.945-4.294 6.307Zm-1.916-6.866 2.07 5.612 3.494-5.133-2.07-5.61-3.494 5.131Z" fill="#926845"/><path d="m32.217 14.925 2.316 6.279 3.894-5.72-2.315-6.278-3.895 5.72Z" fill="#CC8C4E"/><path d="m34.455 21.83-2.56-6.944 4.294-6.307 2.56 6.945-4.294 6.306Zm-1.915-6.865 2.07 5.611 3.494-5.131-2.07-5.612-3.494 5.132Z" fill="#926845"/><path d="m8.85 49.242 2.315 6.278 3.895-5.72-2.316-6.277-3.894 5.719Z" fill="#CC8C4E"/><path d="m11.088 56.147-2.56-6.945 4.293-6.306 2.56 6.944-4.293 6.307Zm-1.915-6.865 2.07 5.61 3.494-5.13-2.07-5.612-3.494 5.132Z" fill="#926845"/><path d="M12.745 43.521 15.06 49.8l3.895-5.72-2.316-6.277-3.894 5.72Z" fill="#CC8C4E"/><path d="m14.983 50.426-2.56-6.945 4.294-6.306 2.56 6.944-4.294 6.307Zm-1.915-6.866 2.07 5.611 3.494-5.131-2.07-5.612-3.495 5.132Z" fill="#926845"/><path d="M4.956 54.962 7.27 61.24l3.894-5.72-2.315-6.277-3.894 5.719Z" fill="#CC8C4E"/><path d="m7.193 61.867-2.56-6.944 4.295-6.307 2.56 6.945-4.295 6.306ZM5.28 55.002l2.07 5.61 3.494-5.131-2.07-5.611-3.494 5.132Z" fill="#926845"/><path d="m28.323 20.645 2.315 6.278 3.894-5.719-2.315-6.278-3.894 5.72Z" fill="#CC8C4E"/><path d="M30.56 27.55 28 20.606l4.294-6.307 2.56 6.945-4.294 6.306Zm-1.915-6.865 2.07 5.61 3.494-5.131-2.069-5.612-3.495 5.133Z" fill="#926845"/><path d="m.72 61.18 4.503 3.066 2.048-3.008-2.315-6.278L.72 61.18Z" fill="#CC8C4E"/><path d="M5.3 64.646.319 61.255l4.714-6.922 2.56 6.945L5.3 64.646Zm-4.178-3.543 4.025 2.74 1.8-2.645-2.069-5.61-3.756 5.515Z" fill="#926845"/><path d="m24.428 26.363 2.315 6.278 3.895-5.72-2.315-6.277-3.895 5.719Z" fill="#CC8C4E"/><path d="m26.666 33.269-2.56-6.945 4.293-6.306 2.561 6.944-4.294 6.307Zm-1.915-6.865 2.07 5.61 3.494-5.131-2.07-5.611-3.494 5.132Z" fill="#926845"/><path d="m16.639 37.803 2.315 6.278 3.895-5.72-2.315-6.277-3.895 5.72Z" fill="#CC8C4E"/><path d="m18.877 44.707-2.56-6.944 4.294-6.307 2.56 6.945-4.294 6.306Zm-1.915-6.865 2.07 5.611 3.494-5.132-2.07-5.61-3.494 5.13Z" fill="#926845"/><path d="m20.534 32.083 2.315 6.277 3.894-5.718-2.315-6.279-3.894 5.72Z" fill="#CC8C4E"/><path d="m22.772 38.988-2.561-6.945 4.295-6.307 2.56 6.945-4.294 6.307Zm-1.916-6.865 2.07 5.611 3.494-5.132-2.07-5.611-3.494 5.132Z" fill="#926845"/><path d="m119.752 36.366-6.682-.141 3.888 5.722 6.682.144-3.888-5.725Z" fill="#CC8C4E"/><path d="m124.195 42.392-7.393-.159-4.286-6.31 7.391.158 4.288 6.311Zm-7.082-.73 5.973.128-3.49-5.138-5.972-.126 3.489 5.135Z" fill="#926845"/><path d="m123.64 42.094-6.682-.145 3.887 5.723 6.685.147-3.89-5.725Z" fill="#CC8C4E"/><path d="m128.084 48.119-7.395-.162-4.285-6.31 7.393.16 4.287 6.312ZM121 47.385l5.975.13-3.49-5.136-5.973-.13L121 47.386Z" fill="#926845"/><path d="m108.085 19.192-6.677-.133 3.887 5.722 6.679.136-3.889-5.725Z" fill="#CC8C4E"/><path d="m112.527 25.217-7.387-.151-4.286-6.31 7.386.15 4.287 6.311Zm-7.076-.723 5.969.122-3.49-5.138-5.968-.12 3.489 5.136Z" fill="#926845"/><path d="m111.974 24.916-6.679-.137 3.887 5.723 6.68.139-3.888-5.725Z" fill="#CC8C4E"/><path d="m116.417 30.942-7.389-.154-4.287-6.31 7.388.152 4.288 6.312Zm-7.079-.726 5.971.125-3.49-5.138-5.969-.122 3.488 5.135Z" fill="#926845"/><path d="m115.862 30.644-6.679-.14 3.887 5.723 6.682.142-3.89-5.725Z" fill="#CC8C4E"/><path d="m120.306 36.669-7.391-.156-4.286-6.31 7.389.154 4.288 6.312Zm-7.081-.729 5.972.127-3.489-5.138-5.971-.124 3.488 5.135Z" fill="#926845"/><path d="m137.177 62.02-1.87-2.753-6.688-.152 4.052 5.966 4.506-3.061Z" fill="#CC8C4E"/><path d="m132.594 65.482-4.53-6.67 7.399.168 2.116 3.115-4.985 3.387Zm-3.42-6.066 3.574 5.261 4.027-2.735-1.624-2.39-5.977-.136Z" fill="#926845"/><path d="m127.53 47.818-6.685-.147 3.887 5.722 6.686.15-3.888-5.725Z" fill="#CC8C4E"/><path d="m131.973 53.843-7.396-.165-4.287-6.31 7.395.162 4.288 6.313Zm-7.085-.737 5.976.133-3.49-5.137-5.975-.131 3.489 5.135Z" fill="#926845"/><path d="m131.418 53.541-6.686-.15 3.887 5.723 6.688.152-3.889-5.725Z" fill="#CC8C4E"/><path d="m135.862 59.569-7.399-.168-4.286-6.31 7.397.165 4.288 6.313Zm-7.087-.74 5.978.135-3.49-5.136-5.976-.134 3.488 5.135Z" fill="#926845"/><path d="m104.196 13.467-6.675-.132 3.888 5.723 6.676.134-3.889-5.725Z" fill="#CC8C4E"/><path d="m108.638 19.49-7.385-.148-4.285-6.309 7.383.146 4.287 6.312Zm-7.074-.72 5.967.12-3.491-5.138-5.966-.118 3.49 5.136Z" fill="#926845"/><path d="m100.307 7.746-6.673-.13 3.887 5.722 6.675.133-3.889-5.725Z" fill="#CC8C4E"/><path d="m104.75 13.769-7.384-.146-4.285-6.309 7.381.143 4.288 6.312Zm-7.074-.718 5.966.118-3.491-5.139-5.964-.115 3.49 5.136Z" fill="#926845"/><path d="M92.528-3.707 85.86-3.83l3.888 5.723 6.67.126-3.889-5.725Z" fill="#CC8C4E"/><path d="m96.97 2.317-7.38-.141-4.284-6.309 7.377.138 4.288 6.312Zm-7.069-.714 5.963.114-3.49-5.138-5.962-.112 3.49 5.136Z" fill="#926845"/><path d="m96.418 2.018-6.671-.126 3.887 5.722 6.673.13-3.89-5.726Z" fill="#CC8C4E"/><path d="m100.86 8.043-7.381-.142-4.286-6.31 7.38.141 4.287 6.311Zm-7.07-.715 5.963.115-3.49-5.139-5.963-.113 3.49 5.136Z" fill="#926845"/><path d="m132.671 65.08-31.65-46.593L85.196-4.808l-7.913-11.649-1.978-2.912-.494-.727-.452-.605-.222-.298-.24-.277c-.163-.18-.314-.386-.483-.548a8.274 8.274 0 0 0-2.066-1.65 4.558 4.558 0 0 0-2.132-.59c-.72-.03-1.49.157-2.278.484-.787.347-1.582.85-2.33 1.464a14.063 14.063 0 0 0-1.574 1.521l-.2.237a.128.128 0 0 0-.014.019l-.123.18-1.982 2.91-7.927 11.642-15.855 23.283-31.71 46.568-1.626-1.108 31.71-46.567L51.16-6.714l7.928-11.642 1.982-2.91c.266-.42.667-.834 1.052-1.237.391-.4.805-.78 1.236-1.134.863-.708 1.803-1.312 2.798-1.75.998-.418 2.053-.684 3.104-.645a6.532 6.532 0 0 1 3.022.825c.939.516 1.804 1.21 2.56 2.028.2.193.37.42.555.628l.275.319.252.337.506.677.494.728 1.979 2.913 7.914 11.65 15.828 23.3L134.3 63.971l-1.63 1.108Z" fill="#ECB35E"/><path opacity=".67" d="m135.764 62.978-31.659-46.606-15.83-23.304-7.916-11.651-1.978-2.913-.495-.728c-.175-.246-.37-.496-.553-.744l-.28-.372-.304-.354c-.208-.233-.395-.48-.62-.701a11.966 11.966 0 0 0-3.006-2.37 8.32 8.32 0 0 0-3.823-1.037c-1.348-.045-2.66.29-3.847.79-1.183.52-2.252 1.215-3.218 2.007a17.785 17.785 0 0 0-2.017 1.95 12.57 12.57 0 0 0-.315.374 2.62 2.62 0 0 0-.174.236l-.123.182-1.982 2.91L49.696-7.71 33.842 15.572 2.132 62.14l-.69-.47 31.71-46.567L49.006-8.18l7.928-11.642 1.982-2.91.124-.183c.064-.099.135-.196.209-.284.13-.163.226-.274.34-.405a18.588 18.588 0 0 1 2.115-2.047c1.016-.831 2.146-1.568 3.417-2.126 1.276-.54 2.71-.908 4.197-.86 1.48.03 2.958.448 4.2 1.138a12.8 12.8 0 0 1 3.216 2.53c.238.235.433.49.65.735l.32.371.293.389c.192.257.396.523.575.775l.495.728 1.98 2.913 7.915 11.652 15.831 23.305 31.662 46.609-.691.47Z" fill="#ECB35E"/><path d="M26.384 34.935c-.418.185-.832.378-1.264.53-.062-.1-.123-.201-.193-.3a11.33 11.33 0 0 1 1.245-.743c.06-.03.12-.11.095-.179-.025-.073-.113-.064-.168-.037-.46.226-.916.461-1.355.726-.1-.123-.198-.248-.31-.36.046-.037.092-.075.14-.108.175-.125.361-.23.548-.337.373-.212.758-.4 1.15-.575.108-.049.108-.258-.034-.2-.409.17-.827.323-1.225.517a5.475 5.475 0 0 0-.57.322c-.08.052-.166.106-.247.166a2.922 2.922 0 0 0-.655-.437l.118-.177.286-.416c.093-.135.184-.27.287-.398.107-.135.228-.256.358-.368.034-.03.065-.086.032-.126-.033-.042-.096-.018-.13.008a5.01 5.01 0 0 0-.765.734c-.11.128-.214.264-.32.396-.055.068-.111.137-.168.204l-.018.024a2.107 2.107 0 0 0-.718-.091c-.687.041-1.348.391-1.923.746-.657.404-1.26.888-1.833 1.403a42.42 42.42 0 0 0-1.738 1.648c-.502.505-.99 1.067-1.285 1.723-1.502-.53-3.188-.52-4.743-.299-.483.068-1.214.19-1.832.453-.12-.37-.443-.646-.749-.87-.426-.31-.893-.558-1.367-.787-.853-.413-1.737-.896-2.706-.58a2.463 2.463 0 0 0-.333.138c-.078-.124-.197-.213-.302-.315-.11-.108-.219-.219-.325-.331a8.45 8.45 0 0 1-.582-.687c-.052-.069-.187.043-.137.114.174.25.347.503.529.748.089.12.18.239.275.355.08.1.164.199.263.279-.069.045-.13.103-.194.154l-.041-.04a3.49 3.49 0 0 0-.369-.293 6.43 6.43 0 0 0-.53-.317c-.074-.04-.195.09-.113.14.17.104.34.209.5.328.078.058.154.117.223.185.048.047.093.098.14.147-.297.27-.55.592-.77.93-.08-.047-.172-.076-.257-.112-.109-.045-.216-.093-.323-.14a4.65 4.65 0 0 0-.646-.248c-.066-.018-.146.097-.064.124.214.074.417.179.614.29.095.053.189.106.285.156.087.046.178.092.274.113-.056.093-.112.184-.164.277-.125.225-.275.492-.398.774-.08-.018-.159-.034-.236-.054-.149-.04-.295-.09-.441-.137-.285-.09-.574-.172-.875-.18-.047-.002-.103.096-.04.102.299.028.576.134.85.249.13.054.26.109.392.157.086.032.174.06.263.077a2.662 2.662 0 0 0-.129.46 2.789 2.789 0 0 0-.37.003 3.805 3.805 0 0 0-.585.097c-.052.013-.105.07-.103.126.002.06.058.073.107.063.177-.037.356-.062.537-.069.13-.005.259.002.388.009-.017.335.072.654.355.913.424.39 1.05.622 1.562.875.279.139.565.269.863.36.338.103.692.136 1.034.227-.14 1.054.102 2.235.683 3.073.134.193.3.359.477.515-.612 1.07-.006 2.296 1.043 2.817a3.666 3.666 0 0 0 2.023.334c.325-.038.645-.113.958-.206.349-.105.765-.214 1.073-.408a.359.359 0 0 0 .118-.146c.749.209 1.511.37 2.275.465 1.77.22 4.046.161 5.503-1.008.733-.589 1.175-1.579.93-2.518-.148-.563-.525-.924-.996-1.175 1.47-.38 1.558-2.723.982-3.86-.033-.065-.073-.124-.11-.186.18-.144.32-.322.47-.51.248-.313.525-.576.83-.834.615-.518 1.274-.983 1.92-1.462.797-.59 2.208-1.177 1.635-2.364.4-.184.788-.391 1.187-.578.057-.027.113-.106.09-.17-.025-.074-.108-.061-.16-.038Z" fill="#BE842B"/><path d="M18.035 37.133a4.35 4.35 0 0 0-.116.859c-.017.319-.01.634.049.948.026.139.062.276.1.412-.005 0-.009-.002-.014-.003-.624-.079-1.26-.007-1.888.13-.013-.005-.027-.002-.04.008h-.003c.009-.061-.012-.117-.09-.15-.024-.01-.05-.016-.075-.026.59-.822 1.325-1.507 2.077-2.178Zm-2.163 2.951c.23-.056.461-.102.693-.137.212.166.425.33.616.52.403.4.702.925.94 1.434.218.462.396.94.519 1.435.065.265.114.533.141.804.017.166.015.333.017.5-.519-.159-1.064-.256-1.52-.365a28.163 28.163 0 0 1-1.502-.4c.024-.376-.071-.752-.19-1.105a6 6 0 0 0-.528-1.127c-.23-.395-.5-.846-.899-1.09.57-.178 1.146-.328 1.713-.468Z" fill="#FECF8D"/><path d="M15.518 43.79a12.26 12.26 0 0 1-.99-.354c-.873-.36-1.694-.827-2.501-1.31-.23-.138-.457-.277-.685-.415.398-.105.84-.39 1.074-.5.48-.225.986-.412 1.499-.578.422.266.698.803.914 1.218.175.337.331.685.453 1.045.098.29.151.599.236.895Zm-.221-4.087c-.329.096-.652.2-.967.3l-.363.12a5.015 5.015 0 0 1-.067-.165 1.36 1.36 0 0 0-.22-.42 1.3 1.3 0 0 0-.21-.187c.622.065 1.22.21 1.827.352Zm-2.229-.387c.033.002.065.007.097.009.122.106.239.218.326.357.082.13.133.269.176.416.012.038.024.078.034.118-.487.17-.97.36-1.424.594l-.06.035-.02-.05a4.243 4.243 0 0 0-.188-.365c-.111-.197-.232-.39-.35-.584a2.93 2.93 0 0 0-.341-.455 12.515 12.515 0 0 1 1.75-.075Zm-1.928.089c.027.035.057.067.081.104.104.157.183.327.266.496.092.19.185.378.272.57.052.118.1.236.142.356.01.03.018.063.027.097-.332.222-.727.482-1.049.403a30.49 30.49 0 0 0-1.164-.67c-.391-.213-.815-.398-1.243-.437.576-.706 1.827-.832 2.668-.919Zm-3.32-.671c.379.227.703.511 1.044.781-.364.2-.66.463-.783.82-.042.007-.082.01-.123.02a1.65 1.65 0 0 0-.421.058c.032-.22-.024-.458-.073-.668-.057-.242-.133-.48-.199-.72a2.772 2.772 0 0 0-.306-.753c.292.144.581.295.86.462Zm-3.314 2.722c0 .318.002.674.06 1.002a5.588 5.588 0 0 1-.664-.279c-.489-.242-1.165-.471-1.549-.872-.447-.468-.101-1.184.146-1.666.25-.487.521-.969.887-1.38.22-.245.482-.45.775-.586.108.327.15.675.192 1.017.059.464.103.93.134 1.395.03.457.018.912.019 1.37Zm.386 1.104c-.02-.004-.037-.013-.056-.017.112-.366.023-.832.018-1.192-.007-.49-.013-.977-.061-1.465-.047-.47-.135-.934-.228-1.395a3.867 3.867 0 0 0-.27-.879c.137-.05.28-.088.431-.101.585-.05 1.1.223 1.612.462.154.071.306.147.46.22.162.279.218.636.272.937.04.22.08.438.126.657.03.135.055.27.069.409.01.104.01.208.02.311-.783.334-1.397 1.183-1.66 1.927-.03.086-.05.176-.073.265-.213-.07-.437-.09-.66-.139Z" fill="#FECF8D"/><path d="M6.124 42.236a3.97 3.97 0 0 1 .125-.224c.26-.58.664-1.084 1.222-1.31.001.009.009.013.011.021.008-.003.014-.008.021-.011a.985.985 0 0 1 .294-.069c.195-.05.394-.05.595.002-.76 1.055-1.068 2.332-1.006 3.627.03.66.16 1.323.402 1.939.13.332.318.703.547 1.03-.092-.047-.186-.091-.276-.14-.468-.246-.933-.532-1.29-.922-1.128-.936-1.302-2.672-.645-3.944Zm4.658 6.973a5.88 5.88 0 0 1-.828.208 3.29 3.29 0 0 1-1.846-.226c-.872-.393-1.52-1.291-1.304-2.249.288.222.604.41.919.576.655.346 1.338.66 2.024.939.518.21 1.052.394 1.593.562-.189.058-.377.134-.558.19Z" fill="#FECF8D"/><path d="M8.806 47.477c-.126-.186-.258-.366-.363-.57a7.072 7.072 0 0 1-.75-2.727c-.074-1.197.172-2.47.798-3.505.11.04.22.091.33.17.26.095.512.227.752.363.299.169.591.349.887.524-.396 1.208-.193 2.63.042 3.837.212 1.095.623 2.352 1.48 3.136a19.939 19.939 0 0 1-3.176-1.228Z" fill="#FECF8D"/><path d="M15.103 49.242c-.924-.04-1.847-.2-2.756-.438-.324-.518-.67-1.006-.929-1.567a7.855 7.855 0 0 1-.566-1.784 14.463 14.463 0 0 1-.272-2.067c-.027-.523.011-1.038.04-1.557.255.153.513.3.768.454.928.564 1.863 1.088 2.851 1.514.01 1.13.24 2.282.694 3.31.225.51.507.988.83 1.444.153.219.34.492.57.681-.41.026-.822.028-1.23.01Z" fill="#FECF8D"/><path d="M17.695 49.04a7.769 7.769 0 0 1-.924.151 2.383 2.383 0 0 1-.454-.409c-.128-.16-.246-.331-.364-.499a7.776 7.776 0 0 1-.84-1.516c-.388-.943-.534-1.923-.723-2.91.277.116.555.23.841.328.68.235 1.375.423 2.072.601.137.035.278.067.418.099.037.36.128.719.223 1.067.107.394.24.792.409 1.165.218.482.58.888 1.001 1.206-.47.377-1.088.585-1.66.718Z" fill="#FECF8D"/><path d="M19.774 47.873a2.05 2.05 0 0 1-.208.253 5.442 5.442 0 0 1-.444-.411 2.986 2.986 0 0 1-.532-.799c-.158-.344-.277-.702-.399-1.06-.107-.315-.209-.644-.354-.946.476.107.96.22 1.38.454.922.512 1.148 1.646.557 2.509Zm-.506-3.393a.29.29 0 0 0-.17.066c.03-.392-.057-.82-.133-1.18a6.969 6.969 0 0 0-.553-1.624c-.245-.5-.549-1.004-.958-1.388a3.615 3.615 0 0 0-.619-.443c.799-.085 1.592.006 2.287.498a2.846 2.846 0 0 1 1.17 2.21c.02.693-.142 1.836-1.024 1.86Zm.945-3.888a3.225 3.225 0 0 0-1.762-1.151c-.053-.193-.13-.384-.174-.571a4.059 4.059 0 0 1-.113-.884c-.005-.326-.01-.69.063-1.025l.181-.162c.806-.716 1.618-1.454 2.562-1.981l.109-.087a6.204 6.204 0 0 0-.774 2.524 7.59 7.59 0 0 0 .035 1.515c.047.371.128.894.385 1.205-.176.2-.351.4-.512.617Z" fill="#FECF8D"/><path d="M20.914 39.756c-.065-.146-.138-.29-.187-.443a3.925 3.925 0 0 1-.153-.752 8.979 8.979 0 0 1-.047-1.327 6.35 6.35 0 0 1 .703-2.624c.298-.226.615-.42.959-.508.353-.091.666-.038.94.103-.063.283-.139.563-.182.852a10.853 10.853 0 0 0-.122 1.945c.01.236.001.656.183.828a.086.086 0 0 0 .074.023c-.773.59-1.514 1.201-2.168 1.903Z" fill="#FECF8D"/><path d="M24.417 36.933c-.393.295-.826.532-1.22.83l-.003.003a.132.132 0 0 0 .017-.048c.011-.133-.044-.26-.069-.39a3.47 3.47 0 0 1-.051-.471c-.015-.292-.002-.584.003-.876.005-.32.016-.64.043-.96.022-.259.031-.522.054-.783.372.213.67.587.89 1.007.093.107.184.221.271.34.161.22.36.46.418.733.063.294-.138.453-.353.615Z" fill="#FECF8D"/><path opacity=".73" d="M26.384 34.935c-.418.185-.832.378-1.264.53-.062-.1-.123-.201-.193-.3a11.33 11.33 0 0 1 1.245-.743c.06-.03.12-.11.095-.179-.025-.073-.113-.064-.168-.037-.46.226-.916.461-1.355.726-.1-.123-.198-.248-.31-.36.046-.037.092-.075.14-.108.175-.125.361-.23.548-.337.373-.212.758-.4 1.15-.575.108-.049.108-.258-.034-.2-.409.17-.827.323-1.225.517a5.475 5.475 0 0 0-.57.322c-.08.052-.166.106-.247.166a2.922 2.922 0 0 0-.655-.437l.118-.177.286-.416c.093-.135.184-.27.287-.398.107-.135.228-.256.358-.368.034-.03.065-.086.032-.126-.033-.042-.096-.018-.13.008a5.01 5.01 0 0 0-.765.734c-.11.128-.214.264-.32.396-.055.068-.111.137-.168.204l-.018.024a2.107 2.107 0 0 0-.718-.091c-.687.041-1.348.391-1.923.746-.657.404-1.26.888-1.833 1.403a42.42 42.42 0 0 0-1.738 1.648c-.502.505-.99 1.067-1.285 1.723-1.502-.53-3.188-.52-4.743-.299-.483.068-1.214.19-1.832.453-.12-.37-.443-.646-.749-.87-.426-.31-.893-.558-1.367-.787-.853-.413-1.737-.896-2.706-.58a2.463 2.463 0 0 0-.333.138c-.078-.124-.197-.213-.302-.315-.11-.108-.219-.219-.325-.331a8.45 8.45 0 0 1-.582-.687c-.052-.069-.187.043-.137.114.174.25.347.503.529.748.089.12.18.239.275.355.08.1.164.199.263.279-.069.045-.13.103-.194.154l-.041-.04a3.49 3.49 0 0 0-.369-.293 6.43 6.43 0 0 0-.53-.317c-.074-.04-.195.09-.113.14.17.104.34.209.5.328.078.058.154.117.223.185.048.047.093.098.14.147-.297.27-.55.592-.77.93-.08-.047-.172-.076-.257-.112-.109-.045-.216-.093-.323-.14a4.65 4.65 0 0 0-.646-.248c-.066-.018-.146.097-.064.124.214.074.417.179.614.29.095.053.189.106.285.156.087.046.178.092.274.113-.056.093-.112.184-.164.277-.125.225-.275.492-.398.774-.08-.018-.159-.034-.236-.054-.149-.04-.295-.09-.441-.137-.285-.09-.574-.172-.875-.18-.047-.002-.103.096-.04.102.299.028.576.134.85.249.13.054.26.109.392.157.086.032.174.06.263.077a2.662 2.662 0 0 0-.129.46 2.789 2.789 0 0 0-.37.003 3.805 3.805 0 0 0-.585.097c-.052.013-.105.07-.103.126.002.06.058.073.107.063.177-.037.356-.062.537-.069.13-.005.259.002.388.009-.017.335.072.654.355.913.424.39 1.05.622 1.562.875.279.139.565.269.863.36.338.103.692.136 1.034.227-.14 1.054.102 2.235.683 3.073.134.193.3.359.477.515-.612 1.07-.006 2.296 1.043 2.817a3.666 3.666 0 0 0 2.023.334c.325-.038.645-.113.958-.206.349-.105.765-.214 1.073-.408a.359.359 0 0 0 .118-.146c.749.209 1.511.37 2.275.465 1.77.22 4.046.161 5.503-1.008.733-.589 1.175-1.579.93-2.518-.148-.563-.525-.924-.996-1.175 1.47-.38 1.558-2.723.982-3.86-.033-.065-.073-.124-.11-.186.18-.144.32-.322.47-.51.248-.313.525-.576.83-.834.615-.518 1.274-.983 1.92-1.462.797-.59 2.208-1.177 1.635-2.364.4-.184.788-.391 1.187-.578.057-.027.113-.106.09-.17-.025-.074-.108-.061-.16-.038Zm-16.922 5.07c.246-.357.789-.44 1.184-.483.129-.015.262-.016.394-.021.217-.057.445-.083.657-.09.384-.013.853.015 1.157.283.125.11.135.292.034.422-.376.48-1.07.666-1.649.725-.575.06-1.302.01-1.742-.414-.127-.122-.131-.282-.035-.422Zm-4.04 1.542c-.426.231-.902.36-1.386.274-.431-.077-.894-.324-1.132-.703-.461-.736-.001-1.626.452-2.24.28-.38.616-.76 1.053-.955a1.3 1.3 0 0 1 .784-.073c.01 0 .02-.003.03-.002.784.087 2 .602 1.973 1.553-.013.472-.35.857-.646 1.195-.322.37-.695.717-1.128.951Zm12.822 5.387c-.147.5-.746.797-1.184.99-.58.255-1.228.365-1.858.387-1.24.045-2.51-.21-3.691-.571-1.21-.37-2.369-.89-3.423-1.593-.762-.508-1.38-1.043-1.64-1.947-.415-1.444.124-3.284 1.869-3.326a.287.287 0 0 1 .227.094c.366.07.702.253 1.005.469.433.309.808.69 1.203 1.045.476.43 1.013.761 1.57 1.079 1.144.653 2.35 1.184 3.576 1.664.598.235 1.279.404 1.832.733.345.206.638.551.514.976Zm.723-5.193c-.2 1.031-1.313 1.333-2.224 1.37-.918.037-1.82-.127-2.706-.352-.417-.107-1-.229-1.264-.606-.348-.496.216-.927.604-1.141 1.213-.67 2.733-.982 4.112-.955a.3.3 0 0 1 .148.043c.24.017.477.059.693.161.57.27.752.892.637 1.48Zm3.542-5.482c-.26.498-.543.998-.955 1.387-.674.636-1.572 1.006-2.472 1.184-.408.081-.921.128-1.277-.138-.34-.255-.271-.657-.058-.97.217-.319.524-.566.797-.834.355-.35.714-.696 1.09-1.023.78-.677 1.692-1.332 2.745-1.46.02-.002.035.004.054.005.021-.012.04-.026.062-.036.194-.095.37.087.402.257.11.562-.132 1.138-.388 1.628Z" fill="#BE842B"/><path d="M111.91 35.148c-.023.065.032.144.089.171.397.19.783.4 1.181.587-.581 1.182.826 1.78 1.618 2.376.643.483 1.298.953 1.91 1.477.304.26.579.524.825.839.147.189.286.367.464.513-.037.061-.077.121-.11.186-.584 1.132-.512 3.477.954 3.867-.473.247-.852.606-1.003 1.168-.253.936.182 1.93.911 2.524 1.448 1.18 3.724 1.254 5.495 1.048.765-.09 1.528-.246 2.278-.45a.361.361 0 0 0 .117.148c.306.196.722.308 1.07.415.313.096.632.174.957.214a3.666 3.666 0 0 0 2.025-.32c1.052-.513 1.668-1.734 1.064-2.81a2.9 2.9 0 0 0 .481-.51c.587-.834.838-2.013.705-3.068.342-.089.697-.12 1.034-.22.3-.089.587-.216.867-.353.513-.25 1.141-.477 1.569-.864.284-.258.375-.576.36-.911.13-.006.259-.012.389-.006.181.009.36.035.536.073.049.01.105-.002.108-.062.001-.056-.051-.114-.103-.127a3.81 3.81 0 0 0-.585-.102 2.747 2.747 0 0 0-.369-.006 2.611 2.611 0 0 0-.126-.46c.09-.018.179-.044.264-.075.133-.048.263-.101.393-.155.275-.113.553-.216.851-.242.064-.006.009-.104-.038-.103-.302.006-.59.085-.876.175-.147.046-.293.093-.442.133-.078.02-.158.035-.237.053-.121-.283-.269-.55-.393-.777-.051-.093-.107-.185-.162-.278.096-.02.187-.066.275-.111.096-.05.191-.102.286-.154a3.8 3.8 0 0 1 .616-.285c.082-.027.003-.143-.063-.125-.224.06-.436.15-.648.242-.108.047-.215.095-.324.14-.085.034-.177.063-.258.109a4.772 4.772 0 0 0-.763-.935c.048-.048.093-.1.141-.147a2.07 2.07 0 0 1 .224-.183c.16-.118.332-.221.503-.325.083-.049-.038-.18-.112-.14-.18.099-.361.198-.532.313a3.85 3.85 0 0 0-.371.29.902.902 0 0 0-.041.04c-.065-.051-.125-.11-.193-.156.1-.079.183-.177.265-.277.095-.115.188-.233.278-.353.184-.244.359-.495.534-.744.05-.07-.084-.183-.136-.115a8.2 8.2 0 0 1-.587.682 10.1 10.1 0 0 1-.328.33c-.104.1-.225.19-.304.312a2.408 2.408 0 0 0-.332-.14c-.966-.323-1.854.153-2.709.56-.476.227-.944.47-1.374.778-.307.222-.631.495-.755.864-.616-.267-1.347-.394-1.828-.466-1.554-.232-3.239-.255-4.745.265-.292-.658-.775-1.224-1.273-1.732a42.847 42.847 0 0 0-1.726-1.66c-.57-.52-1.169-1.008-1.823-1.416-.573-.359-1.231-.713-1.918-.76a2.105 2.105 0 0 0-.718.085l-.019-.023a13.097 13.097 0 0 1-.166-.206c-.105-.132-.207-.269-.317-.398a5.002 5.002 0 0 0-.76-.74c-.033-.025-.096-.05-.13-.008-.033.04-.002.097.031.126.13.113.25.235.356.37.101.13.191.266.283.4.096.139.189.28.283.42.037.055.076.117.117.177a2.944 2.944 0 0 0-.658.433 4.939 4.939 0 0 0-.246-.168 5.37 5.37 0 0 0-.567-.326c-.397-.197-.814-.352-1.222-.525-.141-.06-.143.15-.035.199.39.179.774.368 1.146.584.186.107.371.215.545.34.048.034.094.072.139.109-.113.111-.211.235-.312.358a17.59 17.59 0 0 0-1.349-.735c-.055-.027-.143-.036-.169.036-.025.07.035.149.093.18.43.224.844.474 1.241.752-.071.098-.132.198-.195.298-.431-.155-.843-.351-1.26-.538-.053-.027-.135-.04-.161.031Z" fill="#BE842B"/><path d="M122.466 39.562c-.025.01-.051.017-.076.027-.077.03-.099.087-.091.149h-.002c-.014-.01-.029-.014-.041-.009-.626-.14-1.262-.218-1.887-.143-.004 0-.009.003-.014.003.039-.136.076-.272.103-.41.062-.315.07-.63.056-.95a4.364 4.364 0 0 0-.109-.86c.747.677 1.477 1.367 2.061 2.193Zm1.789 1.255c-.399.241-.674.69-.907 1.084-.213.36-.4.726-.536 1.123-.121.353-.219.728-.198 1.103-.497.146-1.001.272-1.505.39-.455.105-1.003.198-1.522.353.003-.167.002-.334.02-.5.028-.27.08-.538.148-.802.125-.495.307-.97.527-1.431.243-.508.545-1.03.951-1.427.192-.189.406-.351.62-.516a7.9 7.9 0 0 1 .692.143c.567.144 1.143.3 1.71.48Z" fill="#FECF8D"/><path d="M123.116 43.153a7.34 7.34 0 0 1 .461-1.041c.218-.413.498-.948.922-1.212.512.17 1.016.36 1.495.59.234.11.674.4 1.071.506-.229.138-.459.275-.688.41-.811.479-1.635.939-2.51 1.293-.325.132-.658.243-.993.348.086-.296.142-.603.242-.894Zm1.838-3.532a1.278 1.278 0 0 0-.212.187 1.37 1.37 0 0 0-.223.418 3.87 3.87 0 0 1-.069.165c-.12-.04-.241-.083-.362-.122-.314-.102-.636-.209-.964-.308.609-.137 1.207-.278 1.83-.34Zm2.151.055a2.97 2.97 0 0 0-.345.453c-.12.193-.242.385-.354.582a4.136 4.136 0 0 0-.212.413c-.02-.012-.041-.026-.059-.035a11.001 11.001 0 0 0-1.419-.605c.01-.04.023-.08.033-.117.045-.147.098-.286.181-.416.088-.138.206-.248.328-.354.033-.002.065-.007.097-.008.584-.018 1.169.025 1.75.087Zm2.839.955c-.428.036-.854.218-1.246.427-.395.211-.783.434-1.169.662-.322.077-.716-.186-1.046-.411.009-.034.017-.067.028-.096.042-.12.092-.238.145-.354.087-.192.183-.38.276-.57.083-.168.165-.337.269-.494.024-.037.055-.068.082-.103.841.093 2.09.228 2.661.94Zm1.529-2.043a2.764 2.764 0 0 0-.313.751c-.067.24-.144.477-.203.718-.051.21-.109.448-.078.668a1.632 1.632 0 0 0-.421-.06c-.041-.01-.082-.014-.123-.02-.119-.36-.414-.625-.778-.827.344-.268.671-.55 1.051-.774.28-.165.571-.313.865-.456Zm2.458 1.834c.034-.466.082-.93.144-1.394.045-.342.089-.69.199-1.016.293.14.554.345.771.592.363.413.632.897.878 1.386.244.484.584 1.202.133 1.667-.386.398-1.064.623-1.554.861a5.8 5.8 0 0 1-.667.273c.06-.327.065-.683.067-1 .004-.457-.005-.913.029-1.369Zm-1.084 2.604c-.023-.089-.043-.18-.072-.265-.258-.747-.866-1.6-1.645-1.94.01-.102.011-.206.022-.31a3.82 3.82 0 0 1 .071-.41c.048-.217.09-.436.131-.655.057-.301.115-.657.28-.934.154-.073.308-.148.462-.218.515-.235 1.031-.504 1.615-.45.151.014.293.052.43.105a3.908 3.908 0 0 0-.277.877c-.096.46-.187.925-.237 1.393-.053.487-.062.975-.072 1.465-.007.36-.101.824.009 1.191-.019.005-.036.013-.056.018-.223.047-.447.065-.661.133Z" fill="#FECF8D"/><path d="M131.605 46.499c-.36.387-.826.67-1.296.913-.091.047-.185.09-.277.137.231-.326.422-.695.554-1.026.247-.614.38-1.277.416-1.936.071-1.294-.228-2.574-.98-3.634.201-.051.4-.05.595.002.101.011.201.031.293.07l.021.012c.002-.008.01-.012.011-.022.557.23.958.737 1.213 1.32.045.076.087.15.124.224.648 1.276.46 3.011-.674 3.94Zm-4.591 2.807a19.875 19.875 0 0 0 1.596-.55 22.483 22.483 0 0 0 2.032-.925 6.26 6.26 0 0 0 .922-.57c.21.96-.445 1.853-1.321 2.24-.573.254-1.232.314-1.847.213a5.932 5.932 0 0 1-.827-.215c-.179-.056-.366-.133-.555-.193Z" fill="#FECF8D"/><path d="M126.374 48.987c.863-.778 1.283-2.033 1.503-3.125.243-1.207.456-2.627.07-3.837.297-.173.59-.351.891-.518a5.05 5.05 0 0 1 .753-.357c.11-.079.221-.13.331-.169.62 1.04.856 2.314.774 3.511a6.774 6.774 0 0 1-.398 1.872c-.106.29-.229.576-.372.85-.106.203-.239.383-.366.568-1.017.481-2.089.9-3.186 1.205Z" fill="#FECF8D"/><path d="M122.02 49.481c.232-.188.42-.46.576-.677a8.28 8.28 0 0 0 .84-1.438 8.493 8.493 0 0 0 .717-3.304c.991-.42 1.93-.938 2.862-1.494.255-.152.514-.298.771-.449.025.52.059 1.034.028 1.557a14.528 14.528 0 0 1-.286 2.065 7.887 7.887 0 0 1-.58 1.78c-.263.56-.611 1.044-.939 1.56-.911.231-1.836.384-2.76.419-.407.015-.819.01-1.229-.019Z" fill="#FECF8D"/><path d="M119.005 48.549c.424-.316.789-.719 1.011-1.2a7.68 7.68 0 0 0 .416-1.161 6.81 6.81 0 0 0 .231-1.066 26.068 26.068 0 0 0 2.494-.681c.287-.097.567-.208.844-.322-.197.985-.35 1.965-.745 2.905a7.688 7.688 0 0 1-.85 1.51c-.119.167-.238.337-.368.497a2.329 2.329 0 0 1-.457.405 8.03 8.03 0 0 1-.922-.157c-.571-.136-1.187-.349-1.654-.73Z" fill="#FECF8D"/><path d="M119.163 45.593c.423-.23.907-.34 1.384-.444-.147.302-.252.63-.361.944-.125.357-.246.715-.406 1.057a3.013 3.013 0 0 1-.539.796 5.385 5.385 0 0 1-.447.407 2.033 2.033 0 0 1-.206-.254c-.584-.868-.351-2 .575-2.506Zm-1.055-2.75c.031-.862.474-1.709 1.185-2.203.699-.486 1.493-.572 2.29-.481-.217.13-.433.263-.622.438-.411.381-.719.883-.967 1.382a6.99 6.99 0 0 0-.565 1.62c-.078.358-.168.786-.141 1.179a.287.287 0 0 0-.169-.069c-.883-.03-1.036-1.175-1.011-1.867Zm-.414-2.651c.259-.309.345-.831.394-1.203a7.506 7.506 0 0 0 .046-1.513c-.061-.9-.332-1.744-.755-2.53.035.03.072.057.108.087.939.534 1.747 1.277 2.547 2l.18.163c.071.335.063.7.056 1.025-.008.3-.047.591-.119.883-.046.187-.125.378-.179.57a3.221 3.221 0 0 0-1.77 1.138 9.4 9.4 0 0 0-.508-.62Z" fill="#FECF8D"/><path d="M115.352 38.054c.026.004.051 0 .075-.022.182-.17.176-.59.188-.826a11.211 11.211 0 0 0-.108-1.946c-.041-.29-.116-.57-.177-.853.276-.14.588-.19.941-.097.344.091.659.287.955.515.407.82.657 1.712.685 2.63.013.44-.004.89-.056 1.326a3.94 3.94 0 0 1-.159.752c-.05.153-.124.296-.19.44-.649-.707-1.384-1.323-2.154-1.919Z" fill="#FECF8D"/><path d="M113.676 36.507c.061-.272.261-.51.423-.729.088-.118.179-.232.273-.34.223-.416.524-.788.897-.998.021.26.029.524.049.783.025.32.034.64.037.96.002.292.013.584-.004.875-.01.158-.024.316-.055.472-.025.13-.082.256-.072.389.002.016.01.032.017.048l-.003-.003c-.391-.3-.822-.54-1.213-.84-.214-.162-.414-.323-.349-.617Z" fill="#FECF8D"/><path opacity=".73" d="M111.91 35.148c-.023.065.032.144.089.171.397.19.783.4 1.181.587-.581 1.182.826 1.78 1.618 2.376.643.483 1.298.953 1.91 1.477.304.26.579.524.825.839.147.189.286.367.464.513-.037.061-.077.121-.11.186-.584 1.132-.512 3.477.954 3.867-.473.247-.852.606-1.003 1.168-.253.936.182 1.93.911 2.524 1.448 1.18 3.724 1.254 5.495 1.048.765-.09 1.528-.246 2.278-.45a.361.361 0 0 0 .117.148c.306.196.722.308 1.07.415.313.096.632.174.957.214a3.666 3.666 0 0 0 2.025-.32c1.052-.513 1.668-1.734 1.064-2.81a2.9 2.9 0 0 0 .481-.51c.587-.834.838-2.013.705-3.068.342-.089.697-.12 1.034-.22.3-.089.587-.216.867-.353.513-.25 1.141-.477 1.569-.864.284-.258.375-.576.36-.911.13-.006.259-.012.389-.006.181.009.36.035.536.073.049.01.105-.002.108-.062.001-.056-.051-.114-.103-.127a3.81 3.81 0 0 0-.585-.102 2.747 2.747 0 0 0-.369-.006 2.611 2.611 0 0 0-.126-.46c.09-.018.179-.044.264-.075.133-.048.263-.101.393-.155.275-.113.553-.216.851-.242.064-.006.009-.104-.038-.103-.302.006-.59.085-.876.175-.147.046-.293.093-.442.133-.078.02-.158.035-.237.053-.121-.283-.269-.55-.393-.777-.051-.093-.107-.185-.162-.278.096-.02.187-.066.275-.111.096-.05.191-.102.286-.154a3.8 3.8 0 0 1 .616-.285c.082-.027.003-.143-.063-.125-.224.06-.436.15-.648.242-.108.047-.215.095-.324.14-.085.034-.177.063-.258.109a4.772 4.772 0 0 0-.763-.935c.048-.048.093-.1.141-.147a2.07 2.07 0 0 1 .224-.183c.16-.118.332-.221.503-.325.083-.049-.038-.18-.112-.14-.18.099-.361.198-.532.313a3.85 3.85 0 0 0-.371.29.902.902 0 0 0-.041.04c-.065-.051-.125-.11-.193-.156.1-.079.183-.177.265-.277.095-.115.188-.233.278-.353.184-.244.359-.495.534-.744.05-.07-.084-.183-.136-.115a8.2 8.2 0 0 1-.587.682 10.1 10.1 0 0 1-.328.33c-.104.1-.225.19-.304.312a2.408 2.408 0 0 0-.332-.14c-.966-.323-1.854.153-2.709.56-.476.227-.944.47-1.374.778-.307.222-.631.495-.755.864-.616-.267-1.347-.394-1.828-.466-1.554-.232-3.239-.255-4.745.265-.292-.658-.775-1.224-1.273-1.732a42.847 42.847 0 0 0-1.726-1.66c-.57-.52-1.169-1.008-1.823-1.416-.573-.359-1.231-.713-1.918-.76a2.105 2.105 0 0 0-.718.085l-.019-.023a13.097 13.097 0 0 1-.166-.206c-.105-.132-.207-.269-.317-.398a5.002 5.002 0 0 0-.76-.74c-.033-.025-.096-.05-.13-.008-.033.04-.002.097.031.126.13.113.25.235.356.37.101.13.191.266.283.4.096.139.189.28.283.42.037.055.076.117.117.177a2.944 2.944 0 0 0-.658.433 4.939 4.939 0 0 0-.246-.168 5.37 5.37 0 0 0-.567-.326c-.397-.197-.814-.352-1.222-.525-.141-.06-.143.15-.035.199.39.179.774.368 1.146.584.186.107.371.215.545.34.048.034.094.072.139.109-.113.111-.211.235-.312.358a17.59 17.59 0 0 0-1.349-.735c-.055-.027-.143-.036-.169.036-.025.07.035.149.093.18.43.224.844.474 1.241.752-.071.098-.132.198-.195.298-.431-.155-.843-.351-1.26-.538-.053-.027-.135-.04-.161.031Zm17.009 5.578c-.443.422-1.171.465-1.745.402-.578-.063-1.272-.255-1.644-.738a.306.306 0 0 1 .038-.421c.305-.266.774-.29 1.158-.275.213.008.441.036.657.094.132.006.264.008.394.024.395.045.937.133 1.18.491.095.142.089.302-.038.423Zm2.945.19c-.294-.34-.628-.728-.637-1.2-.02-.95 1.199-1.457 1.984-1.538.009-.002.019.001.029.001.262-.047.53-.037.784.08.436.198.77.58 1.046.961.45.618.904 1.511.437 2.244-.241.377-.706.62-1.138.694-.485.083-.96-.049-1.384-.283-.43-.238-.801-.587-1.121-.958Zm-11.218 5.282c.556-.325 1.238-.489 1.838-.72 1.228-.472 2.439-.994 3.587-1.639.559-.314 1.098-.64 1.579-1.067.396-.352.774-.731 1.21-1.037.304-.213.642-.394 1.008-.462a.29.29 0 0 1 .228-.091c1.744.054 2.271 1.898 1.845 3.339-.267.902-.889 1.432-1.654 1.935a12.977 12.977 0 0 1-3.434 1.568c-1.184.352-2.455.598-3.695.545-.63-.027-1.276-.142-1.855-.401-.437-.196-1.034-.497-1.177-.998-.123-.426.173-.768.52-.972Zm-.56-5.702c.216-.1.453-.14.694-.155a.302.302 0 0 1 .149-.042c1.379-.018 2.897.306 4.105.984.387.217.947.652.596 1.145-.267.376-.851.494-1.268.597-.887.22-1.791.376-2.71.333-.91-.043-2.019-.353-2.213-1.386-.11-.59.076-1.21.647-1.476Zm-4.526-5.663c.035-.17.212-.351.404-.255.022.011.041.026.062.038.019-.001.034-.007.054-.004 1.052.134 1.959.796 2.733 1.479.375.33.731.678 1.084 1.03.271.27.577.52.791.84.211.315.277.717-.066.97-.356.264-.87.214-1.277.13-.899-.185-1.794-.562-2.463-1.203-.41-.391-.689-.893-.946-1.394-.251-.491-.489-1.07-.376-1.631Z" fill="#BE842B"/></svg>