<svg width="21" height="21" viewBox="0 0 21 21" fill="none" xmlns="http://www.w3.org/2000/svg">
<path d="M10.2748 0.444336C4.68953 0.444336 0.160828 4.97303 0.160828 10.5583C0.160828 16.1435 4.68953 20.6722 10.2748 20.6722C15.86 20.6722 20.3887 16.1435 20.3887 10.5583C20.3887 4.97303 15.86 0.444336 10.2748 0.444336ZM15.1353 8.06817C15.1421 8.17428 15.1421 8.2849 15.1421 8.39326C15.1421 11.7074 12.6181 15.5249 8.00591 15.5249C6.58363 15.5249 5.26521 15.1118 4.15448 14.4007C4.35766 14.4232 4.55181 14.4323 4.75951 14.4323C5.93345 14.4323 7.01257 14.0349 7.87271 13.3622C6.77101 13.3396 5.8454 12.6172 5.52934 11.6239C5.91539 11.6803 6.26306 11.6803 6.66039 11.5787C6.09312 11.4635 5.58324 11.1554 5.21738 10.7068C4.85152 10.2582 4.65225 9.6968 4.6534 9.11794V9.08634C4.98527 9.27372 5.37583 9.38885 5.78445 9.40466C5.44094 9.17572 5.15923 8.86557 4.9643 8.50169C4.76936 8.13782 4.66723 7.73146 4.66695 7.31866C4.66695 6.85134 4.78886 6.42466 5.00784 6.05441C5.63749 6.82952 6.42319 7.46346 7.31388 7.91503C8.20457 8.3666 9.18031 8.62569 10.1777 8.67546C9.82325 6.97099 11.0965 5.59161 12.6272 5.59161C13.3496 5.59161 13.9998 5.89413 14.4581 6.38176C15.0247 6.27566 15.5665 6.06344 16.0496 5.77899C15.8623 6.35919 15.4695 6.84908 14.948 7.15837C15.4536 7.10419 15.9413 6.96422 16.3928 6.76781C16.0519 7.26899 15.6252 7.71373 15.1353 8.06817Z" fill="#FFCD4D"/>
</svg>
