<svg width="288" height="25" fill="none" xmlns="http://www.w3.org/2000/svg" viewBox="0 0 288 25"><g filter="url(#a)" clip-path="url(#b)"><path fill-rule="evenodd" clip-rule="evenodd" d="M241.411 10.565c.299-.391.849-.621 1.326-.499.337.087.694.14 1.051.18 1.912.205 3.499 1.593 4.049 3.533.386 1.375 1.32 2.301 2.329 2.301 1.146 0 2.03-1.14 2.37-3.05.601-3.36 1.811-5.364 3.244-5.364 1.415 0 2.696 1.922 3.257 4.903.773 4.086 2.19 6.725 3.615 6.725.634 0 1.538-.539 2.203-3.11.128-.483.243-.958.348-1.41.586-2.433 1.011-4.19 2.399-4.19l.082.004c.215.009.416.04.608.073l.026.004c.197.03.385.06.56.06a1.316 1.316 0 0 0 1.064-.52c.343-.471.749-.718 1.165-.718.443 0 .89.274 1.26.772.96 1.305 1.936 1.99 2.821 1.99.941 0 1.767-.771 2.384-2.242.528-1.251 1.193-2.279 1.926-3.014.378-.38.983-.343 1.362.036 7.029 7.03 7.029 18.343 7.029 40.97V276c0 22.627 0 33.941-7.029 40.97-7.03 7.03-18.343 7.03-40.971 7.03h-192c-22.627 0-33.94 0-40.97-7.03-7.03-7.029-7.03-18.343-7.03-40.97V48c0-12.075 0-20.927 1.068-27.627.226-1.414 2.262-1.08 3.695-1.08.634 0 1.538-.538 2.203-3.108.128-.484.243-.959.348-1.41.586-2.434 1.011-4.192 2.399-4.192l.082.005c.215.009.416.04.609.073l.025.004c.197.03.385.06.56.06.083 0 .165-.005.237-.019a1.29 1.29 0 0 0 .827-.502c.343-.47.75-.717 1.165-.717.443 0 .89.274 1.26.772.96 1.305 1.936 1.99 2.822 1.99.94 0 1.766-.771 2.383-2.242C20.688 7.36 22.42 5.716 24.1 5.716c1.958 0 3.32 2.292 3.55 5.976.235 3.89 1.935 5.985 3.419 5.985 1.205 0 2.614-1.401 2.944-5.346.45-5.373 1.513-8.177 3.25-8.57a6.037 6.037 0 0 1 1.285-.155c1.346 0 2.253.667 2.938 2.165.927 2.031 2.43 3.295 3.922 3.295 1.247 0 2.363-.862 3.147-2.428.894-1.799 2.145-2.83 3.428-2.83 1 0 1.906.625 2.626 1.803 1.28 2.114 2.316 3.607 4.023 3.607.023 0 .045-.002.068-.003l.074-.002c.06-.005.119-.005.178-.005 1.397 0 2.329.795 3.037 2.575.846 2.137 1.944 3.265 3.172 3.265.932 0 1.893-.626 2.866-1.867.16-.222.313-.442.461-.656l.024-.034.003-.005c.528-.774.981-1.438 1.685-1.812.312-.16.593-.242.872-.242.356 0 .641.132.918.26.24.114.47.22.716.22h.064c.335-.022.602-.172.885-.33l.03-.017a4.19 4.19 0 0 1 .371-.197c.28-.132.586-.205.883-.205.708 0 1.276.383 1.562 1.054.324.768.446 1.931.546 3.68.26 4.501 2.09 6.515 3.789 6.515 1.707 0 3.579-2.014 3.913-6.506.127-1.774.559-1.877 1.502-2.1h.003l.07-.017a19.682 19.682 0 0 0 1.771-.503c1.283-.44 2.224-1.167 2.857-2.206.86-1.424 1.95-2.241 2.99-2.241 1.092 0 1.962.872 2.386 2.387.137.487.256.942.366 1.365l.08.306.004.016c.572 2.214.917 3.55 2.185 3.636.05.005.1.005.15.005 1.019 0 1.357-.735 2.02-2.196l.088-.194c.066-.145.135-.297.211-.454.465-1.014 1.208-1.598 2.039-1.598.543 0 1.082.247 1.569.707.576.553 1.157.836 1.718.836.603 0 1.168-.325 1.686-.96.938-1.159 1.695-1.675 2.453-1.675.399 0 .703.084.948.213.365.191.608.426.821.633.447.433.769.745 1.833.28.135-.058.263-.122.39-.184.432-.214.852-.421 1.473-.421 1.772 0 2.35 1.5 2.533 2.793.419 2.927 1.685 4.817 3.228 4.817 1.53 0 2.845-1.731 3.516-4.467.552-2.254 1.551-3.23 2.916-3.23.521 0 1.081.192 1.654.57.901.599 1.605.877 2.221.877.748 0 1.375-.424 1.912-1.292 1.211-1.93 2.83-3.04 4.442-3.04 3.611 0 4.243 3.643 4.799 6.857.454 2.643.888 5.14 2.942 5.14 2.717 0 3.208-3.391 3.682-6.67.438-3.045.856-5.916 2.897-6.167.073-.01.151-.014.232-.014 1.082 0 2.17.835 2.899 2.232.184.357.355.708.512 1.041v.001c.745 1.561 1.334 2.793 2.895 2.83 1.115 0 2.018-1.27 2.756-3.885.584-2.064 1.736-3.25 3.165-3.25 1.141 0 2.347.78 3.39 2.195 1.695 2.302 3.04 3.722 4.483 3.722.735 0 1.477-.38 2.266-1.16.767-.758 1.531-1.142 2.285-1.142.785 0 1.555.425 2.287 1.265.919 1.055 1.845 1.566 2.827 1.566.945 0 1.936-.466 3.037-1.424 1.008-.808 1.942-1.214 2.782-1.214 3.018 0 4.409 5.222 5.045 9.61.428 2.935 1.908 3.981 3.15 3.981 1.246 0 2.365-.967 2.715-2.36 1.057-4.155 2.836-6.008 5.762-6.008a8.45 8.45 0 0 1 1.802.21c.968.206 1.791.306 2.522.306 1.971 0 3.278-.744 3.985-2.27 1.129-2.446 2.469-5.053 4.054-5.053.625 0 1.258.43 1.881 1.273.431.584.742 1.207 1.041 1.806l.029.057c.597 1.206 1.118 2.242 2.278 2.251h.003c.086-.01.176-.018.266-.018.553 0 1.214.228 1.234 1.328.105 5.045 2.283 6.835 4.119 6.835 3.827 0 3.728-6.157 3.69-8.486v-.006c-.034-2.114.991-3.479 2.608-3.479.767 0 1.594.333 2.327.94.779.648 1.574.986 2.305.986.671 0 1.264-.292 1.674-.83Zm7.603-1.889c.95 0 1.545-.67 1.772-1.986.272-1.62.036-3.063-.637-3.848-.294-.347-.644-.534-1.018-.534-.183 0-.37.046-.551.132-.429.201-.824.37-1.276.37l-.061-.002c-.021-.001-.041-.003-.062-.003-.484-.032-1.021-.2-1.809-.566-.276-.132-.528-.196-.743-.196-.492 0-.687.352-.764.648-.32 1.246.751 3.876 3.219 5.333.73.433 1.377.652 1.93.652Zm-38.33 1.095c-.125 1.457-.701 2.137-1.815 2.137-.301 0-.654-.05-1.072-.155a9.6 9.6 0 0 1-.789-.247l-.069-.022c-.418-.146-.643-.21-1.068-.21-.129 0-.279.008-.464.018l-.184.01a7.887 7.887 0 0 1-.552.022c-1.393 0-2.354-.388-2.778-1.119-.372-.639-.297-1.557.194-2.383.633-1.077 2.087-2.228 4.27-2.228.182 0 .365.005.552.022 1.217.11 2.221.59 2.897 1.388a3.83 3.83 0 0 1 .878 2.767Z" fill="#fff"/></g><defs><clipPath id="b"><path fill="#fff" d="M0 0h288v25H0z"/></clipPath><filter id="a" x="-.111" y="2.043" width="288" height="323.957" filterUnits="userSpaceOnUse" color-interpolation-filters="sRGB"><feFlood flood-opacity="0" result="BackgroundImageFix"/><feColorMatrix in="SourceAlpha" values="0 0 0 0 0 0 0 0 0 0 0 0 0 0 0 0 0 0 127 0" result="hardAlpha"/><feOffset dy="2"/><feComposite in2="hardAlpha" operator="out"/><feColorMatrix values="0 0 0 0 1 0 0 0 0 0.803922 0 0 0 0 0.301961 0 0 0 1 0"/><feBlend in2="BackgroundImageFix" result="effect1_dropShadow_12_13512"/><feBlend in="SourceGraphic" in2="effect1_dropShadow_12_13512" result="shape"/></filter></defs></svg>