<svg width="24" height="24" viewBox="0 0 24 24" fill="none" xmlns="http://www.w3.org/2000/svg">
<path fill-rule="evenodd" clip-rule="evenodd" d="M11.7317 6.03322L11.5907 6.06013L11.4208 6.14146L11.2509 6.22276L11.1326 6.3368L11.0143 6.45081L10.9318 6.57168L10.8493 6.69259L10.1106 8.3803L9.37189 10.068L9.34385 10.1895L9.31584 10.311L9.31513 10.4815L9.31445 10.6521L9.35957 10.8066L9.40466 10.9612L9.4191 11.0834L9.43355 11.2056L9.37017 11.273L9.30676 11.3405L9.17633 11.3595L9.04589 11.3785L8.89819 11.4331L8.75048 11.4877L8.58505 11.6095L8.4196 11.7313L7.33342 13.2032L6.24727 14.675L6.13809 14.8893L6.02895 15.1035L6.01447 15.3363L6 15.569L6.0465 15.7504L6.09303 15.9318L6.17637 16.0775L6.25971 16.2231L6.42929 16.3849L6.59888 16.5466L6.74831 16.615L6.89774 16.6835L7.09548 16.7161L7.29322 16.7486L9.10243 16.5471L10.9116 16.3456L11.0389 16.316L11.1661 16.2865L11.3148 16.2189L11.4635 16.1514L11.6875 15.938L11.9116 15.7245H12H12.0884L12.3125 15.938L12.5365 16.1514L12.6852 16.2189L12.8339 16.2865L12.9611 16.316L13.0884 16.3456L14.8976 16.5471L16.7068 16.7486L16.9045 16.7161L17.1023 16.6835L17.2517 16.615L17.4011 16.5466L17.5707 16.3849L17.7403 16.2231L17.8236 16.0775L17.907 15.9318L17.9535 15.7504L18 15.569L17.9855 15.3363L17.9711 15.1035L17.8619 14.8893L17.7527 14.675L16.6666 13.2032L15.5804 11.7313L15.4149 11.6095L15.2495 11.4877L15.1018 11.4331L14.9541 11.3785L14.8237 11.3595L14.6932 11.3405L14.6298 11.273L14.5665 11.2056L14.5809 11.0834L14.5953 10.9612L14.6404 10.8066L14.6856 10.6521L14.6849 10.4815L14.6842 10.311L14.6562 10.1895L14.6281 10.068L13.8894 8.3803L13.1507 6.69259L13.0682 6.57168L12.9857 6.45081L12.8674 6.3368L12.7491 6.22276L12.5795 6.14202L12.4099 6.06129L12.2422 6.03064L12.0744 6L11.9736 6.00317L11.8728 6.00633L11.7317 6.03322ZM11.8518 7.03377L11.7742 7.07586L11.721 7.18105L11.6678 7.28624L10.9859 8.84603L10.3039 10.4058V10.4767V10.5476L10.3314 10.6201L10.359 10.6926L10.4516 10.7491L10.5441 10.8055H12H13.4559L13.5484 10.7491L13.641 10.6926L13.6686 10.6201L13.6961 10.5476V10.4767V10.4058L13.0141 8.84603L12.3322 7.28624L12.2789 7.18082L12.2256 7.07538L12.1425 7.03241L12.0593 6.98941L11.9943 6.99054L11.9293 6.99167L11.8518 7.03377ZM10.768 11.8484L10.681 11.9015L10.6444 11.9899L10.6078 12.0782L10.6241 12.1595L10.6403 12.2408L11.1995 13.2089L11.7586 14.1769L11.8276 14.2222L11.8966 14.2674H12H12.1034L12.1718 14.2224L12.2403 14.1774L12.7915 13.2231L13.3428 12.2687L13.3675 12.1982L13.3921 12.1277L13.3588 12.0166L13.3256 11.9055L13.2352 11.8504L13.1449 11.7953H12H10.8551L10.768 11.8484ZM9.24378 12.3578L9.18724 12.3826L9.12725 12.4493L9.06729 12.516L8.12181 13.8022L7.17636 15.0885L7.08638 15.2129L6.9964 15.3372V15.4398V15.5423L7.04052 15.6053L7.08462 15.6683L7.16855 15.7117L7.25248 15.7551L9.05149 15.5545L10.8505 15.3539L10.8955 15.3298L10.9405 15.3057L10.9921 15.2488L11.0436 15.1918L11.0588 15.0787L11.074 14.9655L10.3604 13.7266L9.64678 12.4877L9.58388 12.422L9.52095 12.3563L9.41065 12.3446L9.30032 12.3329L9.24378 12.3578ZM14.5018 12.3575L14.4453 12.3821L14.3997 12.4349L14.3542 12.4877L13.6401 13.7266L12.926 14.9655L12.9412 15.0787L12.9564 15.1918L13.0079 15.2488L13.0595 15.3057L13.1045 15.3298L13.1495 15.3539L14.9485 15.5545L16.7475 15.7551L16.8314 15.7117L16.9154 15.6683L16.9595 15.6053L17.0036 15.5423V15.4381V15.3339L16.4765 14.6175L15.9495 13.9012L15.4187 13.1797L14.8879 12.4582L14.8313 12.4069L14.7747 12.3557L14.6666 12.3443L14.5583 12.3329L14.5018 12.3575Z" fill="#EB1B9B"/>
<circle cx="12" cy="12" r="11.5" stroke="white"/>
</svg>
