<svg width="1569" height="75" fill="none" xmlns="http://www.w3.org/2000/svg" viewBox="0 0 1569 75"><g clip-path="url(#a)"><mask id="b" style="mask-type:luminance" maskUnits="userSpaceOnUse" x="-72" y="-28" width="483" height="112"><path d="M410.375-27.904H-71.751V83.488h482.126V-27.904Z" fill="#fff"/></mask><g mask="url(#b)"><path d="M165.48-36.57h-371.237l.971 53.524c1.604 2.514 4.628 3.183 7.661 3.523 5.485.59 10.036 4.57 11.616 10.137 1.106 3.942 3.786 6.6 6.681 6.6 3.288 0 5.822-3.273 6.797-8.748 1.724-9.64 5.196-15.39 9.307-15.39 4.06 0 7.735 5.514 9.344 14.066 2.216 11.722 6.283 19.291 10.368 19.291 1.82 0 4.412-1.546 6.321-8.92.367-1.387.697-2.75 1-4.045 1.68-6.98 2.9-12.024 6.88-12.024l.236.014c.616.026 1.194.118 1.745.21.59.091 1.157.183 1.68.183.237 0 .472-.014.681-.053 1.019-.195 1.808-.68 2.371-1.44.983-1.35 2.15-2.057 3.342-2.057 1.27 0 2.554.786 3.616 2.213 2.752 3.745 5.551 5.71 8.092 5.71 2.698 0 5.067-2.213 6.838-6.431 3.202-7.596 8.172-12.31 12.99-12.31 5.618 0 9.524 6.573 10.187 17.142.673 11.16 5.55 17.17 9.807 17.17 3.458 0 7.497-4.02 8.444-15.337 1.293-15.414 4.343-23.456 9.324-24.582 1.383-.3 2.586-.445 3.686-.445 3.863 0 6.465 1.912 8.43 6.208 2.66 5.829 6.968 9.455 11.25 9.455 3.576 0 6.778-2.475 9.028-6.967 2.565-5.16 6.152-8.12 9.833-8.12 2.868 0 5.468 1.795 7.533 5.174 3.672 6.064 6.645 10.347 11.542 10.347.13 0 .262-.014.406-.014.17-.014.34-.014.51-.014 4.008 0 6.681 2.28 8.712 7.387 2.429 6.13 5.579 9.365 9.101 9.365 2.672 0 5.43-1.795 8.22-5.356.485-.669.946-1.335 1.392-1.978 1.519-2.227 2.82-4.138 4.842-5.213.895-.46 1.703-.694 2.502-.694 1.022 0 1.84.38 2.633.747.687.326 1.347.629 2.054.629h.184c.995-.065 1.784-.524 2.628-.995.337-.196.687-.393 1.063-.563a5.991 5.991 0 0 1 2.53-.59c2.032 0 3.66 1.1 4.482 3.025.93 2.201 1.28 5.54 1.567 10.556.745 12.912 5.997 18.688 10.868 18.688 4.899 0 10.268-5.776 11.226-18.663.365-5.094 1.605-5.383 4.316-6.024.808-.196 1.735-.407 2.737-.786 5.009-1.1 8.53-3.405 10.743-7.033 2.466-4.087 5.594-6.43 8.578-6.43 3.13 0 5.625 2.501 6.843 6.849.49 1.741.898 3.34 1.279 4.793 1.648 6.378 2.635 10.228 6.279 10.477.145.013.29.013.432.013 2.921 0 3.892-2.109 5.793-6.3.266-.576.541-1.204.858-1.859 1.335-2.908 3.466-4.583 5.849-4.583 1.558 0 3.104.707 4.502 2.029 1.653 1.585 3.318 2.396 4.929 2.396 1.728 0 3.349-.93 4.835-2.75 2.691-3.327 4.863-4.807 7.038-4.807 1.143 0 2.016.24 2.718.61 3.246 1.698 3.103 4.588 7.615 2.62 1.701-.741 3.041-1.736 5.344-1.736 5.082 0 6.74 4.304 7.266 8.012 1.201 8.396 4.834 13.818 9.261 13.818 4.388 0 8.161-4.967 10.084-12.814 1.585-6.467 4.451-9.265 8.367-9.265 1.493 0 3.1.55 4.743 1.637 2.585 1.716 4.604 2.513 6.371 2.513 2.149 0 3.946-1.217 5.486-3.706 3.474-5.54 8.118-8.721 12.742-8.721 10.36 0 12.173 10.451 13.769 19.671 1.302 7.583 2.546 14.746 8.439 14.746 7.793 0 9.202-9.73 10.562-19.134 1.255-8.735 2.456-16.973 8.31-17.694.21-.025.432-.039.667-.039 3.104 0 6.225 2.397 8.314 6.404a88.677 88.677 0 0 1 1.469 2.987c2.138 4.478 3.826 8.014 8.307 8.12 3.196 0 5.788-3.642 7.906-11.146 1.673-5.92 4.978-9.324 9.077-9.324 3.274 0 6.734 2.24 9.727 6.3 4.861 6.6 8.72 10.674 12.858 10.674 2.109 0 4.237-1.087 6.501-3.327 2.201-2.173 4.393-3.274 6.555-3.274 2.252 0 4.461 1.218 6.562 3.628 2.634 3.026 5.293 4.492 8.109 4.492 2.711 0 5.555-1.335 8.714-4.085 2.891-2.319 5.568-3.484 7.978-3.484 8.657 0 12.648 14.983 14.474 27.569 1.227 8.42 5.472 11.421 9.035 11.421 3.575 0 6.786-2.776 7.788-6.77 3.033-11.919 8.135-17.235 16.531-17.235 1.585 0 3.33.197 5.17.602 2.774.59 5.137.877 7.232.877 5.657 0 9.404-2.134 11.433-6.509 3.238-7.02 7.084-14.498 11.629-14.498 1.794 0 3.611 1.232 5.396 3.654 1.276 1.728 2.186 3.575 3.07 5.344 1.713 3.457 3.208 6.43 6.535 6.456.248-.025.51-.053.772-.053 1.585 0 3.483.655 3.54 3.812.301 14.472 6.549 19.605 11.815 19.605 10.988 0 10.693-17.693 10.586-24.359-.097-6.063 2.844-9.98 7.48-9.98 2.201 0 4.576.956 6.676 2.697 2.235 1.86 4.518 2.829 6.613 2.829 1.925 0 3.626-.839 4.803-2.383.742-.97 1.257-2.174 1.534-3.55l-.986-54.43-371.242.017Zm-342.53 46.847c-.652 3.772-2.36 5.698-5.084 5.698-1.585 0-3.443-.63-5.535-1.873-7.082-4.177-10.152-11.722-9.235-15.297.221-.85.779-1.86 2.192-1.86.616 0 1.339.184 2.131.564 2.259 1.047 3.8 1.532 5.189 1.624.118 0 .237.014.354.014 1.296 0 2.427-.485 3.66-1.062a3.666 3.666 0 0 1 1.579-.379c1.073 0 2.078.537 2.922 1.532 1.929 2.25 2.606 6.389 1.827 11.039Zm625.077 8.84c-.357 4.176-2.01 6.129-5.206 6.129-.864 0-1.876-.145-3.074-.446a27.34 27.34 0 0 1-2.265-.707l-.197-.065c-1.2-.418-1.846-.602-3.064-.602-.484 0-1.073.04-1.859.078-.549.04-1.085.065-1.583.065-3.995 0-6.752-1.113-7.969-3.208-1.068-1.833-.853-4.466.557-6.837 1.816-3.09 5.986-6.392 12.247-6.392.524 0 1.048.014 1.585.065 3.491.314 6.37 1.689 8.311 3.981 1.837 2.176 2.753 5.07 2.517 7.938Z" fill="#FFA931" stroke="#C46103" stroke-width="1.205" stroke-miterlimit="10"/><path d="M185.559 27.6c.114.51.202 1.047.277 1.61 1.123 7.78 5.29 12.894 8.13 12.81 3.773 0 7.295-5.056 8.999-12.9.109-.524.23-1.034.38-1.519l-17.786-.001Z" fill="url(#c)"/><path d="M256.301 29.53c.146.877.294 1.768.427 2.632 1.184 7.479 2.204 13.935 7.234 13.935 6.442 0 8.068-7.832 9.482-16.568h-17.143Z" fill="url(#d)"/><path d="M400.058 39.129c.417 2.056.798 4.269 1.141 6.614 1.109 7.688 4.8 10.438 7.877 10.438s5.835-2.435 6.715-5.932c1.173-4.61 2.69-8.303 4.592-11.118l-20.325-.002Z" fill="url(#e)"/><path d="M22.37 23.844c.082.183.152.367.22.537 1.551 3.904 4.189 8.552 7.934 8.552 2.227 0 4.724-1.689 7.207-4.846.486-.668.92-1.31 1.353-1.939.55-.799 1.086-1.585 1.649-2.304H22.37Z" fill="url(#f)"/><path d="M66.05 36.225c1.12 10.451 5.542 15.244 9.406 15.244 3.915 0 8.479-4.793 9.781-15.244H66.05Z" fill="url(#g)"/><path d="M122.968 26.977c1.363 5.094 2.283 7.398 4.63 7.57.117.014.236.014.34.014 2.056 0 2.766-1.35 4.704-5.606.266-.577.541-1.193.844-1.847.026-.04.037-.092.063-.131h-10.581Z" fill="url(#h)"/><path d="M536.715-34.654 537.346.17c-4.503 2.344-11.379 2.293-15.267 1.69-6.764-1.074-13.733-3.34-20.475-.97-2.199.8-4.311 2.042-6.584 2.41-7.118 1.1-12.841-6.877-19.959-7.989-9.142-1.466-17.709 8.513-27.116 8.329-7.455-.156-13.86-6.693-21.407-6.876-9.761-.223-19.015 10.162-28.657 7.832-3.657-.878-6.928-3.563-10.724-3.51-3.915.038-7.567 3.037-11.508 3.156-3.626.131-7.007-2.174-10.63-1.912-4.356.329-7.99 4.217-12.263 5.5-7.764 2.32-14.836-4.23-22.004-8.002-8.198-4.347-17.971-5.213-27.048-2.357-7.853 2.475-12.71 7.596-20.308 4.584-3.364-1.349-6.376-4.27-10.038-3.955-4.119.354-7.456 4.807-11.607 4.899-4.386.092-7.589-4.69-11.948-5.292-2.587-.367-12.727 6.448-15.34 6.892-8.655 1.48-12.618-4.954-21.461-4.417-6.96.446-13.227 5.03-20.024 7.27-8.917 2.934-18.408-5.23-26.902-9.011-13.152-5.853-21.173 13.174-32.484 9.142C127.7 5.5 123.693-.97 117.63-2.384c-4.866-1.14-11.134 9.633-16.1 9.489-8.045-.249-14.32-7.729-21.102-3.34C77.516 5.661 75.89 9.2 73.98 12.29c-3.79 6.156-8.393-.767-13.933-3.607-3.873-1.965-7.7-4.99-11.724-3.772-4.012 1.204-7.276 6.823-11.47 6.626-4.116-.184-6.643-5.958-10.681-6.916-2.723-.629-5.553 1.466-8.33 1.415-3.42-.052-6.173-2.343-8.876-4.845C4.837-2.633.256-8.317-13.269-4.507-19.512-2.74-23.905.536-29.297.693-36.72.914-41.54-6.34-54.574-5.909c-6.4.209-10.722 2.41-15.037 4.976C-72.125.575-74.775 1.766-78.62 1.4c-2.401-.236-10-2.658-12.372-2.658-3.391 0-6.922 1.06-10.094 2.357-5.409 2.213-10.896 5.121-16.709 4.466-3.846-.432-9.758-2.934-13.624-3.076-3.985-.159-7.063 1.178-10.014 3.104-10.057 6.534-22.208 4.53-30.307-2.92-5.048-4.663-9.037-9.391-16.371-9.377-6.169.013-11.377 3.13-17.098 2.488l-.551-30.437 742.474-.001Z" fill="url(#i)"/><path d="M146.841 22.525c-3.138-2.97-7.984-2.925-10.054-.26 1.118-.687 2.349-1.07 3.655-1.07 2.021 0 4.002.875 5.736 2.528 1.311 1.255 2.551 1.893 3.685 1.893 1.075 0 2.145-.621 3.188-1.79-1.91 1.285-4.026.774-6.21-1.3Zm10.966-3.235c1.323-.83 2.614-1.231 3.939-1.231 1.327 0 2.667.39 4.104 1.209-2.165-3.211-5.883-2.531-8.043.022Zm-38.499-4.238c-1.617-2.092-3.769-3.25-6.189-3.25-2.106 0-4.22.921-6.178 2.578 4.933-7.341 12.058-2.16 12.367.671Zm10.922 17.405c-.855 1.344-1.444 1.473-2.604 1.473-.949-.066-1.656-.62-2.253-1.684 1.59 1.257 3.337 1.208 4.857.211ZM69.76 46.615c1.696 2.795 3.795 4.127 5.742 4.127 1.752 0 3.639-1.046 5.275-3.22-2.88 2.54-7.482 2.927-11.017-.907ZM56.267 17.832c-.391.184-.76.39-1.118.59-.797.447-1.484.834-2.287.891h-.01c-.65 0-1.22-.263-1.822-.544-.844-.39-1.798-.831-3.024-.831-2.499 0-4.419 1.763-5.28 3.158 1.325-1.055 3.038-1.854 4.766-1.854 1.424 0 2.516.51 3.393.92.526.247.982.458 1.35.458h.006c.594-.044 1.167-.368 1.891-.778.375-.21.759-.426 1.167-.619a7.741 7.741 0 0 1 3.29-.752c2.753 0 5.05 1.54 6.143 4.118-.572-3.651-4.02-6.844-8.465-4.757Zm-35.182 2.469c-2.447-3.617-5.2-4.553-9.28-4.553-3.617 0-6.107-3.053-9.999-9.46C-.554 2.381-3.777.236-7.262.236c-2.659 0-5.24 1.223-7.501 3.513.434-1.52 3.322-4.815 7.57-4.815 3.17 0 6.142 1.986 8.338 5.592 4.121 6.723 6.798 9.92 10.89 9.92 5.576 0 8.431 3.658 9.05 5.855Zm16.061 7.789c-2.303 2.868-4.577 4.395-6.59 4.395-2.29 0-4.154-1.973-5.58-4.395 4.255 5.232 9.622 2.517 12.17 0Zm57.337-4.11c-1.082.386-1.978.597-2.77.784-1.812.428-3.168.753-4.022 2.391.82-.512 1.807-.79 2.95-1.063.761-.182 1.624-.386 2.571-.733l.094-.034.097-.02c3.748-.822 6.463-2.305 8.412-4.584-1.9 1.537-4.305 2.6-7.332 3.259Z" fill="#FFDCA0"/><path d="M263.925 44.264c-2.25 0-3.692-1.256-4.757-3.535 1.026 3.036 2.408 4.737 4.778 4.737 3.428 0 5.34-2.41 6.652-6.536-1.38 3.388-3.373 5.334-6.673 5.334Zm28.86-29.855c-2.301-4.392-5.786-7.014-9.324-7.014-.272 0-.536.017-.792.047-3.724.456-5.776 3.472-7.086 7.562 1.396-3.456 3.507-5.924 7.028-6.354a7.25 7.25 0 0 1 .871-.053c3.762 0 7.439 2.721 9.859 7.281-.156-.512-.313-1-.556-1.47Zm8.781 10.501c-2.361-.06-3.951-1.222-5.441-3.426 1.562 2.981 2.903 4.561 5.463 4.626 2.096 0 4.208-2.711 5.472-6.764-1.386 3.417-3.407 5.563-5.494 5.563Zm-78.082-2.643c-1.531 0-3.356-.74-5.744-2.33-1.835-1.21-3.643-1.826-5.366-1.826-3.92 0-7.047 3.12-8.781 8.652 1.91-4.78 4.998-7.45 8.803-7.45 1.856 0 3.784.649 5.734 1.936 2.274 1.514 3.981 2.218 5.374 2.218.888 0 2.206-.279 3.671-2.36a6.443 6.443 0 0 1-3.691 1.16Zm-29.561 17.602c-1.957 0-4.345-1.208-6.117-5.097 1.609 4.532 4.034 6.624 6.145 6.624 1.93 0 4.473-1.758 6.473-6.301-1.743 2.895-3.485 4.774-6.501 4.774ZM177.82 18.521c-3.102 0-5.617 2.443-7.089 3.33a12.358 12.358 0 0 0 2.014-.848c1.805-.95 3.521-1.429 5.099-1.429 3.196 0 5.74 1.94 7.373 5.475-1.461-4.29-4.044-6.527-7.397-6.527Zm63.888-8.675c-3.733 0-7.335 1.944-10.237 5.818 3.104-2.981 6.666-4.617 10.258-4.617 6.573 0 10.125 3.597 12.27 8.403-1.683-5.527-5.407-9.604-12.291-9.604Zm77.298-5.286c-5.284 0-7.831 4.066-8.29 6.134 2.322-3.215 5.169-4.933 8.312-4.933 1.735 0 4.106.555 6.769 2.7a19.208 19.208 0 0 1 1.893 1.756c-.28-1.285-3.9-5.656-8.684-5.656Zm66.538 10.797c-2.664 0-5.577 1.248-8.661 3.713-5.994 5.235-10.528 5.22-15.294-.252-2.316-2.66-4.502-3.783-7.099-3.783-1.794 0-3.626.936-5.341 2.562 1.667-1.048 3.359-1.586 5.057-1.586 2.798 0 5.46 1.426 7.907 4.237 2.276 2.611 4.489 3.88 6.768 3.88 2.265 0 4.742-1.203 7.623-3.718 3.201-2.557 6.25-3.853 9.063-3.853 4.261 0 7.799 2.822 10.603 8.365-2.308-6.472-6.254-9.565-10.626-9.565Zm-44.418 6.055c-2.009 0-4.315-1.02-6.615-2.848 2.386 2.543 4.558 4.048 6.637 4.048 1.386 0 2.847-.678 4.441-2.056-1.737.845-3.485.856-4.463.856Zm67.919 32.771c-2.37 0-4.446-1.26-5.949-3.71 1.345 3.209 3.459 5.075 5.973 5.075 2.715 0 5.161-2.14 6.038-5.224-1.325 2.387-3.66 3.86-6.062 3.86Z" fill="#FFD280"/></g></g><g clip-path="url(#j)"><mask id="k" style="mask-type:luminance" maskUnits="userSpaceOnUse" x="410" y="-28" width="483" height="112"><path d="M410.375-27.904h482.126V83.488H410.375V-27.904Z" fill="#fff"/></mask><g mask="url(#k)"><path d="M655.27-36.57h371.24l-.97 53.524c-1.61 2.514-4.63 3.183-7.66 3.523-5.49.59-10.04 4.57-11.62 10.137-1.11 3.942-3.79 6.6-6.682 6.6-3.288 0-5.822-3.273-6.796-8.748-1.725-9.64-5.196-15.39-9.307-15.39-4.06 0-7.736 5.514-9.345 14.066-2.216 11.722-6.283 19.291-10.368 19.291-1.82 0-4.412-1.546-6.32-8.92a137.78 137.78 0 0 1-1-4.045c-1.681-6.98-2.9-12.024-6.88-12.024l-.237.014c-.615.026-1.194.118-1.745.21-.59.091-1.156.183-1.68.183-.237 0-.471-.014-.68-.053-1.019-.195-1.808-.68-2.371-1.44-.984-1.35-2.15-2.057-3.343-2.057-1.27 0-2.554.786-3.616 2.213-2.751 3.745-5.551 5.71-8.092 5.71-2.698 0-5.067-2.213-6.837-6.431-3.203-7.596-8.173-12.31-12.991-12.31-5.618 0-9.523 6.573-10.187 17.142-.673 11.16-5.549 17.17-9.807 17.17-3.457 0-7.497-4.02-8.444-15.337-1.293-15.414-4.342-23.456-9.324-24.582-1.383-.3-2.585-.445-3.686-.445-3.863 0-6.465 1.912-8.429 6.208-2.66 5.829-6.969 9.455-11.251 9.455-3.575 0-6.778-2.475-9.028-6.967-2.565-5.16-6.152-8.12-9.833-8.12-2.867 0-5.468 1.795-7.533 5.174-3.672 6.064-6.645 10.347-11.542 10.347-.131 0-.261-.014-.406-.014-.17-.014-.34-.014-.51-.014-4.007 0-6.681 2.28-8.712 7.387-2.429 6.13-5.579 9.365-9.101 9.365-2.672 0-5.429-1.795-8.22-5.356a109.71 109.71 0 0 1-1.391-1.978c-1.519-2.227-2.82-4.138-4.843-5.213-.894-.46-1.702-.694-2.502-.694-1.022 0-1.84.38-2.633.747-.687.326-1.347.629-2.054.629h-.184c-.995-.065-1.784-.524-2.628-.995a11.696 11.696 0 0 0-1.063-.563 5.987 5.987 0 0 0-2.531-.59c-2.03 0-3.66 1.1-4.481 3.025-.931 2.201-1.279 5.54-1.567 10.556-.745 12.912-5.997 18.688-10.868 18.688-4.898 0-10.268-5.776-11.225-18.663-.366-5.094-1.606-5.383-4.317-6.024-.808-.196-1.735-.407-2.737-.786-5.009-1.1-8.529-3.405-10.742-7.033-2.466-4.087-5.594-6.43-8.579-6.43-3.13 0-5.625 2.501-6.843 6.849-.49 1.741-.898 3.34-1.279 4.793-1.648 6.378-2.634 10.228-6.279 10.477a4.816 4.816 0 0 1-.432.013c-2.92 0-3.892-2.109-5.793-6.3-.266-.576-.541-1.204-.857-1.859-1.336-2.908-3.467-4.583-5.85-4.583-1.558 0-3.104.707-4.502 2.029-1.653 1.585-3.318 2.396-4.929 2.396-1.728 0-3.349-.93-4.835-2.75-2.691-3.327-4.863-4.807-7.038-4.807-1.143 0-2.016.24-2.718.61-3.245 1.698-3.102 4.588-7.615 2.62-1.701-.741-3.041-1.736-5.344-1.736-5.082 0-6.74 4.304-7.266 8.012-1.2 8.396-4.833 13.818-9.261 13.818-4.388 0-8.16-4.967-10.084-12.814-1.585-6.467-4.451-9.265-8.366-9.265-1.494 0-3.101.55-4.744 1.637-2.585 1.716-4.604 2.513-6.371 2.513-2.148 0-3.946-1.217-5.485-3.706-3.475-5.54-8.119-8.721-12.743-8.721-10.36 0-12.173 10.451-13.768 19.671-1.303 7.583-2.546 14.746-8.44 14.746-7.793 0-9.201-9.73-10.562-19.134-1.255-8.735-2.456-16.973-8.31-17.694a5.517 5.517 0 0 0-.667-.039c-3.104 0-6.225 2.397-8.314 6.404a90.63 90.63 0 0 0-1.469 2.987c-2.138 4.478-3.825 8.014-8.307 8.12-3.196 0-5.788-3.642-7.905-11.146-1.674-5.92-4.979-9.324-9.078-9.324-3.274 0-6.733 2.24-9.727 6.3-4.861 6.6-8.72 10.674-12.858 10.674-2.109 0-4.237-1.087-6.501-3.327-2.201-2.173-4.393-3.274-6.555-3.274-2.252 0-4.461 1.218-6.561 3.628-2.635 3.026-5.293 4.492-8.11 4.492-2.711 0-5.555-1.335-8.713-4.085-2.892-2.319-5.569-3.484-7.979-3.484-8.657 0-12.647 14.983-14.474 27.569-1.226 8.42-5.472 11.421-9.035 11.421-3.575 0-6.786-2.776-7.788-6.77-3.033-11.919-8.135-17.235-16.53-17.235-1.586 0-3.331.197-5.171.602-2.774.59-5.136.877-7.232.877-5.657 0-9.404-2.134-11.433-6.509-3.238-7.02-7.084-14.498-11.628-14.498-1.795 0-3.611 1.232-5.397 3.654-1.276 1.728-2.186 3.575-3.07 5.344-1.713 3.457-3.208 6.43-6.535 6.456-.248-.025-.51-.053-.772-.053-1.585 0-3.483.655-3.539 3.812-.301 14.472-6.55 19.605-11.816 19.605-10.987 0-10.693-17.693-10.586-24.359.097-6.063-2.844-9.98-7.48-9.98-2.201 0-4.575.956-6.676 2.697-2.235 1.86-4.517 2.829-6.613 2.829-1.925 0-3.626-.839-4.803-2.383-.742-.97-1.257-2.174-1.534-3.55l.986-54.43 371.242.017Zm342.531 46.847c.651 3.772 2.359 5.698 5.079 5.698 1.59 0 3.45-.63 5.54-1.873 7.08-4.177 10.15-11.722 9.23-15.297-.22-.85-.77-1.86-2.19-1.86-.61 0-1.34.184-2.13.564-2.26 1.047-3.8 1.532-5.19 1.624-.12 0-.23.014-.35.014-1.3 0-2.43-.485-3.66-1.062a3.688 3.688 0 0 0-1.58-.379c-1.07 0-2.08.537-2.923 1.532-1.928 2.25-2.605 6.389-1.826 11.039Zm-625.078 8.84c.358 4.176 2.011 6.129 5.207 6.129.864 0 1.876-.145 3.073-.446a27.34 27.34 0 0 0 2.265-.707l.198-.065c1.199-.418 1.845-.602 3.063-.602.485 0 1.073.04 1.859.078.549.04 1.085.065 1.583.065 3.996 0 6.753-1.113 7.969-3.208 1.068-1.833.854-4.466-.556-6.837-1.817-3.09-5.987-6.392-12.248-6.392-.524 0-1.048.014-1.585.065-3.49.314-6.37 1.689-8.31 3.981-1.837 2.176-2.754 5.07-2.518 7.938Z" fill="#FFA931" stroke="#C46103" stroke-width="1.205" stroke-miterlimit="10"/><path d="M635.191 27.6a18.76 18.76 0 0 0-.277 1.61c-1.123 7.78-5.29 12.894-8.13 12.81-3.772 0-7.295-5.056-8.999-12.9a16.919 16.919 0 0 0-.379-1.519l17.785-.001Z" fill="url(#l)"/><path d="M564.449 29.53c-.146.877-.294 1.768-.427 2.632-1.183 7.479-2.204 13.935-7.233 13.935-6.443 0-8.069-7.832-9.482-16.568h17.142Z" fill="url(#m)"/><path d="M420.692 39.129a124.95 124.95 0 0 0-1.141 6.614c-1.109 7.688-4.8 10.438-7.877 10.438-3.076 0-5.835-2.435-6.714-5.932-1.174-4.61-2.691-8.303-4.593-11.118l20.325-.002Z" fill="url(#n)"/><path d="M896.858 21.248a44.388 44.388 0 0 0-.336 3.38c-.601 9.98-4.968 15.938-8.493 15.938-2.632 0-6.393-3.706-7.264-14.183a95.91 95.91 0 0 0-.549-5.133l16.642-.002Z" fill="url(#o)"/><path d="M798.38 23.844c-.082.183-.152.367-.22.537-1.551 3.904-4.189 8.552-7.934 8.552-2.226 0-4.723-1.689-7.206-4.846-.487-.668-.921-1.31-1.354-1.939-.55-.799-1.085-1.585-1.648-2.304h18.362Z" fill="url(#p)"/><path d="M754.7 36.225c-1.119 10.451-5.541 15.244-9.406 15.244-3.915 0-8.478-4.793-9.781-15.244H754.7Z" fill="url(#q)"/><path d="M697.782 26.977c-1.362 5.094-2.282 7.398-4.63 7.57-.117.014-.236.014-.34.014-2.056 0-2.765-1.35-4.704-5.606-.266-.577-.541-1.193-.844-1.847-.025-.04-.037-.092-.063-.131h10.581Z" fill="url(#r)"/><path d="M284.036-34.654 283.405.17c4.502 2.344 11.378 2.293 15.266 1.69 6.765-1.074 13.733-3.34 20.475-.97 2.199.8 4.312 2.042 6.584 2.41 7.118 1.1 12.841-6.877 19.959-7.989 9.142-1.466 17.709 8.513 27.116 8.329 7.455-.156 13.861-6.693 21.407-6.876 9.761-.223 19.015 10.162 28.657 7.832 3.657-.878 6.928-3.563 10.724-3.51 3.915.038 7.567 3.037 11.508 3.156 3.626.131 7.007-2.174 10.63-1.912 4.356.329 7.991 4.217 12.263 5.5 7.764 2.32 14.836-4.23 22.004-8.002 8.198-4.347 17.971-5.213 27.048-2.357 7.853 2.475 12.71 7.596 20.308 4.584 3.364-1.349 6.376-4.27 10.038-3.955 4.12.354 7.457 4.807 11.607 4.899 4.386.092 7.589-4.69 11.948-5.292 2.587-.367 12.727 6.448 15.34 6.892 8.655 1.48 12.618-4.954 21.461-4.417 6.96.446 13.227 5.03 20.024 7.27 8.917 2.934 18.408-5.23 26.902-9.011 13.152-5.853 21.174 13.174 32.484 9.142C693.05 5.5 697.057-.97 703.12-2.384c4.866-1.14 11.134 9.633 16.1 9.489 8.045-.249 14.32-7.729 21.103-3.34 2.911 1.897 4.538 5.435 6.446 8.525 3.791 6.156 8.393-.767 13.933-3.607 3.873-1.965 7.7-4.99 11.724-3.772 4.012 1.204 7.276 6.823 11.47 6.626 4.116-.184 6.644-5.958 10.681-6.916 2.724-.629 5.554 1.466 8.331 1.415 3.419-.052 6.172-2.343 8.875-4.845 4.13-3.824 8.712-9.508 22.237-5.698 6.242 1.767 10.635 5.043 16.027 5.2 7.422.222 12.242-7.033 25.277-6.601 6.401.209 10.722 2.41 15.037 4.976 2.514 1.507 5.164 2.698 9.008 2.332 2.402-.236 10.001-2.658 12.372-2.658 3.391 0 6.922 1.06 10.094 2.357 5.409 2.213 10.896 5.121 16.709 4.466 3.846-.432 9.758-2.934 13.624-3.076 3.985-.159 7.063 1.178 10.014 3.104 10.057 6.534 22.208 4.53 30.308-2.92 5.048-4.663 9.04-9.391 16.37-9.377 6.17.013 11.38 3.13 17.1 2.488l.55-30.437-742.474-.001Z" fill="url(#s)"/><path d="M892.903 36.403c-1.367 2.333-3.357 3.63-4.845 3.63-1.298 0-3.06-1.057-4.227-3.287 2.652 3.478 6.615 2.339 9.072-.343ZM866.787-1.65c1.175 0 2.454.151 3.905.478 3.471.779 5.509 4.345 6.167 6.77-1.687-3.06-3.767-4.884-6.235-5.442-1.507-.337-2.837-.498-4.072-.498-3.862 0-6.728 1.656-8.894 5.124 2.123-4.434 4.947-6.432 9.129-6.432ZM673.909 22.525c3.138-2.97 7.984-2.925 10.054-.26-1.118-.687-2.349-1.07-3.655-1.07-2.021 0-4.002.875-5.735 2.528-1.312 1.255-2.552 1.893-3.686 1.893-1.075 0-2.145-.621-3.187-1.79 1.91 1.285 4.025.774 6.209-1.3Zm-10.966-3.235c-1.323-.83-2.614-1.231-3.939-1.231-1.326 0-2.667.39-4.104 1.209 2.165-3.211 5.883-2.531 8.043.022Zm38.499-4.238c1.618-2.092 3.769-3.25 6.189-3.25 2.106 0 4.22.921 6.178 2.578-4.933-7.341-12.057-2.16-12.367.671ZM690.52 32.457c.856 1.344 1.444 1.473 2.604 1.473.949-.066 1.657-.62 2.254-1.684-1.591 1.257-3.337 1.208-4.858.211Zm60.47 14.158c-1.696 2.795-3.795 4.127-5.742 4.127-1.752 0-3.638-1.046-5.274-3.22 2.879 2.54 7.482 2.927 11.016-.907Zm13.493-28.783c.392.184.761.39 1.118.59.798.447 1.485.834 2.287.891h.011c.649 0 1.219-.263 1.821-.544.844-.39 1.798-.831 3.024-.831 2.499 0 4.419 1.763 5.28 3.158-1.325-1.055-3.038-1.854-4.766-1.854-1.424 0-2.516.51-3.393.92-.526.247-.982.458-1.351.458h-.005c-.593-.044-1.167-.368-1.891-.778-.374-.21-.759-.426-1.167-.619a7.738 7.738 0 0 0-3.289-.752c-2.754 0-5.05 1.54-6.144 4.118.572-3.651 4.021-6.844 8.465-4.757Zm75.083-8.212c1.92 3.697 4.502 5.709 7.304 5.709 2.894 0 5.879-2.131 8.155-5.71-4.053 6.074-12.487 5.438-15.459 0Zm-39.901 10.681c2.447-3.617 5.201-4.553 9.28-4.553 3.617 0 6.107-3.053 9.999-9.46 2.361-3.907 5.584-6.052 9.069-6.052 2.658 0 5.24 1.223 7.5 3.513-.433-1.52-3.321-4.815-7.57-4.815-3.171 0-6.142 1.986-8.338 5.592-4.121 6.723-6.798 9.92-10.89 9.92-5.575 0-8.431 3.658-9.05 5.855Zm-16.061 7.789c2.303 2.868 4.577 4.395 6.591 4.395 2.289 0 4.153-1.973 5.579-4.395-4.254 5.232-9.622 2.517-12.17 0Zm-57.337-4.11c1.082.386 1.979.597 2.769.784 1.814.428 3.169.753 4.023 2.391-.82-.512-1.806-.79-2.949-1.063-.762-.182-1.625-.386-2.572-.733l-.094-.034-.096-.02c-3.749-.822-6.464-2.305-8.413-4.584 1.9 1.537 4.305 2.6 7.332 3.259Z" fill="#FFDCA0"/><path d="M556.825 44.264c2.25 0 3.693-1.256 4.757-3.535-1.025 3.036-2.408 4.737-4.777 4.737-3.429 0-5.341-2.41-6.652-6.536 1.379 3.388 3.372 5.334 6.672 5.334Zm-28.86-29.855c2.301-4.392 5.786-7.014 9.324-7.014.272 0 .536.017.793.047 3.723.456 5.776 3.472 7.085 7.562-1.396-3.456-3.507-5.924-7.028-6.354a7.245 7.245 0 0 0-.87-.053c-3.763 0-7.44 2.721-9.86 7.281.156-.512.313-1 .556-1.47Zm-8.781 10.501c2.361-.06 3.951-1.222 5.441-3.426-1.561 2.981-2.903 4.561-5.463 4.626-2.095 0-4.208-2.711-5.472-6.764 1.387 3.417 3.407 5.563 5.494 5.563Zm78.082-2.643c1.531 0 3.356-.74 5.744-2.33 1.835-1.21 3.643-1.826 5.366-1.826 3.921 0 7.047 3.12 8.782 8.652-1.91-4.78-4.999-7.45-8.804-7.45-1.856 0-3.784.649-5.733 1.936-2.274 1.514-3.982 2.218-5.375 2.218-.888 0-2.206-.279-3.67-2.36 1.355.957 2.786 1.16 3.69 1.16Zm29.561 17.602c1.957 0 4.345-1.208 6.118-5.097-1.609 4.532-4.035 6.624-6.145 6.624-1.931 0-4.474-1.758-6.474-6.301 1.744 2.895 3.485 4.774 6.501 4.774Zm16.103-21.348c3.102 0 5.618 2.443 7.089 3.33a12.395 12.395 0 0 1-2.014-.848c-1.804-.95-3.521-1.429-5.099-1.429-3.196 0-5.74 1.94-7.373 5.475 1.461-4.29 4.045-6.527 7.397-6.527Zm-63.888-8.675c3.733 0 7.336 1.944 10.237 5.818-3.104-2.981-6.665-4.617-10.258-4.617-6.573 0-10.125 3.597-12.269 8.403 1.682-5.527 5.407-9.604 12.29-9.604ZM501.744 4.56c5.285 0 7.831 4.066 8.29 6.134-2.322-3.215-5.169-4.933-8.312-4.933-1.735 0-4.106.555-6.769 2.7a19.208 19.208 0 0 0-1.893 1.756c.28-1.285 3.9-5.656 8.684-5.656Zm-66.537 10.797c2.663 0 5.577 1.248 8.66 3.713 5.994 5.235 10.528 5.22 15.294-.252 2.317-2.66 4.502-3.783 7.099-3.783 1.795 0 3.627.936 5.341 2.562-1.667-1.048-3.359-1.586-5.057-1.586-2.797 0-5.459 1.426-7.907 4.237-2.275 2.611-4.488 3.88-6.767 3.88-2.266 0-4.742-1.203-7.623-3.718-3.201-2.557-6.251-3.853-9.064-3.853-4.261 0-7.799 2.822-10.603 8.365 2.308-6.472 6.254-9.565 10.627-9.565Zm44.418 6.055c2.008 0 4.315-1.02 6.614-2.848-2.386 2.543-4.558 4.048-6.636 4.048-1.387 0-2.848-.678-4.441-2.056 1.736.845 3.485.856 4.463.856Zm-67.92 32.771c2.371 0 4.446-1.26 5.949-3.71-1.345 3.209-3.459 5.075-5.973 5.075-2.715 0-5.16-2.14-6.038-5.224 1.325 2.387 3.66 3.86 6.062 3.86Z" fill="#FFD280"/></g></g><g clip-path="url(#t)"><mask id="u" style="mask-type:luminance" maskUnits="userSpaceOnUse" x="892" y="-28" width="483" height="112"><path d="M1374.5-27.904H892.375V83.488H1374.5V-27.904Z" fill="#fff"/></mask><g mask="url(#u)"><path d="M1129.61-36.57H758.369l.971 53.524c1.604 2.514 4.628 3.183 7.66 3.523 5.486.59 10.037 4.57 11.617 10.137 1.106 3.942 3.786 6.6 6.681 6.6 3.288 0 5.822-3.273 6.796-8.748 1.725-9.64 5.196-15.39 9.307-15.39 4.06 0 7.736 5.514 9.345 14.066 2.216 11.722 6.283 19.291 10.368 19.291 1.82 0 4.412-1.546 6.32-8.92.368-1.387.698-2.75 1-4.045 1.681-6.98 2.9-12.024 6.88-12.024l.237.014c.615.026 1.194.118 1.745.21.59.091 1.156.183 1.68.183.237 0 .471-.014.68-.053 1.019-.195 1.808-.68 2.371-1.44.984-1.35 2.15-2.057 3.343-2.057 1.27 0 2.554.786 3.616 2.213 2.751 3.745 5.551 5.71 8.092 5.71 2.698 0 5.067-2.213 6.837-6.431 3.203-7.596 8.173-12.31 12.991-12.31 5.618 0 9.523 6.573 10.187 17.142.673 11.16 5.549 17.17 9.807 17.17 3.457 0 7.497-4.02 8.444-15.337 1.293-15.414 4.342-23.456 9.324-24.582 1.383-.3 2.585-.445 3.686-.445 3.862 0 6.465 1.912 8.429 6.208 2.66 5.829 6.969 9.455 11.251 9.455 3.575 0 6.778-2.475 9.028-6.967 2.565-5.16 6.152-8.12 9.833-8.12 2.867 0 5.468 1.795 7.533 5.174 3.672 6.064 6.645 10.347 11.542 10.347.131 0 .261-.014.406-.014.17-.014.34-.014.51-.014 4.007 0 6.681 2.28 8.712 7.387 2.429 6.13 5.579 9.365 9.101 9.365 2.672 0 5.431-1.795 8.221-5.356.48-.669.94-1.335 1.39-1.978 1.52-2.227 2.82-4.138 4.84-5.213.9-.46 1.71-.694 2.5-.694 1.03 0 1.84.38 2.64.747.68.326 1.34.629 2.05.629h.19c.99-.065 1.78-.524 2.62-.995.34-.196.69-.393 1.07-.563.8-.38 1.68-.59 2.53-.59 2.03 0 3.66 1.1 4.48 3.025.93 2.201 1.28 5.54 1.57 10.556.74 12.912 5.99 18.688 10.86 18.688 4.9 0 10.27-5.776 11.23-18.663.37-5.094 1.6-5.383 4.32-6.024.8-.196 1.73-.407 2.73-.786 5.01-1.1 8.53-3.405 10.75-7.033 2.46-4.087 5.59-6.43 8.57-6.43 3.13 0 5.63 2.501 6.85 6.849.49 1.741.89 3.34 1.28 4.793 1.64 6.378 2.63 10.228 6.28 10.477.14.013.28.013.43.013 2.92 0 3.89-2.109 5.79-6.3.27-.576.54-1.204.86-1.859 1.33-2.908 3.46-4.583 5.85-4.583 1.55 0 3.1.707 4.5 2.029 1.65 1.585 3.32 2.396 4.93 2.396 1.73 0 3.35-.93 4.83-2.75 2.69-3.327 4.87-4.807 7.04-4.807 1.14 0 2.02.24 2.72.61 3.24 1.698 3.1 4.588 7.61 2.62 1.7-.741 3.04-1.736 5.35-1.736 5.08 0 6.74 4.304 7.26 8.012 1.2 8.396 4.84 13.818 9.26 13.818 4.39 0 8.17-4.967 10.09-12.814 1.58-6.467 4.45-9.265 8.37-9.265 1.49 0 3.1.55 4.74 1.637 2.58 1.716 4.6 2.513 6.37 2.513 2.15 0 3.95-1.217 5.49-3.706 3.47-5.54 8.11-8.721 12.74-8.721 10.36 0 12.17 10.451 13.77 19.671 1.3 7.583 2.54 14.746 8.44 14.746 7.79 0 9.2-9.73 10.56-19.134 1.25-8.735 2.45-16.973 8.31-17.694.21-.025.43-.039.66-.039 3.11 0 6.23 2.397 8.32 6.404a85.73 85.73 0 0 1 1.47 2.987c2.14 4.478 3.82 8.014 8.3 8.12 3.2 0 5.79-3.642 7.91-11.146 1.67-5.92 4.98-9.324 9.08-9.324 3.27 0 6.73 2.24 9.72 6.3 4.87 6.6 8.72 10.674 12.86 10.674 2.11 0 4.24-1.087 6.5-3.327 2.2-2.173 4.4-3.274 6.56-3.274 2.25 0 4.46 1.218 6.56 3.628 2.64 3.026 5.29 4.492 8.11 4.492 2.71 0 5.55-1.335 8.71-4.085 2.89-2.319 5.57-3.484 7.98-3.484 8.66 0 12.65 14.983 14.48 27.569 1.22 8.42 5.47 11.421 9.03 11.421 3.58 0 6.79-2.776 7.79-6.77 3.03-11.919 8.13-17.235 16.53-17.235 1.58 0 3.33.197 5.17.602 2.77.59 5.14.877 7.23.877 5.66 0 9.41-2.134 11.43-6.509 3.24-7.02 7.09-14.498 11.63-14.498 1.8 0 3.61 1.232 5.4 3.654 1.28 1.728 2.19 3.575 3.07 5.344 1.71 3.457 3.21 6.43 6.53 6.456.25-.025.51-.053.78-.053 1.58 0 3.48.655 3.54 3.812.3 14.472 6.55 19.605 11.81 19.605 10.99 0 10.7-17.693 10.59-24.359-.1-6.063 2.84-9.98 7.48-9.98 2.2 0 4.57.956 6.67 2.697 2.24 1.86 4.52 2.829 6.62 2.829 1.92 0 3.62-.839 4.8-2.383.74-.97 1.26-2.174 1.53-3.55l-.98-54.43-371.24.017ZM787.075 10.276c-.651 3.772-2.359 5.698-5.084 5.698-1.585 0-3.442-.63-5.534-1.873-7.082-4.177-10.152-11.722-9.236-15.297.222-.85.779-1.86 2.193-1.86.616 0 1.338.184 2.131.564 2.259 1.047 3.8 1.532 5.189 1.624.118 0 .237.014.354.014 1.296 0 2.427-.485 3.66-1.062a3.666 3.666 0 0 1 1.579-.379c1.073 0 2.078.537 2.922 1.532 1.928 2.25 2.605 6.389 1.826 11.039Zm625.075 8.84c-.35 4.176-2.01 6.129-5.2 6.129-.87 0-1.88-.145-3.08-.446-.81-.209-1.55-.459-2.26-.707l-.2-.065c-1.2-.418-1.85-.602-3.06-.602-.49 0-1.08.04-1.86.078-.55.04-1.09.065-1.59.065-3.99 0-6.75-1.113-7.96-3.208-1.07-1.833-.86-4.466.55-6.837 1.82-3.09 5.99-6.392 12.25-6.392.52 0 1.05.014 1.59.065 3.49.314 6.36 1.689 8.31 3.981 1.83 2.176 2.75 5.07 2.51 7.938Z" fill="#FFA931" stroke="#C46103" stroke-width="1.205" stroke-miterlimit="10"/><path d="M1149.68 27.6c.12.51.21 1.047.28 1.61 1.12 7.78 5.29 12.894 8.13 12.81 3.77 0 7.3-5.056 9-12.9.11-.524.23-1.034.38-1.519l-17.79-.001Z" fill="url(#v)"/><path d="M1220.43 29.53c.14.877.29 1.768.42 2.632 1.19 7.479 2.21 13.935 7.24 13.935 6.44 0 8.07-7.832 9.48-16.568h-17.14Z" fill="url(#w)"/><path d="M1364.18 39.129c.42 2.056.8 4.269 1.15 6.614 1.1 7.688 4.79 10.438 7.87 10.438s5.84-2.435 6.72-5.932c1.17-4.61 2.69-8.303 4.59-11.118l-20.33-.002Z" fill="url(#x)"/><path d="M888.017 21.248c.15 1.061.262 2.187.337 3.38.601 9.98 4.968 15.938 8.492 15.938 2.633 0 6.394-3.706 7.265-14.183a95.91 95.91 0 0 1 .549-5.133l-16.643-.002Z" fill="url(#y)"/><path d="M986.496 23.844c.082.183.152.367.22.537 1.551 3.904 4.189 8.552 7.934 8.552 2.226 0 4.723-1.689 7.21-4.846.48-.668.92-1.31 1.35-1.939.55-.799 1.09-1.585 1.65-2.304h-18.364Z" fill="url(#z)"/><path d="M1030.18 36.225c1.12 10.451 5.54 15.244 9.4 15.244 3.92 0 8.48-4.793 9.78-15.244h-19.18Z" fill="url(#A)"/><path d="M1087.09 26.977c1.37 5.094 2.29 7.398 4.63 7.57.12.014.24.014.34.014 2.06 0 2.77-1.35 4.71-5.606.26-.577.54-1.193.84-1.847.03-.04.04-.092.06-.131h-10.58Z" fill="url(#B)"/><path d="m1500.84-34.654.63 34.824c-4.5 2.344-11.38 2.293-15.27 1.69-6.76-1.074-13.73-3.34-20.47-.97-2.2.8-4.31 2.042-6.58 2.41-7.12 1.1-12.85-6.877-19.96-7.989-9.15-1.466-17.71 8.513-27.12 8.329-7.45-.156-13.86-6.693-21.41-6.876-9.76-.223-19.01 10.162-28.65 7.832-3.66-.878-6.93-3.563-10.73-3.51-3.91.038-7.56 3.037-11.5 3.156-3.63.131-7.01-2.174-10.64-1.912-4.35.329-7.99 4.217-12.26 5.5-7.76 2.32-14.83-4.23-22-8.002-8.2-4.347-17.97-5.213-27.05-2.357-7.85 2.475-12.71 7.596-20.31 4.584-3.36-1.349-6.37-4.27-10.04-3.955-4.12.354-7.45 4.807-11.6 4.899-4.39.092-7.59-4.69-11.95-5.292-2.59-.367-12.73 6.448-15.34 6.892-8.66 1.48-12.62-4.954-21.46-4.417-6.96.446-13.23 5.03-20.03 7.27-8.91 2.934-18.4-5.23-26.9-9.011-13.15-5.853-21.17 13.174-32.48 9.142-5.89-2.082-9.9-8.552-15.96-9.967-4.87-1.14-11.14 9.633-16.1 9.489-8.05-.249-14.32-7.729-21.11-3.34-2.91 1.897-4.53 5.435-6.44 8.525-3.79 6.156-8.4-.767-13.94-3.607-3.87-1.965-7.7-4.99-11.72-3.772-4.01 1.204-7.28 6.823-11.47 6.626-4.116-.184-6.644-5.958-10.681-6.916-2.724-.629-5.554 1.466-8.331 1.415-3.419-.052-6.172-2.343-8.875-4.845-4.13-3.824-8.712-9.508-22.237-5.698-6.242 1.767-10.635 5.043-16.027 5.2-7.422.222-12.242-7.033-25.277-6.601-6.401.209-10.722 2.41-15.037 4.976-2.514 1.507-5.164 2.698-9.008 2.332-2.402-.236-10.001-2.658-12.372-2.658-3.391 0-6.922 1.06-10.094 2.357-5.409 2.213-10.896 5.121-16.709 4.466-3.846-.432-9.758-2.934-13.624-3.076-3.985-.159-7.064 1.178-10.014 3.104-10.057 6.534-22.208 4.53-30.308-2.92-5.048-4.663-9.036-9.391-16.37-9.377-6.169.013-11.377 3.13-17.099 2.488l-.551-30.437 742.474-.001Z" fill="url(#C)"/><path d="M891.973 36.403c1.367 2.333 3.357 3.63 4.845 3.63 1.298 0 3.06-1.057 4.227-3.287-2.652 3.478-6.615 2.339-9.072-.343ZM918.089-1.65c-1.175 0-2.454.151-3.905.478-3.471.779-5.509 4.345-6.167 6.77 1.687-3.06 3.767-4.884 6.235-5.442 1.507-.337 2.837-.498 4.072-.498 3.862 0 6.728 1.656 8.893 5.124-2.122-4.434-4.946-6.432-9.128-6.432Zm192.881 24.175c-3.14-2.97-7.99-2.925-10.06-.26 1.12-.687 2.35-1.07 3.66-1.07 2.02 0 4 .875 5.73 2.528 1.31 1.255 2.55 1.893 3.69 1.893 1.07 0 2.14-.621 3.19-1.79-1.91 1.285-4.03.774-6.21-1.3Zm10.96-3.235c1.33-.83 2.62-1.231 3.94-1.231 1.33 0 2.67.39 4.11 1.209-2.17-3.211-5.89-2.531-8.05.022Zm-38.5-4.238c-1.61-2.092-3.77-3.25-6.19-3.25-2.1 0-4.22.921-6.17 2.578 4.93-7.341 12.05-2.16 12.36.671Zm10.93 17.405c-.86 1.344-1.45 1.473-2.61 1.473-.95-.066-1.65-.62-2.25-1.684 1.59 1.257 3.34 1.208 4.86.211Zm-60.47 14.158c1.69 2.795 3.79 4.127 5.74 4.127 1.75 0 3.64-1.046 5.27-3.22-2.88 2.54-7.48 2.927-11.01-.907Zm-13.5-28.783c-.39.184-.76.39-1.11.59-.8.447-1.49.834-2.29.891h-.01c-.65 0-1.22-.263-1.82-.544-.85-.39-1.8-.831-3.03-.831-2.5 0-4.42 1.763-5.28 3.158 1.33-1.055 3.04-1.854 4.77-1.854 1.42 0 2.51.51 3.39.92.53.247.98.458 1.35.458h.01c.59-.044 1.16-.368 1.89-.778.37-.21.76-.426 1.16-.619a7.766 7.766 0 0 1 3.29-.752c2.76 0 5.05 1.54 6.15 4.118-.57-3.651-4.02-6.844-8.47-4.757ZM945.31 9.62c-1.92 3.697-4.502 5.709-7.304 5.709-2.894 0-5.879-2.131-8.155-5.71 4.053 6.074 12.487 5.438 15.459 0Zm39.901 10.681c-2.447-3.617-5.201-4.553-9.28-4.553-3.617 0-6.107-3.053-9.999-9.46-2.361-3.907-5.584-6.052-9.069-6.052-2.658 0-5.24 1.223-7.5 3.513.433-1.52 3.321-4.815 7.57-4.815 3.17 0 6.142 1.986 8.338 5.592 4.121 6.723 6.798 9.92 10.89 9.92 5.575 0 8.431 3.658 9.05 5.855Zm16.059 7.789c-2.301 2.868-4.575 4.395-6.589 4.395-2.289 0-4.153-1.973-5.579-4.395 4.254 5.232 9.622 2.517 12.168 0Zm57.34-4.11c-1.08.386-1.98.597-2.77.784-1.81.428-3.17.753-4.02 2.391.82-.512 1.8-.79 2.95-1.063.76-.182 1.62-.386 2.57-.733l.09-.034.1-.02c3.75-.822 6.46-2.305 8.41-4.584-1.9 1.537-4.3 2.6-7.33 3.259Z" fill="#FFDCA0"/><path d="M1228.05 44.264c-2.25 0-3.69-1.256-4.76-3.535 1.03 3.036 2.41 4.737 4.78 4.737 3.43 0 5.34-2.41 6.65-6.536-1.38 3.388-3.37 5.334-6.67 5.334Zm28.86-29.855c-2.3-4.392-5.79-7.014-9.32-7.014-.28 0-.54.017-.8.047-3.72.456-5.77 3.472-7.08 7.562 1.4-3.456 3.51-5.924 7.03-6.354.28-.034.57-.053.87-.053 3.76 0 7.44 2.721 9.86 7.281-.16-.512-.32-1-.56-1.47Zm8.78 10.501c-2.36-.06-3.95-1.222-5.44-3.426 1.56 2.981 2.9 4.561 5.46 4.626 2.1 0 4.21-2.711 5.48-6.764-1.39 3.417-3.41 5.563-5.5 5.563Zm-78.08-2.643c-1.53 0-3.36-.74-5.74-2.33-1.84-1.21-3.65-1.826-5.37-1.826-3.92 0-7.05 3.12-8.78 8.652 1.91-4.78 5-7.45 8.8-7.45 1.86 0 3.79.649 5.74 1.936 2.27 1.514 3.98 2.218 5.37 2.218.89 0 2.21-.279 3.67-2.36a6.454 6.454 0 0 1-3.69 1.16Zm-29.56 17.602c-1.96 0-4.35-1.208-6.12-5.097 1.61 4.532 4.04 6.624 6.15 6.624 1.93 0 4.47-1.758 6.47-6.301-1.74 2.895-3.49 4.774-6.5 4.774Zm-16.1-21.348c-3.11 0-5.62 2.443-7.09 3.33.62-.195 1.31-.48 2.01-.848 1.81-.95 3.52-1.429 5.1-1.429 3.2 0 5.74 1.94 7.37 5.475-1.46-4.29-4.04-6.527-7.39-6.527Zm63.88-8.675c-3.73 0-7.33 1.944-10.23 5.818 3.1-2.981 6.66-4.617 10.25-4.617 6.58 0 10.13 3.597 12.27 8.403-1.68-5.527-5.4-9.604-12.29-9.604Zm77.3-5.286c-5.28 0-7.83 4.066-8.29 6.134 2.32-3.215 5.17-4.933 8.31-4.933 1.74 0 4.11.555 6.77 2.7a19.7 19.7 0 0 1 1.9 1.756c-.28-1.285-3.9-5.656-8.69-5.656Zm66.54 10.797c-2.66 0-5.58 1.248-8.66 3.713-5.99 5.235-10.53 5.22-15.3-.252-2.31-2.66-4.5-3.783-7.09-3.783-1.8 0-3.63.936-5.34 2.562 1.66-1.048 3.35-1.586 5.05-1.586 2.8 0 5.46 1.426 7.91 4.237 2.27 2.611 4.49 3.88 6.77 3.88 2.26 0 4.74-1.203 7.62-3.718 3.2-2.557 6.25-3.853 9.06-3.853 4.26 0 7.8 2.822 10.61 8.365-2.31-6.472-6.26-9.565-10.63-9.565Zm-44.42 6.055c-2.01 0-4.31-1.02-6.61-2.848 2.38 2.543 4.56 4.048 6.63 4.048 1.39 0 2.85-.678 4.44-2.056-1.73.845-3.48.856-4.46.856Zm67.92 32.771c-2.37 0-4.44-1.26-5.95-3.71 1.35 3.209 3.46 5.075 5.97 5.075 2.72 0 5.17-2.14 6.04-5.224-1.32 2.387-3.66 3.86-6.06 3.86Z" fill="#FFD280"/></g></g><g clip-path="url(#D)"><mask id="E" style="mask-type:luminance" maskUnits="userSpaceOnUse" x="1372" y="-12" width="483" height="112"><path d="M1854.5-11.904h-482.12V99.488h482.12V-11.904Z" fill="#fff"/></mask><g mask="url(#E)"><path d="M1609.61-20.57h-371.24l.97 53.524c1.6 2.514 4.63 3.183 7.66 3.523 5.49.59 10.04 4.57 11.62 10.137 1.1 3.942 3.78 6.6 6.68 6.6 3.29 0 5.82-3.273 6.79-8.748 1.73-9.64 5.2-15.39 9.31-15.39 4.06 0 7.74 5.514 9.35 14.066 2.21 11.722 6.28 19.291 10.36 19.291 1.82 0 4.42-1.546 6.32-8.92.37-1.387.7-2.75 1-4.045 1.68-6.98 2.9-12.024 6.88-12.024l.24.014c.62.026 1.19.117 1.75.21.59.091 1.15.183 1.68.183.23 0 .47-.014.68-.053 1.02-.195 1.8-.68 2.37-1.44.98-1.35 2.15-2.057 3.34-2.057 1.27 0 2.55.786 3.62 2.213 2.75 3.745 5.55 5.71 8.09 5.71 2.7 0 5.06-2.213 6.84-6.431 3.2-7.596 8.17-12.31 12.99-12.31 5.61 0 9.52 6.573 10.18 17.142.68 11.16 5.55 17.17 9.81 17.17 3.46 0 7.5-4.02 8.44-15.337 1.3-15.414 4.35-23.456 9.33-24.582 1.38-.3 2.58-.445 3.68-.445 3.87 0 6.47 1.912 8.43 6.208 2.66 5.829 6.97 9.455 11.25 9.455 3.58 0 6.78-2.475 9.03-6.967 2.57-5.16 6.15-8.12 9.83-8.12 2.87 0 5.47 1.795 7.54 5.174 3.67 6.064 6.64 10.347 11.54 10.347.13 0 .26-.014.41-.014.17-.014.34-.014.51-.014 4 0 6.68 2.28 8.71 7.387 2.43 6.13 5.58 9.365 9.1 9.365 2.67 0 5.43-1.795 8.22-5.356.48-.669.94-1.335 1.39-1.978 1.52-2.227 2.82-4.138 4.84-5.213.9-.46 1.71-.694 2.5-.694 1.03 0 1.84.38 2.64.746.68.327 1.34.63 2.05.63h.19c.99-.065 1.78-.524 2.62-.995.34-.196.69-.393 1.07-.563.8-.38 1.68-.59 2.53-.59 2.03 0 3.66 1.1 4.48 3.025.93 2.201 1.28 5.54 1.57 10.556.74 12.912 5.99 18.688 10.86 18.688 4.9 0 10.27-5.776 11.23-18.663.37-5.094 1.6-5.383 4.32-6.024.8-.196 1.73-.407 2.73-.786 5.01-1.1 8.53-3.405 10.75-7.033 2.46-4.087 5.59-6.43 8.57-6.43 3.13 0 5.63 2.501 6.85 6.849.49 1.741.89 3.34 1.28 4.793 1.64 6.378 2.63 10.228 6.28 10.477.14.013.28.013.43.013 2.92 0 3.89-2.109 5.79-6.3.27-.576.54-1.204.86-1.859 1.33-2.908 3.46-4.583 5.85-4.583 1.55 0 3.1.707 4.5 2.029 1.65 1.585 3.32 2.396 4.93 2.396 1.73 0 3.35-.93 4.83-2.75 2.69-3.327 4.87-4.807 7.04-4.807 1.14 0 2.02.24 2.72.61 3.24 1.698 3.1 4.588 7.61 2.62 1.7-.741 3.04-1.736 5.35-1.736 5.08 0 6.74 4.305 7.26 8.012 1.2 8.396 4.84 13.818 9.26 13.818 4.39 0 8.17-4.967 10.09-12.814 1.58-6.467 4.45-9.265 8.37-9.265 1.49 0 3.1.55 4.74 1.637 2.58 1.716 4.6 2.513 6.37 2.513 2.15 0 3.95-1.217 5.49-3.706 3.47-5.54 8.11-8.721 12.74-8.721 10.36 0 12.17 10.451 13.77 19.671 1.3 7.583 2.54 14.746 8.44 14.746 7.79 0 9.2-9.73 10.56-19.134 1.25-8.735 2.45-16.973 8.31-17.694.21-.025.43-.039.66-.039 3.11 0 6.23 2.397 8.32 6.404a85.73 85.73 0 0 1 1.47 2.987c2.14 4.478 3.82 8.014 8.3 8.12 3.2 0 5.79-3.642 7.91-11.146 1.67-5.92 4.98-9.324 9.08-9.324 3.27 0 6.73 2.24 9.72 6.3 4.87 6.6 8.72 10.674 12.86 10.674 2.11 0 4.24-1.087 6.5-3.327 2.2-2.173 4.4-3.274 6.56-3.274 2.25 0 4.46 1.218 6.56 3.628 2.64 3.026 5.29 4.492 8.11 4.492 2.71 0 5.55-1.335 8.71-4.085 2.89-2.319 5.57-3.484 7.98-3.484 8.66 0 12.65 14.983 14.48 27.569 1.22 8.42 5.47 11.421 9.03 11.421 3.58 0 6.79-2.776 7.79-6.77 3.03-11.919 8.13-17.235 16.53-17.235 1.58 0 3.33.197 5.17.602 2.77.59 5.14.877 7.23.877 5.66 0 9.41-2.134 11.43-6.509 3.24-7.02 7.09-14.498 11.63-14.498 1.8 0 3.61 1.232 5.4 3.654 1.28 1.728 2.19 3.575 3.07 5.344 1.71 3.457 3.21 6.43 6.53 6.456.25-.025.51-.053.78-.053 1.58 0 3.48.655 3.54 3.812.3 14.472 6.55 19.605 11.81 19.605 10.99 0 10.7-17.693 10.59-24.359-.1-6.063 2.84-9.98 7.48-9.98 2.2 0 4.57.956 6.67 2.697 2.24 1.86 4.52 2.829 6.62 2.829 1.92 0 3.62-.839 4.8-2.383.74-.97 1.26-2.174 1.53-3.55l-.98-54.43-371.24.017Zm-342.53 46.847c-.66 3.772-2.36 5.698-5.09 5.698-1.58 0-3.44-.63-5.53-1.873-7.09-4.177-10.16-11.722-9.24-15.297.22-.85.78-1.86 2.19-1.86.62 0 1.34.184 2.13.564 2.26 1.047 3.8 1.532 5.19 1.624.12 0 .24.014.36.014 1.29 0 2.43-.485 3.66-1.062a3.658 3.658 0 0 1 1.58-.379c1.07 0 2.07.537 2.92 1.533 1.93 2.25 2.6 6.388 1.83 11.038Zm625.07 8.84c-.35 4.176-2.01 6.129-5.2 6.129-.87 0-1.88-.145-3.08-.446-.81-.209-1.55-.459-2.26-.707l-.2-.065c-1.2-.418-1.85-.602-3.06-.602-.49 0-1.08.04-1.86.078-.55.04-1.09.065-1.59.065-3.99 0-6.75-1.113-7.96-3.208-1.07-1.833-.86-4.466.55-6.837 1.82-3.09 5.99-6.392 12.25-6.392.52 0 1.05.014 1.59.065 3.49.314 6.36 1.689 8.31 3.981 1.83 2.176 2.75 5.07 2.51 7.938Z" fill="#FFA931" stroke="#C46103" stroke-width="1.205" stroke-miterlimit="10"/><path d="M1368.02 37.248c.15 1.062.26 2.187.33 3.38.6 9.98 4.97 15.938 8.5 15.938 2.63 0 6.39-3.706 7.26-14.183.15-1.808.33-3.523.55-5.133l-16.64-.002Z" fill="url(#F)"/><path d="M1466.5 39.844c.08.183.15.367.22.537 1.55 3.904 4.18 8.552 7.93 8.552 2.23 0 4.72-1.689 7.21-4.846.48-.668.92-1.31 1.35-1.939.55-.799 1.09-1.585 1.65-2.304h-18.36Z" fill="url(#G)"/><path d="M1510.18 52.225c1.12 10.451 5.54 15.244 9.4 15.244 3.92 0 8.48-4.793 9.78-15.244h-19.18Z" fill="url(#H)"/><path d="M1567.09 42.977c1.37 5.094 2.29 7.398 4.63 7.57.12.014.24.014.34.014 2.06 0 2.77-1.35 4.71-5.606.26-.577.54-1.193.84-1.847.03-.04.04-.092.06-.131h-10.58Z" fill="url(#I)"/><path d="m1980.84-18.654.63 34.824c-4.5 2.344-11.38 2.293-15.27 1.69-6.76-1.074-13.73-3.34-20.47-.97-2.2.8-4.31 2.042-6.58 2.41-7.12 1.1-12.85-6.877-19.96-7.989-9.15-1.466-17.71 8.513-27.12 8.329-7.45-.157-13.86-6.693-21.41-6.877-9.76-.222-19.01 10.163-28.65 7.833-3.66-.878-6.93-3.563-10.73-3.51-3.91.039-7.56 3.037-11.5 3.156-3.63.131-7.01-2.174-10.64-1.912-4.35.329-7.99 4.217-12.26 5.5-7.76 2.32-14.83-4.23-22-8.002-8.2-4.347-17.97-5.213-27.05-2.357-7.85 2.475-12.71 7.596-20.31 4.584-3.36-1.349-6.37-4.27-10.04-3.955-4.12.354-7.45 4.807-11.6 4.899-4.39.092-7.59-4.69-11.95-5.291-2.59-.368-12.73 6.447-15.34 6.891-8.66 1.48-12.62-4.954-21.46-4.417-6.96.446-13.23 5.03-20.03 7.27-8.91 2.933-18.4-5.23-26.9-9.011-13.15-5.853-21.17 13.174-32.48 9.141-5.89-2.081-9.9-8.551-15.96-9.966-4.87-1.14-11.14 9.633-16.1 9.489-8.05-.249-14.32-7.729-21.11-3.34-2.91 1.897-4.53 5.435-6.44 8.525-3.79 6.156-8.4-.767-13.94-3.607-3.87-1.965-7.7-4.99-11.72-3.773-4.01 1.205-7.28 6.824-11.47 6.627-4.12-.184-6.64-5.958-10.68-6.916-2.72-.629-5.55 1.466-8.33 1.416-3.42-.053-6.17-2.344-8.88-4.846-4.13-3.824-8.71-9.508-22.23-5.698-6.25 1.767-10.64 5.043-16.03 5.2-7.42.222-12.24-7.033-25.28-6.602-6.4.21-10.72 2.41-15.04 4.977-2.51 1.507-5.16 2.698-9 2.332-2.4-.236-10-2.658-12.37-2.658-3.4 0-6.93 1.06-10.1 2.357-5.41 2.213-10.89 5.121-16.71 4.466-3.84-.432-9.76-2.934-13.62-3.077-3.99-.158-7.07 1.18-10.02 3.105-10.05 6.534-22.2 4.53-30.3-2.92-5.05-4.663-9.04-9.391-16.37-9.377-6.17.013-11.38 3.13-17.1 2.488l-.55-30.437 742.47-.001Z" fill="url(#J)"/><path d="M1980.84-18.654 1981.2.93c-9.66.75-12.93-4.414-19.81-4.414-8.59 0-12.84 4.5-21.25 4.427-6-.058-12.83-3.216-16.66-2.942-5.45.418-9.3 4.456-14.81 4.398-5.21-.058-9.56-2.913-14.74-3.145-4.61-.187-8.3 1.687-12.47 2.538-9.45 1.947-15.73-2.337-25.69-3.922-11.49-1.846-23.74-1.298-33.88 1.5-8.88 2.424-17.52 7.63-27.34 6.143-5.41-.837-10.14-4.327-15.61-4.543-4.57-.173-8.71 2.308-13.27 2.235-4.95-.071-9.65-3.014-14.58-3.029-4.77-.042-8.76 2.682-13.32 3.245-12.04 1.5-24.03-6.158-36.29-6.028-9.46.116-17.27 5.322-26.63 5.423-11.81.115-25.56-7.283-36.99-6.332-11.43.923-13.62 7.34-27.89 5.119-11.93-1.442-18.65 3.39-29.38 3.39-15.48 0-19.8-5.25-34.9-4.717-8.74.303-15.74 2.596-25.1 1.977-8.03-.548-16.38-3.951-28.87-4.27-14.07-.374-16.54 4.601-27.7 4.125-6.83-.289-17.46-4.298-28.37-3.98-8.16.245-20.78 5.322-36.33 4.456-12.89-.717-19.99-5.866-34.68-5.578-14.37.289-18.64 4.874-27.24 5.985-2.1.274-4.35.318-6.55-.116-12.93-2.495-11.67 3-20.94 3.174-8.38.145-8.63-3.85-18.82-4.024-4.24-.087-5.78 1.168-11.44 2.264-6.65 1.268-11.09 1.124-17.01-2.409-10.51-6.303-13.76-7.27-23.99-4.903l-.28-15.634h742.47v.002Z" fill="url(#K)"/><path d="M1371.97 52.403c1.37 2.333 3.36 3.63 4.85 3.63 1.3 0 3.06-1.057 4.22-3.287-2.65 3.478-6.61 2.339-9.07-.343Zm26.12-38.053c-1.18 0-2.46.151-3.91.478-3.47.779-5.5 4.345-6.16 6.77 1.68-3.06 3.76-4.884 6.23-5.442 1.51-.337 2.84-.498 4.07-.498 3.87 0 6.73 1.656 8.9 5.124-2.13-4.434-4.95-6.432-9.13-6.432Zm165.34 16.702c-1.61-2.093-3.77-3.25-6.19-3.25-2.1 0-4.22.921-6.17 2.578 4.93-7.341 12.05-2.16 12.36.672Zm-49.54 31.563c1.69 2.795 3.79 4.127 5.74 4.127 1.75 0 3.64-1.046 5.27-3.22-2.88 2.54-7.48 2.927-11.01-.907Zm-13.5-28.783c-.39.184-.76.39-1.11.59-.8.448-1.49.834-2.29.891h-.01c-.65 0-1.22-.263-1.82-.544-.85-.39-1.8-.831-3.03-.831-2.5 0-4.42 1.763-5.28 3.158 1.33-1.055 3.04-1.854 4.77-1.854 1.42 0 2.51.51 3.39.92.53.247.98.458 1.35.458h.01c.59-.044 1.16-.368 1.89-.778.37-.21.76-.426 1.16-.619a7.764 7.764 0 0 1 3.29-.752c2.76 0 5.05 1.54 6.15 4.118-.57-3.651-4.02-6.844-8.47-4.757Zm-75.08-8.212c-1.92 3.697-4.5 5.709-7.3 5.709-2.9 0-5.88-2.131-8.16-5.71 4.05 6.074 12.49 5.438 15.46 0Zm39.9 10.681c-2.45-3.617-5.2-4.553-9.28-4.553-3.62 0-6.11-3.053-10-9.46-2.36-3.907-5.58-6.052-9.07-6.052-2.66 0-5.24 1.223-7.5 3.513.44-1.52 3.32-4.815 7.57-4.815 3.17 0 6.14 1.986 8.34 5.592 4.12 6.723 6.8 9.92 10.89 9.92 5.58 0 8.43 3.658 9.05 5.855Zm16.06 7.789c-2.3 2.868-4.58 4.395-6.59 4.395-2.29 0-4.15-1.973-5.58-4.395 4.26 5.232 9.62 2.517 12.17 0Zm57.34-4.11c-1.08.386-1.98.597-2.77.784-1.81.428-3.17.753-4.02 2.391.82-.512 1.8-.79 2.95-1.063.76-.182 1.62-.386 2.57-.733l.09-.034.1-.02c3.75-.822 6.46-2.305 8.41-4.584-1.9 1.537-4.3 2.6-7.33 3.259Z" fill="#FFDCA0"/></g></g><defs><linearGradient id="c" x1="194.712" y1="41.949" x2="194.712" y2="28.272" gradientUnits="userSpaceOnUse"><stop stop-color="#F27D00"/><stop offset="1" stop-color="#FFA931"/></linearGradient><linearGradient id="d" x1="265.174" y1="46.169" x2="265.174" y2="31.205" gradientUnits="userSpaceOnUse"><stop stop-color="#F27D00"/><stop offset="1" stop-color="#FFA931"/></linearGradient><linearGradient id="e" x1="410.526" y1="55.992" x2="410.526" y2="40.818" gradientUnits="userSpaceOnUse"><stop stop-color="#F27D00"/><stop offset="1" stop-color="#FFA931"/></linearGradient><linearGradient id="f" x1="31.707" y1="32.525" x2="31.707" y2="25.538" gradientUnits="userSpaceOnUse"><stop stop-color="#F27D00"/><stop offset="1" stop-color="#FFA931"/></linearGradient><linearGradient id="g" x1="75.915" y1="51.231" x2="75.915" y2="37.424" gradientUnits="userSpaceOnUse"><stop stop-color="#F27D00"/><stop offset="1" stop-color="#FFA931"/></linearGradient><linearGradient id="h" x1="128.397" y1="34.56" x2="128.397" y2="28.399" gradientUnits="userSpaceOnUse"><stop stop-color="#F27D00"/><stop offset="1" stop-color="#FFA931"/></linearGradient><linearGradient id="i" x1="166.528" y1="23.27" x2="166.528" y2="-34.356" gradientUnits="userSpaceOnUse"><stop stop-color="#FA8A00"/><stop offset=".588" stop-color="#FFA931"/><stop offset="1" stop-color="#FFA931"/></linearGradient><linearGradient id="l" x1="626.038" y1="41.949" x2="626.038" y2="28.272" gradientUnits="userSpaceOnUse"><stop stop-color="#F27D00"/><stop offset="1" stop-color="#FFA931"/></linearGradient><linearGradient id="m" x1="555.576" y1="46.169" x2="555.576" y2="31.205" gradientUnits="userSpaceOnUse"><stop stop-color="#F27D00"/><stop offset="1" stop-color="#FFA931"/></linearGradient><linearGradient id="n" x1="410.224" y1="55.992" x2="410.224" y2="40.818" gradientUnits="userSpaceOnUse"><stop stop-color="#F27D00"/><stop offset="1" stop-color="#FFA931"/></linearGradient><linearGradient id="o" x1="888.195" y1="40.13" x2="888.195" y2="24.113" gradientUnits="userSpaceOnUse"><stop stop-color="#F27D00"/><stop offset="1" stop-color="#FFA931"/></linearGradient><linearGradient id="p" x1="789.043" y1="32.525" x2="789.043" y2="25.538" gradientUnits="userSpaceOnUse"><stop stop-color="#F27D00"/><stop offset="1" stop-color="#FFA931"/></linearGradient><linearGradient id="q" x1="744.836" y1="51.231" x2="744.836" y2="37.424" gradientUnits="userSpaceOnUse"><stop stop-color="#F27D00"/><stop offset="1" stop-color="#FFA931"/></linearGradient><linearGradient id="r" x1="692.353" y1="34.56" x2="692.353" y2="28.399" gradientUnits="userSpaceOnUse"><stop stop-color="#F27D00"/><stop offset="1" stop-color="#FFA931"/></linearGradient><linearGradient id="s" x1="654.223" y1="23.27" x2="654.223" y2="-34.356" gradientUnits="userSpaceOnUse"><stop stop-color="#FA8A00"/><stop offset=".588" stop-color="#FFA931"/><stop offset="1" stop-color="#FFA931"/></linearGradient><linearGradient id="v" x1="1158.84" y1="41.949" x2="1158.84" y2="28.272" gradientUnits="userSpaceOnUse"><stop stop-color="#F27D00"/><stop offset="1" stop-color="#FFA931"/></linearGradient><linearGradient id="w" x1="1229.3" y1="46.169" x2="1229.3" y2="31.205" gradientUnits="userSpaceOnUse"><stop stop-color="#F27D00"/><stop offset="1" stop-color="#FFA931"/></linearGradient><linearGradient id="x" x1="1374.65" y1="55.992" x2="1374.65" y2="40.818" gradientUnits="userSpaceOnUse"><stop stop-color="#F27D00"/><stop offset="1" stop-color="#FFA931"/></linearGradient><linearGradient id="y" x1="896.681" y1="40.13" x2="896.681" y2="24.113" gradientUnits="userSpaceOnUse"><stop stop-color="#F27D00"/><stop offset="1" stop-color="#FFA931"/></linearGradient><linearGradient id="z" x1="995.833" y1="32.525" x2="995.833" y2="25.538" gradientUnits="userSpaceOnUse"><stop stop-color="#F27D00"/><stop offset="1" stop-color="#FFA931"/></linearGradient><linearGradient id="A" x1="1040.04" y1="51.231" x2="1040.04" y2="37.424" gradientUnits="userSpaceOnUse"><stop stop-color="#F27D00"/><stop offset="1" stop-color="#FFA931"/></linearGradient><linearGradient id="B" x1="1092.52" y1="34.56" x2="1092.52" y2="28.399" gradientUnits="userSpaceOnUse"><stop stop-color="#F27D00"/><stop offset="1" stop-color="#FFA931"/></linearGradient><linearGradient id="C" x1="1130.65" y1="23.27" x2="1130.65" y2="-34.356" gradientUnits="userSpaceOnUse"><stop stop-color="#FA8A00"/><stop offset=".588" stop-color="#FFA931"/><stop offset="1" stop-color="#FFA931"/></linearGradient><linearGradient id="F" x1="1376.68" y1="56.13" x2="1376.68" y2="40.114" gradientUnits="userSpaceOnUse"><stop stop-color="#F27D00"/><stop offset="1" stop-color="#FFA931"/></linearGradient><linearGradient id="G" x1="1475.83" y1="48.525" x2="1475.83" y2="41.538" gradientUnits="userSpaceOnUse"><stop stop-color="#F27D00"/><stop offset="1" stop-color="#FFA931"/></linearGradient><linearGradient id="H" x1="1520.04" y1="67.231" x2="1520.04" y2="53.424" gradientUnits="userSpaceOnUse"><stop stop-color="#F27D00"/><stop offset="1" stop-color="#FFA931"/></linearGradient><linearGradient id="I" x1="1572.52" y1="50.56" x2="1572.52" y2="44.399" gradientUnits="userSpaceOnUse"><stop stop-color="#F27D00"/><stop offset="1" stop-color="#FFA931"/></linearGradient><linearGradient id="J" x1="1610.65" y1="39.27" x2="1610.65" y2="-18.356" gradientUnits="userSpaceOnUse"><stop stop-color="#FA8A00"/><stop offset=".588" stop-color="#FFA931"/><stop offset="1" stop-color="#FFA931"/></linearGradient><linearGradient id="K" x1="1610.19" y1="13.392" x2="1610.19" y2="-21.229" gradientUnits="userSpaceOnUse"><stop stop-color="#FFC259"/><stop offset=".563" stop-color="#FFA931"/><stop offset="1" stop-color="#FFA931"/></linearGradient><clipPath id="a"><path fill="#fff" transform="translate(-71.625 -11.885)" d="M0 0h482v70H0z"/></clipPath><clipPath id="j"><path fill="#fff" transform="matrix(-1 0 0 1 892.375 -11.885)" d="M0 0h482v70H0z"/></clipPath><clipPath id="t"><path fill="#fff" transform="translate(892.501 -11.885)" d="M0 0h482v70H0z"/></clipPath><clipPath id="D"><path fill="#fff" transform="translate(1372.45 -4.889)" d="M0 0h482v79H0z"/></clipPath></defs></svg>