<svg width="16" height="17" fill="none" xmlns="http://www.w3.org/2000/svg" viewBox="0 0 16 17"><path fill-rule="evenodd" clip-rule="evenodd" d="M7.963 1.085A3.569 3.569 0 0 0 4.39 4.65v1.91h-.52c-.814 0-1.484.666-1.484 1.48v5.565c0 .814.67 1.48 1.484 1.48h8.26c.814 0 1.481-.666 1.481-1.48V8.04c0-.813-.667-1.48-1.48-1.48h-.593V4.65a3.571 3.571 0 0 0-3.574-3.565Zm0 .823c1.53 0 2.75 1.216 2.75 2.742v1.91H5.215V4.65a2.73 2.73 0 0 1 2.748-2.742ZM3.869 7.383h8.261c.372 0 .657.286.657.656v5.566c0 .37-.285.656-.657.656H3.869a.648.648 0 0 1-.66-.656V8.04c0-.37.287-.656.66-.656Zm4.13 1.459c-.788 0-1.438.647-1.438 1.434a1.44 1.44 0 0 0 1.025 1.37v.746a.412.412 0 0 0 .823 0v-.744a1.439 1.439 0 0 0 1.025-1.371 1.44 1.44 0 0 0-1.435-1.435Zm0 .823c.344 0 .611.27.611.612a.602.602 0 0 1-.61.607.605.605 0 0 1-.615-.607c0-.342.27-.612.614-.612Z" fill="#4D4D4D"/></svg>