<svg width="16" height="17" fill="none" xmlns="http://www.w3.org/2000/svg" viewBox="0 0 16 17"><path fill-rule="evenodd" clip-rule="evenodd" d="M10.747 10.399c-.318-.492-.702-.812-1.253-.993 0 0-.415-.213-1.5-.213-1.084 0-1.499.213-1.499.213-.55.183-.935.5-1.253.993-.125.193-.193.583-.198.791.002.054 0 .117 0 .18v.358-.247c0 .396.27.718.605.718h4.69c.335 0 .606-.322.606-.718v.247-.538c-.005-.208-.072-.598-.198-.791ZM6.34 6.47c0 .92.574 2.27 1.654 2.27 1.061 0 1.653-1.35 1.653-2.27 0-.92-.74-1.666-1.653-1.666A1.66 1.66 0 0 0 6.34 6.47Z" fill="#4D4D4D"/><path d="M6.17 8.984a2.056 2.056 0 0 0-1.014-.711s-.388-.2-1.4-.2c-1.015 0-1.403.2-1.403.2-.514.17-.874.467-1.17.927-.118.181-.182.545-.186.74.002.05 0 .109 0 .168v.103c0 .37.253.671.566.671h2.83c.04-.235.112-.492.214-.65.398-.615.88-1.015 1.564-1.248ZM3.755 7.651c.992 0 1.545-1.263 1.545-2.122 0-.86-.692-1.557-1.545-1.557-.854 0-1.546.698-1.546 1.557 0 .86.536 2.122 1.546 2.122Zm6.069 1.333c.267-.339.587-.57 1.015-.711 0 0 .387-.2 1.4-.2 1.015 0 1.403.2 1.403.2.514.17.873.467 1.17.927.118.181.181.545.186.74-.002.05 0 .109 0 .168v.103c0 .37-.253.671-.566.671h-2.83c-.04-.235-.112-.492-.214-.65-.398-.615-.88-1.015-1.564-1.248Zm2.416-1.333c-.992 0-1.545-1.263-1.545-2.122 0-.86.692-1.557 1.545-1.557.854 0 1.546.698 1.546 1.557 0 .86-.536 2.122-1.546 2.122Z" fill="#4D4D4D"/></svg>