<svg width="170" height="169" fill="none" xmlns="http://www.w3.org/2000/svg" viewBox="0 0 170 169"><g clip-path="url(#a)"><rect x=".5" width="169" height="169" rx="84.5" fill="#523914"/><path d="m73.385 56.407 129.795 76.671L191.836 149 62.513 70.648l10.872-14.24Z" fill="#F9DD95" stroke="#FFFCFC" stroke-width=".242"/><path d="M137.993 98.852c3.052-4.105 2.809-7.85 2.307-9.21l-1.974-2.075-4.821-2.16c-2.209 1.28-7.385 4.704-10.418 8.165-3.033 3.46-5.6 10.457-6.505 13.523.1 1.213.788 3.654 2.74 3.711 2.44.072 4.043.926 6.914.204 2.871-.722 7.942-7.027 11.757-12.158Z" fill="#FFCD4D"/><path d="M137.104 88.431c.882-1.398-.285-3.61-.978-4.542l-1.451-2.192c-.491-.403-2.239-1.263-5.309-1.481-3.839-.273-4.285.701-9.497 5.121-5.213 4.42-11.186 14.92-12.11 18.442-.924 3.521-.105 5.307 2.635 7.131 2.74 1.824 4.894.883 7.044.139 2.15-.744 4.964-2.654 3.45-1.701-1.513.953 1.607-5.671 4.91-10.718 3.303-5.048 3.478-3.078 7.172-6.348 2.956-2.616 3.988-3.657 4.134-3.85Z" fill="#FFCD4D"/><path d="M106.553 110.878c1.855.219 4.485-1.453 5.567-2.317l.653-.6.053-1.857c.024-.825.042-1.443 1.382-3.882 1.34-2.439 4.684-8.329 6.229-10.555 1.546-2.226 2.862-3.84 4.154-4.628 1.292-.788 6.727-5.792 7.397-7.012.67-1.219.711-2.663.125-4.331-.587-1.669-1.831-2.53-3.293-3.192-1.462-.662-3.546-1.754-10.117-1.325-5.257.343-14.595 14.51-18.607 21.551-2.111 2.747-2.347 7.984-2.201 10.259.387 1.25.967 3.124 2.81 5.242s3.528 2.373 5.848 2.647Z" fill="#FFCD4D"/><path d="M123.993 63.748c2.261 2.791 1.969 8.1 1.54 10.406-.551.81-2.897 4.498-7.869 12.768-6.215 10.338-10.75 15.392-12.813 17.82-1.65 1.941-7.648 3.192-10.441 3.575-4.082-.036-10.165-4.573-11.567-7.642-1.401-3.07-.962-6.53.1-11.207 1.062-4.678 15.894-20.034 20.425-24.68 4.532-4.647 8.623-5.63 11.888-5.6 3.266.028 5.91 1.07 8.737 4.56Z" fill="#FFCD4D"/><path d="M112.774 57.046c2.318 2.558 2.621 8.725 2.482 11.489l-2.867 1.82-4.314 3.162c-.973 1.183-3.17 3.749-4.178 4.55-1.261 1.001-6.725 7.417-8.186 9.277-1.461 1.86-4.203 5.414-4.951 6.95-.599 1.228-.94 4.067-1.034 5.332-.84.611-2.833 1.821-4.099 1.785-1.582-.046-5.992.345-11.195-2.227-4.163-2.058-5.258-4.765-5.285-5.861-1.351-1.942-1.437-5.059.335-11.581 1.772-6.523 16.125-22.195 21.534-26.71 5.408-4.514 10.33-4.371 12.606-3.96 2.275.412 6.253 2.776 9.152 5.974Z" fill="#FFCD4D"/><path d="M112.774 57.046c2.318 2.558 2.621 8.725 2.482 11.489l-2.867 1.82-4.314 3.162c-.973 1.183-3.17 3.749-4.178 4.55-1.261 1.001-6.725 7.417-8.186 9.277-1.461 1.86-4.203 5.414-4.951 6.95-.599 1.228-.94 4.067-1.034 5.332-.84.611-2.833 1.821-4.099 1.785-1.582-.046-5.992.345-11.195-2.227-4.163-2.058-5.258-4.765-5.285-5.861-1.351-1.942-1.437-5.059.335-11.581 1.772-6.523 16.125-22.195 21.534-26.71 5.408-4.514 10.33-4.371 12.606-3.96 2.275.412 6.253 2.776 9.152 5.974Z" fill="#FFCD4D"/><path d="M95.36 46.007c2.14 2.541 2.885 7.503 2.99 9.666l-2.546 1.053c-.858.68-2.753 2.147-3.47 2.577-.716.43-4.714 5.029-6.623 7.274-1.527 2.07-4.87 6.621-6.024 8.279-1.154 1.657-2.186 4.585-2.558 5.842-.51 1.676-1.537 5.309-1.57 6.435-.032 1.126.44 2.173.681 2.555-.694.826-3.088 2.447-7.109 2.33l-6.282-.181c-2.808-.307-4.471-1.914-4.952-2.68-2.221-1.472-4.085-6.597-5.454-11.427-1.37-4.83-.769-8.193.35-12.105 1.12-3.912 6.357-11.086 8.44-13.561 2.084-2.476 6.486-6.856 10.847-9.83 4.362-2.973 8.633-2.849 12.403-2.74 3.769.11 8.202 3.337 10.877 6.513Z" fill="#FFCD4D"/><path d="M99.229 70.199c1.254-.837 2.352-2.7 2.744-3.528 0-.436-.157-1.62-.784-2.875-.784-1.568-1.96-2.875-4.05-3.529-2.092-.653-4.313.131-8.364 0-4.051-.13-4.835-.914-6.926-3.92-2.09-3.005.915-8.232.915-10.585 0-2.352-2.744-5.357-7.057-6.795-3.45-1.15-9.452.48-12.022 1.438l-2.352 1.83c-.392.87-1.516 3.266-2.875 5.88-1.699 3.267-5.358 3.267-8.494 6.272-3.136 3.005-4.05 5.62-5.619 7.58-1.568 1.96-1.307 6.794-1.437 7.056-.131.261 1.045 4.443 1.437 5.75.392 1.306 1.568 4.965 3.659 6.01 2.09 1.046 2.09.131 3.006 0 .914-.13 2.613-1.437 4.181-1.045 1.255.314 1.655 2.222 1.699 3.136-.044.61-.261 1.83-.784 1.83-.653 0-1.438 2.09-.915 3.136.523 1.045.654 2.614 2.744 2.221 2.091-.392-.13-2.09.523-4.312.654-2.221 4.312-1.437 7.057-1.045 2.744.392 4.181-1.176 5.096-1.83.915-.653 1.568 0 2.221.654.654.653-.392 3.267 1.7 5.357 2.09 2.091 2.874 1.569 4.834 1.569 1.568 0 2.309-1.046 2.483-1.569 1.699-1.045.261-1.437.915-2.09.653-.654 1.437-3.137 2.09-3.92.654-.785 2.876-3.66 3.92-5.097.837-1.15 2.614-3.79 3.398-4.966.61.044 2.222-.026 3.79-.653 1.96-.784 1.699-.915 3.267-1.96Z" fill="#EBC054" fill-opacity=".69" stroke="#9F6711" stroke-opacity=".04" stroke-width=".261"/><path d="M119.615 91.108c.94-2.196 3.615-3.18 4.835-3.398.784-.261 2.587-.627 3.528 0 1.176.784 1.176 1.176 2.221 3.136 1.046 1.96 1.96 3.398 4.051 4.574 2.091 1.176 3.79 1.83 5.75 2.221 1.96.392 6.142 3.006 7.449 4.574 1.045 1.254.958 3.31.784 4.182-.175 1.742-.497 5.383-.392 6.011.13.784.392 3.005 1.306 4.704.915 1.699 0 2.222.392 3.006.314.627.741.522.915.392.627.104.784-1.438.784-2.222a46.896 46.896 0 0 0-2.091-2.875c-1.045-1.306-.522-4.704-.392-7.318.131-2.613-.522-4.051-.522-5.488 0-1.15-3.398-3.528-5.097-4.574-1.481-.479-5.148-1.75-7.971-3.005-3.528-1.568-4.574-4.966-5.488-7.318-.732-1.882-4.748-3.398-6.665-3.92-1.045-1.046-2.744-.392-5.358 0-2.09.313-2.613-1.09-2.613-1.83-.653-.784.653-3.005 0-4.312-.653-1.307-3.267-.653-4.704 0-1.438.653-2.483 3.267-5.227 6.142-2.745 2.875-5.489 8.232-6.012 9.408-.522 1.176-.13 1.83 0 3.398.131 1.568.523 1.437 1.307 3.005.784 1.569-.653 2.222-.784 3.006-.13.784.523 1.568 1.307 1.829.627.21.697-.435.653-.784-.174-.13-.549-.522-.653-1.045-.131-.653 1.045-.784 2.613-.784 1.569 0 1.961-2.483 2.353-3.79.392-1.306.914-.914 1.437-.784.523.131.653.654.915 1.7.261 1.044.784 2.874 2.091 3.658 1.306.784 2.613-.392 3.397-.784.784-.392 1.699-3.79 2.614-5.227.914-1.438 2.09-2.744 3.267-5.489Z" fill="#EABA54" fill-opacity=".63" stroke="#9F6711" stroke-opacity=".04" stroke-width=".261"/><path d="M78.799 87.948c1.42.797 3.496.332 4.357 0-.484.332-1.646 1.03-2.42 1.162-.969.166-3.067-.166-5.004-2.158-1.936-1.992-1.13-6.308-2.259-8.3-1.13-1.993-3.227-.83-2.42-1.495.645-.53 1.667-.221 2.097 0 1.023.554 2.97 2.026 2.582 3.487-.484 1.826 1.292 6.308 3.067 7.304Z" fill="#EEDA95" fill-opacity=".41" stroke="#9F6711" stroke-opacity=".02" stroke-width=".261"/><path d="M67.418 45.235c1.044-1.432 5.876-2.8 8.162-3.304 1.045-.252 3.918.078 5.224.275-1.47.322-4.832 1.267-6.53 2.478-1.698 1.212-2.197 4.726-2.235 6.332-.96 2.627-6.482 5.327-10.825 7.158-4.57 1.928-5.877 11.013-5.224 14.592.653 3.579 6.04 6.057 5.224 5.919-.816-.138-5.713-.826-8.978-2.34-3.265-1.514-5.224-5.644-5.387-9.223-.163-3.58.653-4.956 1.795-7.434 1.143-2.477 6.04-5.093 8.49-6.056 1.958-.771 6.148-3.166 7.998-4.268.327-.78 1.24-2.698 2.286-4.13Z" fill="#EECA75"/><path d="M72.152 50.603a2.453 2.453 0 0 1-.113.413m0 0c-.96 2.627-6.482 5.327-10.825 7.158-4.57 1.928-5.877 11.013-5.224 14.592.653 3.579 6.04 6.057 5.224 5.919-.816-.138-5.713-.826-8.978-2.34-3.265-1.514-5.224-5.644-5.387-9.223-.163-3.58.653-4.956 1.795-7.434 1.143-2.477 6.04-5.093 8.49-6.056 1.958-.771 6.148-3.166 7.998-4.268.327-.78 1.24-2.698 2.286-4.13 1.044-1.43 5.876-2.798 8.162-3.303 1.045-.252 3.918.078 5.224.275-1.47.322-4.832 1.267-6.53 2.478-1.698 1.212-2.197 4.726-2.235 6.332Z" stroke="#000" stroke-opacity=".02" stroke-width=".261"/><path d="M97.91 65.257c.748-.622 2.185-2.308 1.946-4.073-.3-2.206-1.796-4.752-3.443-4.922-1.646-.17-3.742 2.037-8.83 1.019-3.708-.742-7.117-3.604-8.715-5.306a31.71 31.71 0 0 0-.416-.465c.12.142.26.298.416.465 1.473 1.673 4.036 4.88 5.122 7.342 1.497 3.394 3.293 6.28 2.245 10.013-1.048 3.734 1.048-4.073 4.34-6.11 3.294-2.036 7.335-2.036 5.838 0a58.043 58.043 0 0 1-2.844 3.565l4.341-1.528Z" fill="#EECA75"/><path d="M97.91 65.257c.748-.622 2.185-2.308 1.946-4.073-.3-2.206-1.796-4.752-3.443-4.922-1.646-.17-3.742 2.037-8.83 1.019-4.072-.815-7.784-4.187-9.131-5.77 1.347 1.47 4.34 5.09 5.538 7.806 1.497 3.394 3.293 6.28 2.245 10.013-1.048 3.734 1.048-4.073 4.34-6.11 3.294-2.036 7.335-2.036 5.838 0a58.043 58.043 0 0 1-2.844 3.565l4.341-1.528Z" stroke="#9F6711" stroke-opacity=".02" stroke-width=".261"/><path d="M89.428 94.768c1.568.732 3.354.305 4.051 0-.261.348-1.045 1.124-2.09 1.437-1.046.314-2.266-.13-2.745-.392-.74-.479-2.352-1.777-2.875-3.136-.523-1.359-.218-3.093 0-3.79.044.523.235 1.856.653 3.006.523 1.437 1.046 1.96 3.006 2.875Zm21.039-14.743c.941-.522 2.048-.218 2.483 0l.784.915c-.653.087-2.483.601-4.573 1.96-2.614 1.699-4.705 6.142-6.273 8.363-1.254 1.778-1.132 5.968-.915 7.841-.348-.305-1.097-1.28-1.306-2.744-.262-1.83.392-3.398 1.306-5.88.915-2.484 1.961-3.137 4.182-6.012 2.222-2.875 3.136-3.79 4.312-4.443Zm4.94 6.731c1.039-1.28 4.436-2.772 6.004-3.359h2.596c1.298 0 2.056.426 2.272.64-.271.053-1.428.32-3.894.96-3.083.8-5.517 4.159-8.276 8.158-2.206 3.2-1.893 7.198-1.46 8.798-.595 0-2.077-.288-3.245-1.44-1.461-1.44-.163-3.519 1.46-7.358 1.623-3.84 3.245-4.8 4.543-6.399Zm9.345 3.47c1.248-1.311 3.871-2.46 5.026-2.869.694-.27 2.138.844 2.774 1.434-.289-.068-1.11-.163-2.08 0-1.213.206-4.333 3.28-7.453 7.173-2.496 3.115-5.662 8.948-6.933 11.476 0-.342.208-1.763 1.04-4.714 1.04-3.688 1.387-3.483 3.467-6.762 1.664-2.623 3.466-4.918 4.159-5.738Z" fill="#EECA75" stroke="#9F6711" stroke-opacity=".01" stroke-width=".261"/><path d="M100.09 69.353c2.449-.792 5.237-2.641 6.326-3.466v.495c-.204.33-1.061 1.287-2.857 2.476-2.245 1.485-5.306 2.31-5.714 2.64-.408.33-2.04 2.807-2.857 5.118-.816 2.31-5.101 6.272-6.326 8.418-.98 1.717-.408 4.677 0 5.942-.272-.825-.938-2.905-1.428-4.621-.612-2.146.612-3.962 2.653-5.613 2.04-1.65 1.836-3.301 3.673-6.437 1.836-3.136 3.469-3.962 6.53-4.952Z" fill="#EECA75"/><path d="M100.145 63.666c1.361-.97 4.794-5.957 6.34-8.33l1.238-1.211c0 .404-1.238 3.18-1.238 3.18-1.237 1.969-6.34 7.875-8.35 9.844-2.011 1.969-6.806 4.089-12.683 9.541-5.876 5.452-7.268 10.298-9.124 16.053a712.823 712.823 0 0 1-2.32 7.118v-1.363c.413-2.02 1.268-6.39 1.392-7.724.155-1.665 1.856-4.694 3.557-7.723 1.701-3.03 4.33-6.664 6.496-8.33 2.165-1.666 2.938-3.635 6.65-4.998 3.711-1.362 6.34-4.846 8.042-6.057Z" fill="#B6863D" stroke="#000" stroke-opacity=".01" stroke-width=".261"/><path d="m113.082 74.4 6.15-6.683.033 1.56c-.556.947-3.027 4.12-8.455 9.228-6.786 6.385-8.118 10.314-9.948 13.005-1.465 2.153-6.664 7.163-9.081 9.398.041-.521.247-1.69.74-2.2.615-.637 1.997-2.226 3.389-3.348 1.392-1.122 3.835-4.606 5.963-8.084a51.587 51.587 0 0 1 6.736-8.724 62.597 62.597 0 0 1 4.473-4.152Z" fill="#B5863D" stroke="#000" stroke-opacity=".01" stroke-width=".261"/><path d="M126.671 86.878c1.255-1.622 2.875-3.17 3.528-3.743h.784l-.392.624c-.653.156-2.875 3.119-4.312 4.99-1.437 1.87-4.312 4.99-6.011 7.172-1.699 2.183-1.438 3.43-1.96 4.834-.523 1.403-3.659 6.392-4.313 7.172-.522.624-2.657 2.027-3.658 2.65.609-.467 2.326-2.089 4.312-4.833 2.483-3.43 3.267-6.393 4.181-8.576.915-2.183 1.961-3.274 3.659-4.833 1.699-1.56 2.614-3.43 4.182-5.457ZM81.98 50.596c1.568-.94 5.619-3.615 7.448-4.835l3.398-.784c-1.133.697-4.313 2.666-7.971 4.966-4.574 2.875-7.449 6.926-8.756 8.363-1.306 1.438-6.403 5.88-8.624 7.71-2.222 1.83-4.835 6.926-6.403 13.59-1.255 5.332-4.27 8.669-5.62 9.67.392-.87 1.49-3.45 2.745-6.795 1.568-4.181 1.568-6.795 2.874-9.54 1.307-2.743 3.66-6.533 6.404-8.754 2.744-2.222 6.795-6.404 8.624-8.364 1.83-1.96 3.92-4.05 5.88-5.227Z" fill="#B6863D" stroke="#000" stroke-opacity=".01" stroke-width=".261"/><path d="M118.308 81.83c1.15-1.046 5.706-3.572 7.84-4.704l.784.26c-.392.306-1.646 1.203-3.528 2.353-2.352 1.437-3.659 3.267-5.096 3.92-1.438.654-5.227 6.926-7.318 10.193-1.673 2.614-4.704 8.145-6.011 10.585-4.051 6.664-3.659 4.965-3.136 4.573.522-.392.522-1.829 2.613-4.965s3.136-6.795 4.574-9.278a194.123 194.123 0 0 1 4.966-8.102c1.698-2.614 2.874-3.528 4.312-4.835Z" fill="#B5863D" stroke="#000" stroke-opacity=".01" stroke-width=".261"/><path d="m125.103 106.525 64.815 39.334-.13.13-.392 1.307-.131.915v.653l.261.915-3.397-1.96-9.801-6.011-8.755-5.358-19.732-11.891-6.665-4.051-18.948-11.5c.218-.174.732-.601 1.045-.915.314-.313 1.351-1.176 1.83-1.568Z" fill="#F0C178"/><path d="M66.356 69.611c.941-1.15 1.96-.48 2.352 0v-3.528c0-.871-.47-2.823-2.352-3.66-2.352-1.044-4.05-1.567-5.358-1.306-1.306.262 0 2.352-4.573 4.966-3.66 2.09-5.88 1.916-6.534 1.568l-7.71 12.414c-.261 1.481-.627 5.097 0 7.71.627 2.614 2.527 3.354 3.398 3.398l1.306 3.136c.262 3.136 1.229 9.983 3.006 12.283 1.777 2.3 8.145 6.883 11.107 8.886 4.574 3.137 13.59 2.875 20.909 10.977 7.318 8.102 3.92 10.977 0 16.727-3.92 5.749-17.119 8.886-21.954 5.227-4.835-3.659-21.43-6.795-32.408-10.977-10.976-4.182-47.043 1.045-57.497 10.977-10.454 9.931-4.704 17.249 3.136 17.249s14.113 3.136 27.18 0c13.068-3.136 8.887 5.75 14.636 7.84 5.75 2.091-8.363 13.591-14.635 19.863-6.273 6.273-4.182 9.409 0 10.454 4.181 1.046 8.363-.522 8.886-5.749.522-5.227 4.181-8.364 9.931-16.727 5.75-8.363 18.817-4.704 30.709 0s35.936 13.59 60.764 12.022c24.829-1.568 29.794-5.75 33.453-16.726 3.659-10.977-47.043-9.932-51.225-18.818-3.345-7.108 1.394-9.234 4.182-9.408 5.75-3.659 6.534-7.318 6.011-13.852-.418-5.227-11.674-12.98-17.25-16.204-2.09-3.972-20.472-9.496-29.401-11.761-4.574-2.352-6.534-6.272-6.534-9.278 0-2.404 3.136-6.228 4.704-7.84 2.222-1.176 1.96-.915 2.875-4.966.915-4.05.654-2.744 2.483-4.443 1.83-1.699-.523-4.312 1.045-5.488 1.569-1.176 2.353.261 3.79-.654 1.438-.914.392-2.874 1.568-4.312Z" fill="#FFCD4D" fill-opacity=".63" stroke="#9F6711" stroke-opacity=".04" stroke-width=".261"/></g><rect x="2.796" y="2.296" width="164.408" height="164.408" rx="82.204" stroke="#FFCD4D" stroke-width="4.592"/><defs><clipPath id="a"><rect x=".5" width="169" height="169" rx="84.5" fill="#fff"/></clipPath></defs></svg>