<svg width="260" height="35" fill="none" xmlns="http://www.w3.org/2000/svg" viewBox="0 0 260 35"><path d="m0 .006.339 19.788c.559.929 1.613 1.176 2.67 1.302 1.912.218 3.499 1.69 4.05 3.747.385 1.458 1.32 2.44 2.328 2.44 1.146 0 2.03-1.21 2.37-3.234.6-3.563 1.81-5.689 3.244-5.689 1.415 0 2.696 2.038 3.257 5.2.773 4.333 2.19 7.131 3.615 7.131.634 0 1.538-.571 2.203-3.297a54.91 54.91 0 0 0 .348-1.496c.586-2.58 1.011-4.445 2.399-4.445l.082.006c.215.009.416.043.608.077.206.034.404.068.586.068a1.281 1.281 0 0 0 1.064-.552c.343-.499.75-.76 1.165-.76.443 0 .89.29 1.26.818.96 1.384 1.936 2.11 2.821 2.11.94 0 1.767-.818 2.384-2.377 1.116-2.808 2.849-4.551 4.528-4.551 1.959 0 3.32 2.43 3.551 6.337.235 4.126 1.935 6.348 3.419 6.348 1.205 0 2.614-1.487 2.944-5.67.45-5.698 1.513-8.671 3.25-9.087a5.709 5.709 0 0 1 1.285-.165c1.346 0 2.253.707 2.938 2.295.928 2.155 2.43 3.495 3.922 3.495 1.246 0 2.363-.915 3.147-2.575.894-1.908 2.145-3.002 3.428-3.002 1 0 1.906.663 2.626 1.913 1.28 2.241 2.316 3.825 4.023 3.825.046 0 .091-.006.142-.006.06-.005.119-.005.178-.005 1.397 0 2.329.843 3.037 2.731.846 2.266 1.944 3.462 3.172 3.462.932 0 1.893-.663 2.866-1.98.169-.247.33-.493.485-.731.53-.823.983-1.53 1.688-1.927.312-.17.593-.257.872-.257.356 0 .641.14.918.276.24.121.47.233.716.233h.064c.347-.024.622-.194.916-.368.117-.072.24-.145.37-.208.28-.14.586-.218.883-.218.708 0 1.276.407 1.562 1.118.324.814.446 2.048.546 3.902.26 4.774 2.09 6.91 3.789 6.91 1.707 0 3.579-2.136 3.913-6.9.127-1.883.559-1.99 1.505-2.227.281-.073.604-.15.954-.29 1.746-.408 2.973-1.26 3.744-2.6.86-1.512 1.95-2.378 2.991-2.378 1.091 0 1.961.925 2.385 2.532.171.644.313 1.235.446 1.772.574 2.358.918 3.781 2.189 3.873.05.005.101.005.15.005 1.019 0 1.357-.78 2.02-2.329.092-.213.188-.445.299-.687.465-1.075 1.208-1.695 2.039-1.695.543 0 1.082.262 1.569.75.576.587 1.157.886 1.718.886.603 0 1.168-.343 1.686-1.016.938-1.23 1.695-1.777 2.453-1.777.399 0 .703.088.948.225 1.131.628 1.081 1.696 2.654.969.593-.274 1.06-.642 1.863-.642 1.772 0 2.35 1.591 2.533 2.962.419 3.104 1.685 5.108 3.228 5.108 1.53 0 2.845-1.836 3.516-4.737.552-2.39 1.551-3.425 2.916-3.425.521 0 1.081.203 1.654.605.901.634 1.605.93 2.221.93.748 0 1.375-.45 1.912-1.37 1.211-2.049 2.83-3.225 4.442-3.225 3.611 0 4.243 3.864 4.799 7.272.454 2.803.888 5.452 2.942 5.452 2.717 0 3.208-3.598 3.682-7.074.438-3.23.856-6.274 2.897-6.541.073-.01.151-.014.232-.014 1.082 0 2.17.885 2.898 2.367.185.378.356.75.513 1.104.745 1.655 1.333 2.963 2.895 3.002 1.115 0 2.018-1.347 2.756-4.12.584-2.189 1.736-3.448 3.165-3.448 1.141 0 2.347.828 3.39 2.33 1.695 2.44 3.04 3.945 4.483 3.945.735 0 1.477-.401 2.266-1.23.767-.803 1.531-1.21 2.285-1.21.785 0 1.555.45 2.287 1.341.919 1.119 1.845 1.661 2.827 1.661.945 0 1.936-.494 3.037-1.51 1.008-.857 1.942-1.288 2.782-1.288 3.018 0 4.409 5.539 5.045 10.192.428 3.113 1.908 4.222 3.15 4.222 1.246 0 2.365-1.026 2.715-2.503 1.057-4.406 2.836-6.372 5.762-6.372.553 0 1.161.073 1.802.223.967.218 1.791.324 2.521.324 1.972 0 3.279-.789 3.986-2.406 1.129-2.595 2.469-5.36 4.054-5.36.625 0 1.258.456 1.881 1.351.445.639.762 1.322 1.07 1.976.597 1.278 1.118 2.377 2.278 2.386.087-.009.178-.019.269-.019.553 0 1.214.242 1.234 1.41.105 5.35 2.283 7.247 4.119 7.247 3.83 0 3.727-6.541 3.69-9.005-.034-2.242.991-3.69 2.608-3.69.767 0 1.594.354 2.327.997.779.688 1.574 1.046 2.305 1.046.671 0 1.264-.31 1.674-.881.259-.358.438-.803.535-1.312L258.823 0 0 .006Zm10.007 17.32c-.227 1.394-.822 2.105-1.772 2.105-.553 0-1.2-.232-1.93-.692-2.468-1.544-3.539-4.333-3.219-5.655.077-.314.272-.687.764-.687.215 0 .467.068.743.208.788.387 1.325.566 1.81.6.04 0 .082.005.122.005.452 0 .846-.179 1.276-.392.181-.092.368-.14.55-.14.375 0 .725.198 1.02.566.671.832.907 2.362.636 4.081Zm217.898 3.267c-.125 1.544-.701 2.266-1.815 2.266-.301 0-.654-.054-1.072-.165a9.177 9.177 0 0 1-.789-.261l-.069-.024c-.418-.155-.643-.223-1.068-.223-.169 0-.374.015-.648.029a7.452 7.452 0 0 1-.552.024c-1.393 0-2.354-.411-2.778-1.186-.372-.678-.297-1.651.194-2.528.633-1.142 2.087-2.362 4.27-2.362.182 0 .365.005.552.023 1.217.117 2.221.625 2.897 1.472.641.804.96 1.875.878 2.935Z" fill="#202020"/></svg>