<svg opacity="0.65" width="24" height="25" viewBox="0 0 24 25" fill="none" xmlns="http://www.w3.org/2000/svg">
<path d="M15.75 2C14.475 2 13.375 2.85206 12.7 4.14232C13.825 5.45693 14.5 7.25843 14.5 9.32771C14.5 10.0337 14.425 10.6667 14.275 11.2996C14.75 11.5674 15.225 11.7622 15.75 11.7622C17.825 11.7622 19.5 9.57116 19.5 6.89326C19.5 4.21536 17.825 2.02434 15.75 2.02434V2ZM8.25 4.43446C6.175 4.43446 4.5 6.62547 4.5 9.30337C4.5 11.9813 6.175 14.1723 8.25 14.1723C10.325 14.1723 12 11.9813 12 9.30337C12 6.62547 10.325 4.43446 8.25 4.43446ZM20.125 12.1273C19.05 13.3689 17.575 14.1236 15.9 14.1723C16.575 15.0974 17 16.2172 17 17.4345V19.0412H22V15C22 13.7341 21.225 12.6386 20.125 12.103V12.1273ZM3.875 14.5618C2.775 15.0974 2 16.1929 2 17.4588V21.5H14.5V17.4588C14.5 16.1929 13.725 15.0974 12.625 14.5618C11.5 15.8521 9.975 16.6067 8.25 16.6067C6.525 16.6067 5 15.8277 3.875 14.5618Z" fill="#FFFFFF"/>
</svg>
