<svg opacity="0.65" width="24" height="25" viewBox="0 0 24 25" fill="none" xmlns="http://www.w3.org/2000/svg">
<path d="M12 2C6.475 2 2 6.36312 2 11.75C2 17.1369 6.475 21.5 12 21.5C17.525 21.5 22 17.1369 22 11.75C22 6.36312 17.525 2 12 2ZM12 4.4375C12.825 4.4375 13.6 4.65688 14.35 4.90063C13.825 5.38813 13.225 5.82687 13.325 6.26562C13.425 6.70438 15.05 6.5825 15.05 7.48438C15.05 8.1425 14 8.3375 14.725 9.09313C15.6 9.94625 13.125 11.4819 13.075 12.6031C13 14.6262 15.175 14.9675 16.9 14.9675C17.95 14.9675 18.225 15.455 18.15 16.04C16.8 17.9169 14.5 19.0869 11.975 19.0869C11.025 19.0869 10.15 18.8675 9.325 18.5506C9.875 17.4781 8.625 15.3575 7.45 14.675C6.875 14.1144 5.65 14.3337 4.95 14.0656C4.725 13.4075 4.5 12.7494 4.475 12.0181C4.55 11.8963 4.675 11.7987 4.875 11.7987C5.35 11.7987 6 12.725 6.35 12.6275C6.8 12.53 4.5 9.43437 5.575 8.825C6.075 8.5325 7.075 9.77563 6.75 8.435C6.45 7.19188 7.65 7.7525 8.4 7.43563C9.05 7.1675 9.525 6.43625 8.725 5.9975C8.575 5.92437 8.4 5.75375 8.175 5.53438C9.3 4.87625 10.6 4.46187 12 4.46187V4.4375ZM17.775 7.09437C18.225 7.63062 18.575 8.21562 18.875 8.84937V8.9225C18.775 9.09312 18.6 9.19062 18.325 9.45875C17.625 10.1412 17.525 8.94688 17.225 8.70312C16.9 8.41063 15.725 8.75187 15.575 8.38625C15.4 7.9475 16.825 7.3625 17.775 7.09437Z" fill="#FFFFFF"/>
</svg>
