<svg width="42" height="41" viewBox="0 0 42 41" fill="none" xmlns="http://www.w3.org/2000/svg"
    class="h-6 w-6">
    <circle cx="21.0049" cy="20.5049" r="20.5049" fill="#FBBF24"></circle>
    <path
        d="M29.4148 24.2396C30.4803 25.6631 30.7037 27.2105 30.0849 28.8819C29.4661 30.5532 28.2384 31.6495 26.4015 32.1707C25.5231 32.42 24.627 32.4298 23.7132 32.2001C22.7995 31.9704 22.0505 31.5357 21.4663 30.8961C19.3475 31.8426 17.3568 31.7962 15.4943 30.7571C13.6317 29.718 12.5125 28.0293 12.1366 25.691C11.2096 25.4651 10.4217 25.0199 9.7729 24.3555C9.12412 23.6911 8.6562 22.8531 8.36914 21.8415C7.90833 20.2176 8.27501 18.6969 9.46916 17.2794C10.6633 15.8619 12.0489 15.2457 13.626 15.431L16.3963 15.7667C16.6946 14.7904 17.2093 13.918 17.9404 13.1496C18.6716 12.3812 19.5354 11.8269 20.5319 11.4866L19.9427 9.41017C19.8445 9.06411 19.8764 8.74583 20.0385 8.45534C20.2005 8.16486 20.4546 7.97051 20.8007 7.87231C21.1467 7.7741 21.465 7.80603 21.7555 7.9681C22.046 8.13016 22.2403 8.38422 22.3385 8.73029L23.0184 11.1261C24.0864 11.1395 25.0287 11.3683 25.8451 11.8125C26.6615 12.2568 27.4546 12.9738 28.2245 13.9634L30.5405 13.3062C30.8865 13.208 31.2048 13.2399 31.4953 13.402C31.7858 13.5641 31.9801 13.8181 32.0783 14.1642C32.1765 14.5102 32.1446 14.8285 31.9825 15.119C31.8205 15.4095 31.5664 15.6038 31.2203 15.702L29.1439 16.2913C29.3778 17.318 29.3731 18.3404 29.1299 19.3587C28.8867 20.3769 28.428 21.2693 27.7539 22.0359L29.4148 24.2396ZM19.7839 28.0082C19.5799 27.2894 19.4415 26.5736 19.3687 25.8608C19.2958 25.148 19.2885 24.4381 19.3468 23.7313C18.8177 24.1978 18.2173 24.5911 17.5459 24.9111C16.8744 25.2311 16.1851 25.4626 15.4779 25.6058C15.7725 26.644 16.3042 27.3776 17.0732 27.8066C17.8421 28.2356 18.7457 28.3028 19.7839 28.0082ZM14.9707 22.298C15.8225 22.0563 16.5443 21.7364 17.1361 21.3384C17.7279 20.9403 18.4522 20.2745 19.3091 19.341L13.9508 18.7043C13.0882 18.6039 12.4312 18.7975 11.9799 19.2851C11.5286 19.7727 11.405 20.3759 11.6089 21.0947C11.8053 21.7868 12.1751 22.2284 12.7183 22.4194C13.2615 22.6104 14.0123 22.57 14.9707 22.298ZM25.495 28.9763C26.1605 28.7874 26.6335 28.4015 26.9139 27.8185C27.1943 27.2356 27.1563 26.7214 26.7998 26.2761L23.1025 21.4574C22.8384 22.4528 22.6875 23.4161 22.6497 24.3472C22.612 25.2784 22.6913 26.0901 22.8877 26.7822C23.137 27.6607 23.4808 28.2894 23.9191 28.6684C24.3575 29.0474 24.8828 29.15 25.495 28.9763ZM25.6149 19.3638C25.8056 19.022 25.9184 18.6088 25.9535 18.1243C25.9886 17.6397 25.9381 17.1579 25.8022 16.6787C25.5604 15.8268 25.0769 15.1874 24.3517 14.7604C23.6265 14.3334 22.8513 14.237 22.026 14.4711C21.5469 14.6071 21.117 14.8154 20.7364 15.096C20.3558 15.3766 20.0606 15.7048 19.8509 16.0808L23.3734 16.6344L25.6149 19.3638Z"
        fill="#78350F"></path>
</svg>