<svg width="25" height="26" fill="none" xmlns="http://www.w3.org/2000/svg" viewBox="0 0 25 26"><path d="M.86 11.656a.746.746 0 0 1-.663-.864A12.5 12.5 0 1 1 2.09 19.92a.746.746 0 0 1 .265-1.057c.374-.216.85-.086 1.093.272a10.935 10.935 0 1 0-1.694-8.163c-.08.425-.465.733-.894.684Z" fill="#181C2D"/><path d="M.86 11.656a.746.746 0 0 0-.843.69A12.5 12.5 0 1 0 10.04.744a.746.746 0 0 0-.56.933c.11.418.54.663.964.582a10.935 10.935 0 1 1-8.869 10.265c.019-.431-.286-.82-.715-.87Z" fill="#F7931A"/></svg>