<svg xmlns="http://www.w3.org/2000/svg" width="260" height="21" fill="none" viewBox="0 0 260 21"><path d="M129.6-12.296H.19L.527 6.363c.56.876 1.613 1.109 2.67 1.228 1.913.205 3.5 1.593 4.05 3.533.385 1.375 1.32 2.301 2.329 2.301 1.146 0 2.03-1.141 2.369-3.05.601-3.36 1.811-5.364 3.244-5.364 1.416 0 2.697 1.922 3.258 4.903.772 4.086 2.19 6.725 3.614 6.725.634 0 1.538-.54 2.203-3.11.128-.483.243-.958.349-1.41.586-2.433 1.01-4.191 2.398-4.191l.083.005c.214.009.416.04.608.073.206.032.403.064.586.064a1.318 1.318 0 0 0 1.063-.52c.343-.471.75-.718 1.165-.718.443 0 .89.274 1.26.772.96 1.305 1.936 1.99 2.822 1.99.94 0 1.766-.771 2.383-2.242 1.117-2.648 2.85-4.291 4.529-4.291 1.958 0 3.32 2.291 3.55 5.976.236 3.89 1.935 5.985 3.42 5.985 1.205 0 2.613-1.402 2.943-5.346.45-5.374 1.514-8.177 3.25-8.57A6.037 6.037 0 0 1 55.96.952c1.347 0 2.254.667 2.939 2.164.927 2.032 2.429 3.296 3.922 3.296 1.246 0 2.362-.862 3.147-2.428.894-1.8 2.144-2.83 3.427-2.83 1 0 1.906.625 2.626 1.803 1.28 2.114 2.317 3.606 4.024 3.606.045 0 .091-.004.141-.004.06-.005.119-.005.178-.005 1.397 0 2.33.794 3.037 2.575.847 2.137 1.945 3.264 3.173 3.264.931 0 1.892-.625 2.865-1.867.17-.233.33-.465.485-.69.53-.775.983-1.442 1.688-1.816.312-.16.594-.242.872-.242.357 0 .642.132.918.26.24.114.47.22.716.22h.064c.347-.023.622-.183.916-.347.118-.069.24-.137.37-.197.281-.132.586-.205.883-.205.708 0 1.276.383 1.562 1.054.325.768.446 1.931.546 3.68.26 4.501 2.091 6.515 3.79 6.515 1.707 0 3.578-2.014 3.912-6.506.128-1.776.56-1.877 1.505-2.1.282-.069.605-.142.954-.274 1.746-.384 2.973-1.187 3.745-2.452.859-1.425 1.95-2.242 2.99-2.242 1.091 0 1.961.873 2.386 2.388.17.607.313 1.164.445 1.67.575 2.224.919 3.566 2.189 3.653.051.005.101.005.151.005 1.018 0 1.357-.735 2.019-2.196.093-.201.189-.42.299-.648.466-1.014 1.209-1.598 2.039-1.598.543 0 1.082.246 1.57.707.576.553 1.156.836 1.718.836.602 0 1.167-.325 1.685-.96.938-1.159 1.695-1.675 2.454-1.675.398 0 .702.084.947.213 1.131.592 1.082 1.6 2.655.913.593-.258 1.06-.605 1.863-.605 1.771 0 2.349 1.5 2.532 2.793.419 2.926 1.685 4.817 3.229 4.817 1.529 0 2.844-1.732 3.515-4.467.553-2.254 1.552-3.23 2.916-3.23.521 0 1.081.192 1.654.57.901.599 1.605.877 2.221.877.749 0 1.376-.425 1.912-1.292 1.211-1.931 2.83-3.04 4.442-3.04 3.612 0 4.244 3.643 4.8 6.857.454 2.643.887 5.14 2.942 5.14 2.716 0 3.207-3.392 3.682-6.67.437-3.045.856-5.916 2.896-6.168.073-.008.151-.013.233-.013 1.082 0 2.17.835 2.898 2.232.184.356.355.708.512 1.041.745 1.561 1.334 2.794 2.896 2.83 1.114 0 2.018-1.269 2.756-3.885.583-2.063 1.735-3.25 3.164-3.25 1.141 0 2.347.781 3.391 2.196 1.694 2.301 3.04 3.721 4.482 3.721.735 0 1.477-.379 2.266-1.16.767-.757 1.532-1.14 2.285-1.14.785 0 1.555.424 2.288 1.264.918 1.055 1.845 1.566 2.827 1.566.945 0 1.936-.466 3.037-1.424 1.008-.808 1.941-1.215 2.781-1.215 3.018 0 4.409 5.223 5.046 9.61.427 2.936 1.907 3.982 3.149 3.982 1.247 0 2.366-.968 2.715-2.36 1.057-4.155 2.836-6.008 5.763-6.008.552 0 1.16.069 1.802.21.967.206 1.79.306 2.521.306 1.972 0 3.278-.744 3.985-2.27 1.129-2.446 2.47-5.053 4.054-5.053.626 0 1.259.429 1.881 1.273.445.603.762 1.247 1.07 1.863.598 1.206 1.119 2.242 2.278 2.25.087-.008.178-.018.27-.018.552 0 1.214.229 1.233 1.33.105 5.044 2.284 6.834 4.119 6.834 3.83 0 3.728-6.168 3.69-8.492-.033-2.114.992-3.48 2.608-3.48.767 0 1.595.334 2.327.941.779.648 1.575.986 2.305.986.671 0 1.264-.292 1.675-.83a2.99 2.99 0 0 0 .534-1.238l-.343-18.974-129.413.006ZM10.196 4.035C9.97 5.35 9.374 6.021 8.424 6.021c-.552 0-1.2-.22-1.93-.653C4.027 3.912 2.957 1.282 3.276.036c.078-.297.272-.648.765-.648.214 0 .466.064.743.196.787.365 1.324.534 1.809.566.04 0 .082.005.123.005.452 0 .846-.169 1.276-.37.18-.087.367-.132.55-.132.374 0 .725.187 1.019.534.672.784.908 2.227.636 3.848Zm217.898 3.081c-.124 1.456-.701 2.137-1.815 2.137-.301 0-.654-.05-1.071-.155a9.491 9.491 0 0 1-.79-.247l-.069-.022c-.418-.146-.643-.21-1.067-.21-.169 0-.375.013-.648.027a7.912 7.912 0 0 1-.552.022c-1.393 0-2.354-.387-2.778-1.118-.373-.639-.298-1.557.194-2.383.633-1.077 2.087-2.228 4.269-2.228.183 0 .365.004.553.022 1.216.11 2.22.589 2.897 1.388.64.759.96 1.768.877 2.767Z" fill="#FFCD4D"/></svg>