<svg width="283" height="24" fill="none" xmlns="http://www.w3.org/2000/svg" viewBox="0 0 283 24"><path fill-rule="evenodd" clip-rule="evenodd" d="M282.782 9.302V0H0l.152 8.392c.611.958 1.763 1.212 2.918 1.342 2.089.225 3.823 1.74 4.424 3.86.421 1.502 1.442 2.515 2.545 2.515 1.252 0 2.217-1.247 2.588-3.332.657-3.671 1.98-5.862 3.545-5.862 1.546 0 2.946 2.1 3.559 5.358.844 4.464 2.393 7.347 3.949 7.347.693 0 1.68-.589 2.407-3.397.14-.529.266-1.048.381-1.541.64-2.659 1.105-4.58 2.62-4.58l.09.006c.235.01.455.044.665.08l.028.004c.215.033.42.065.612.065a1.409 1.409 0 0 0 1.162-.569c.375-.513.819-.783 1.273-.783.484 0 .973.3 1.377.843 1.048 1.427 2.115 2.175 3.082 2.175 1.028 0 1.93-.843 2.605-2.45 1.22-2.892 3.112-4.688 4.947-4.688 2.14 0 3.627 2.504 3.88 6.529.257 4.25 2.114 6.54 3.735 6.54 1.317 0 2.856-1.532 3.216-5.842.493-5.87 1.654-8.933 3.552-9.362.526-.115.984-.17 1.403-.17 1.471 0 2.463.728 3.21 2.364 1.014 2.22 2.655 3.602 4.286 3.602 1.362 0 2.581-.943 3.438-2.654.977-1.965 2.343-3.092 3.745-3.092 1.092 0 2.083.683 2.87 1.97 1.398 2.31 2.53 3.94 4.395 3.94.024 0 .049 0 .074-.002l.081-.002c.065-.006.13-.006.194-.006 1.527 0 2.545.868 3.318 2.814.925 2.334 2.125 3.566 3.467 3.566 1.017 0 2.067-.683 3.13-2.04.176-.241.343-.483.505-.716l.025-.037.004-.006c.577-.845 1.072-1.57 1.84-1.98.341-.174.649-.264.954-.264.389 0 .7.145 1.002.285.262.124.513.24.783.24h.07c.365-.024.658-.188.967-.36l.034-.02c.128-.074.261-.15.404-.214.307-.144.64-.225.964-.225.774 0 1.394.42 1.707 1.153.355.838.487 2.11.597 4.02.284 4.918 2.284 7.118 4.139 7.118 1.866 0 3.911-2.2 4.276-7.108.139-1.939.61-2.05 1.641-2.294h.003l.076-.02a7.73 7.73 0 0 0 .966-.28c1.908-.42 3.249-1.297 4.091-2.679.94-1.556 2.131-2.45 3.268-2.45 1.192 0 2.142.954 2.606 2.61.15.532.279 1.03.4 1.491l.087.334.005.017c.625 2.42 1.002 3.88 2.387 3.973.055.006.11.006.164.006 1.113 0 1.482-.804 2.207-2.4l.096-.211c.072-.159.147-.325.23-.497.509-1.107 1.32-1.746 2.228-1.746.593 0 1.182.27 1.715.773.629.604 1.263.913 1.877.913.658 0 1.275-.354 1.842-1.047 1.024-1.268 1.852-1.831 2.68-1.831.435 0 .768.091 1.035.232.4.209.664.465.898.691.488.474.839.814 2.002.307.147-.064.287-.133.426-.202.473-.233.932-.46 1.61-.46 1.935 0 2.567 1.64 2.767 3.052.457 3.198 1.841 5.263 3.527 5.263 1.672 0 3.108-1.892 3.841-4.88.604-2.463 1.695-3.529 3.187-3.529.568 0 1.18.21 1.806.623.985.654 1.754.958 2.427.958.818 0 1.503-.464 2.089-1.412 1.323-2.11 3.092-3.322 4.853-3.322 3.946 0 4.636 3.98 5.244 7.493.496 2.887.97 5.616 3.214 5.616 2.969 0 3.505-3.706 4.023-7.288.478-3.327.936-6.464 3.165-6.739.08-.01.165-.015.254-.015 1.182 0 2.371.913 3.167 2.44.201.389.388.773.559 1.137h.001c.814 1.706 1.456 3.052 3.163 3.092 1.217 0 2.204-1.386 3.011-4.245.637-2.254 1.896-3.55 3.457-3.55 1.247 0 2.565.852 3.705 2.399 1.851 2.514 3.321 4.065 4.897 4.065.803 0 1.614-.414 2.476-1.267.838-.828 1.673-1.247 2.497-1.247.857 0 1.699.464 2.499 1.382 1.003 1.152 2.016 1.71 3.088 1.71 1.033 0 2.116-.508 3.319-1.555 1.101-.883 2.121-1.327 3.039-1.327 3.297 0 4.817 5.706 5.513 10.5.467 3.207 2.083 4.35 3.441 4.35 1.361 0 2.584-1.057 2.966-2.579 1.155-4.539 3.098-6.564 6.296-6.564.603 0 1.268.075 1.969.23 1.057.224 1.956.334 2.754.334 2.155 0 3.582-.813 4.355-2.48 1.233-2.673 2.698-5.521 4.429-5.521.683 0 1.375.469 2.055 1.391.471.638.811 1.318 1.138 1.973l.031.063c.653 1.317 1.222 2.449 2.489 2.459h.003c.094-.01.193-.02.291-.02.604 0 1.327.249 1.348 1.451.115 5.512 2.495 7.467 4.501 7.467 4.181 0 4.072-6.727 4.032-9.27l-.001-.007c-.037-2.31 1.083-3.802 2.849-3.802.839 0 1.743.364 2.543 1.028.851.708 1.72 1.077 2.519 1.077a2.25 2.25 0 0 0 1.829-.908c.174-.227.316-.49.423-.78ZM8.78 8.02c1.037 0 1.688-.733 1.936-2.17.296-1.77.039-3.347-.696-4.204-.321-.379-.704-.584-1.113-.584-.2 0-.403.05-.601.145-.47.22-.9.404-1.394.404a.75.75 0 0 1-.067-.003l-.068-.002c-.529-.035-1.116-.22-1.976-.619-.302-.144-.577-.214-.812-.214-.538 0-.75.384-.835.708-.349 1.361.82 4.235 3.518 5.826.796.474 1.504.713 2.108.713Zm238.024 3.531c1.217 0 1.847-.743 1.983-2.334a4.183 4.183 0 0 0-.959-3.023c-.739-.874-1.836-1.397-3.165-1.517a6.344 6.344 0 0 0-.604-.025c-2.384 0-3.973 1.258-4.665 2.435-.537.903-.618 1.906-.212 2.604.464.798 1.514 1.222 3.035 1.222.19 0 .394-.01.603-.025l.201-.01c.203-.011.367-.02.507-.02.464 0 .71.07 1.167.23l.075.024c.271.095.552.19.863.27.456.114.842.17 1.171.17Z" fill="#FFCD4D"/></svg>