<svg width="272" height="161" fill="none" xmlns="http://www.w3.org/2000/svg" viewBox="0 0 272 161"><path fill-rule="evenodd" clip-rule="evenodd" d="M252.515 133.461c-.403-.489-.885-.919-1.37-1.332-.533-.457-.779-.986-.633-1.686.443-2.12.738-4.285 1.355-6.352.923-3.086 1.564-6.164 1.331-9.411-.119-1.657.185-3.306.644-4.914.525-1.84 1.089-3.674 1.5-5.54.36-1.627.822-3.206 1.432-4.754.278-.709.509-1.45.642-2.198.415-2.325-.327-3.689-2.521-4.502a18.232 18.232 0 0 0-3.327-.878c-2.836-.472-5.69-.843-8.532-1.282-4.041-.623-8.079-1.266-12.115-1.92-.322-.052-.755.034-.97-.505.766-.307 1.518-.106 2.247-.057 5.674.384 11.345.828 17.022 1.153a35.81 35.81 0 0 0 5.736-.145c2.305-.24 3.231-1.302 3.465-3.593.143-1.396.204-2.8.353-4.195.173-1.61.121-3.194-.462-4.716-.775-2.02-.639-3.98.181-5.957.785-1.888 1.302-3.858 1.736-5.86.642-2.956.653-5.96.82-8.948.092-1.645-.766-2.494-2.158-2.647-1.461-.16-2.911-.416-4.369-.6-8.688-1.093-17.376-2.176-26.064-3.267-.687-.087-1.37-.211-1.994-.309l-1.853-3.842c1.828-3.03 2.583-6.242 2.004-9.734-.06-.362-.057-.77.049-1.117.914-2.953 1.206-5.996 1.334-9.06.034-.824.053-1.674-.105-2.476-.254-1.288-.266-2.481.351-3.696.339-.668.46-1.458.613-2.207.385-1.88.701-3.781.308-5.695-.158-.776-.094-1.502.004-2.266.236-1.833.561-3.675.559-5.514-.003-1.981.167-3.924.41-5.883.362-2.922.276-5.85-.443-8.698.818-1.282.946-2.692 1.118-4.084.203-1.644.494-3.295.19-4.953-.125-.678-.308-1.384-.642-1.977-.638-1.133-1.796-1.44-2.978-.916-.72.32-1.265.85-1.715 1.487-.785 1.114-1.27 2.354-1.516 3.687-.426 2.306-.294 4.566.657 6.74-2.044 3.115-2.229 6.34-.691 9.677-2.221 3.373-1.959 6.887-.661 10.534-2.954 3.522-3.116 7.463-1.461 11.537-.4.906-.811 1.701-1.109 2.537-1.032 2.88-1.209 5.862-.854 8.872.087.742.056 1.337-.397 1.964-1.03 1.427-1.514 3.074-1.766 4.801-.328 2.233-.302 4.447.323 6.628l-1.468 2.566c-.763-.09-1.455-.176-2.148-.25-16.141-1.724-32.274-3.534-48.427-5.143-15.199-1.514-30.416-2.852-45.63-4.197-11.587-1.024-23.183-1.93-34.773-2.902a714.753 714.753 0 0 0-28.314-1.799c-.426-.018-.848-.148-1.282-.227-.3-2.136-.835-4.093-2.131-5.83 1.81-3.174 2.654-6.367 2.077-9.863-.06-.363-.086-.774.021-1.116.868-2.764 1.172-5.613 1.32-8.484.045-.889.097-1.799-.035-2.67-.231-1.53-.368-3.004.404-4.441.235-.438.307-.97.42-1.468.45-2 .813-4.02.409-6.066-.167-.844-.107-1.632.032-2.456.425-2.52.729-5.05.487-7.616-.04-.436.017-.891.1-1.324.659-3.418.777-6.835.062-10.261-.063-.302-.144-.68-.02-.926 1.034-2.067 1.019-4.328 1.24-6.539.083-.816.022-1.66-.081-2.477-.157-1.243-.55-2.401-1.909-2.837-1.191-.382-2.409.199-3.404 1.575-.798 1.104-1.273 2.353-1.52 3.684-.43 2.31-.296 4.572.654 6.749-2.044 3.109-2.225 6.329-.681 9.708-.905 1.326-1.492 2.79-1.607 4.42-.12 1.671.022 3.312.546 4.913.135.414.246.838.364 1.243-2.992 3.583-3.033 7.477-1.434 11.461-.403.914-.813 1.71-1.112 2.547-1.028 2.88-1.209 5.862-.85 8.873.088.742.052 1.335-.401 1.963-.99 1.37-1.482 2.95-1.735 4.612-.348 2.293-.36 4.57.219 6.514l-2.277 5.824c-1.818-.05-3.665-.09-5.511-.15-4.15-.135-8.3-.285-12.45-.414a132.62 132.62 0 0 0-4.024-.043c-.646-.001-1.253.133-1.799.536-.97.716-1.97 1.395-2.958 2.089-1.881 1.32-3.773 2.624-5.636 3.968-.513.37-.992.818-1.388 1.31-.262.325-.524.81-.483 1.192.124 1.14-.256 2.134-.655 3.144-.406 1.026-.614 2.101-.42 3.189.185 1.038.004 2.022-.153 3.033-.135.874-.24 1.782-.152 2.654.09.903.12 1.784-.063 2.661-.398 1.911.328 3.407 1.78 4.547.843.661 1.837 1.134 2.772 1.675.427.248.876.455 1.377.712-.194.328-.284.574-.45.746-2.005 2.081-2.423 4.864-3.288 7.445-.136.407-.13.892-.077 1.327.137 1.104-.062 2.16-.328 3.217-.505 2.003-.671 4.012-.25 6.064a8.047 8.047 0 0 1-.184 3.974c-.254.85-.417 1.742-.504 2.628a20.247 20.247 0 0 1-1.026 4.661c-.426 1.228-.435 2.394.348 3.462.534.728.485 1.401.047 2.125-.865 1.431-.952 2.99-.864 4.62.131 2.426.028 4.851-.772 7.181-.378 1.103-.577 2.222-.546 3.381.028 1.047-.234 2.018-.711 2.942-.263.51-.492 1.038-.756 1.548-.54 1.044-.83 2.156-.73 3.323.144 1.675.05 3.31-.501 4.907-.062.179-.079.374-.108.564-.282 1.849.267 2.889 2.074 3.569 1.19.447 2.428.828 3.678 1.04 3.086.523 6.18 1.053 9.292 1.362 6.041.6 12.094 1.079 18.147 1.555 7.517.592 15.04 1.105 22.558 1.7 6.626.524 13.252 1.058 19.868 1.687 21.254 2.02 42.427 4.749 63.594 7.52 14.574 1.909 29.123 4.012 43.681 6.048 8.988 1.257 17.965 2.589 26.956 3.815 4.496.612 9.013 1.061 13.52 1.587.951.111 1.899.286 2.853.333 1.397.07 2.832.253 4.19.028 3.279-.547 6.447-1.517 9.512-2.852 1.839-.801 3.477-1.82 5.04-3.07 1.283-1.025 1.663-2.137 1.286-3.672a5.752 5.752 0 0 1-.135-2.081c.268-2.027.508-4.043.046-6.101.664-.537 1.277-.987 1.837-1.495 1.055-.959 1.29-1.983.705-3.283-.258-.573-.631-1.111-1.033-1.599ZM227.278 11.467c.094.75.145 1.516.108 2.27a16.617 16.617 0 0 1-.325 2.451c-.175.867-.437 1.715-.657 2.554l-3.138.273c-.062-.185-.22-.513-.281-.858a11.375 11.375 0 0 1 .152-4.722c.246-1.008.709-1.906 1.414-2.66.47-.504.967-1.11 1.777-.84.691.23.872.9.95 1.532Zm-2.02 20.759c-.486.315-.742-.128-1.082-.185-.438-.074-.873-.18-1.313-.22-.372-.032-.751.01-1.14.018-.059-.25-.156-.434-.139-.609.183-1.903.278-3.823.616-5.699.211-1.168.742-2.294 1.233-3.392.28-.626.714-1.218 1.594-1.434.197.24.54.484.634.801.213.728.411 1.49.428 2.242.063 2.872-.197 5.718-.831 8.478Zm2.079-24.267-2.565.045c-.478-2.076-.65-4.133-.166-6.205.204-.87.57-1.681 1.328-2.244.541-.402 1.149-.298 1.42.302.18.399.32.833.377 1.265.309 2.283.047 4.53-.394 6.837Zm-.701-27.407c.47-1.083.649-1.241 1.751-1.86.427.119.573.47.637.848.087.5.185 1.008.18 1.512-.017 2.1-.384 4.161-.668 6.235l-2.528.322c-.411-2.512-.34-4.827.628-7.057Zm-1.086 10.93c.369-.996.916-1.964 2.083-2.253.701.418.716 1.1.826 1.704.394 2.176.313 5.18-.135 6.762l-3.102-.362c-.544-1.911-.392-3.912.328-5.85Zm-4.853 44.46c.309-.67.833-1.278 1.37-1.799.643-.623 1.46-.503 1.957.248.309.467.576 1.008.683 1.55.146.74.2 1.518.157 2.27-.117 2.034-.813 3.945-1.22 5.966-.738-.195-1.332-.43-1.942-.49-.609-.06-1.235.056-1.967.101-.367-2.733-.184-5.356.962-7.845Zm3.283 12.58c-1.536.18-3.118.012-4.873-.522.215-.977.738-1.597 1.409-2.102.58-.437 1.169-.44 1.756.008.869.664 1.471 1.505 1.708 2.616Zm-5.911 2.535c2.28.038 4.327.42 6.401.633.552 1.204.174 2.33.062 3.432-.114 1.13-.259 2.267-.724 3.278-.181.073-.319.187-.406.156-1.684-.604-3.395-.986-5.289-.631-.523-2.29-.44-4.468-.044-6.868ZM216.58 61.43c.866.344.734 1.727 1.881 1.733.634-.964-.249-1.971.057-2.941 1.72-.61 2.637-.467 4.586.788l-.228 1.954c.695.01.695.01 1.481-.691.143.077.347.126.45.254.237.297.456.616.629.954 1.014 1.985.592 3.6-1.292 4.752-1.777 1.088-3.562 1.258-5.363-.034-.892-.64-1.762-1.28-2.299-2.253-.825-1.498-.986-3 .098-4.516ZM52.867 42.038c-1.655-.471-3.274-.508-4.864-.064-.684-1.584-.938-4.375-.59-6.432.348-.027.723-.113 1.084-.075 1.813.19 3.655.01 5.554.304.08 2.236-.455 4.218-1.184 6.267Zm4.026-46.763c-.061 1.967-.367 3.898-1.145 5.847-.656-.04-1.166-.123-1.665-.084-.423.034-.834.21-1.216.316-.564-.478-.43-1.103-.501-1.637a10.535 10.535 0 0 1 .268-4.149c.319-1.194.91-2.23 1.866-3.026.97-.808 1.776-.568 2.124.673a6.94 6.94 0 0 1 .269 2.06Zm-2.32 19.384c-1.078-.519-2.18-.984-3.392-.412-.208-2.77.31-6.688 1.104-8.65.359-.888.786-1.736 1.537-2.37.455-.386 1.014-.277 1.225.297.194.53.336 1.09.418 1.65.333 2.281-.112 6.96-.892 9.485Zm2.181-24.47-2.336.046c-.77-1.946-.836-5.116-.143-6.84.262-.652.595-1.26 1.2-1.668.444-.3 1.102-.185 1.305.304.216.517.37 1.074.456 1.628.24 1.532.019 4.34-.482 6.53Zm-.653-27.366c.266-.564.659-1.083 1.068-1.559.174-.202.54-.24.762-.33.63.456.641 1.062.683 1.618.178 2.368-.283 4.673-.672 7.1-.584.018-.968.012-1.347.047-.31.03-.615.108-.939.168-.475-.484-.335-1.094-.372-1.627-.13-1.86.008-3.702.817-5.417Zm-1.314 11.559c.379-1.272.9-2.524 2.365-2.937.63.459.67 1.124.779 1.736.36 2.031.298 5.08-.102 6.79l-3.11-.363c-.047-.187-.16-.53-.218-.883a9.65 9.65 0 0 1 .286-4.343Zm-4.852 44.36a7.348 7.348 0 0 1 1.288-2.086c.941-1.066 1.864-.9 2.546.38.206.387.371.82.435 1.25.103.688.175 1.395.137 2.087-.112 2.033-.782 3.948-1.29 6.172-1.376-.779-2.563-.744-3.844-.432-.349-2.57-.216-5.019.728-7.37Zm-.623 10.03c1.017-1.297 2.062-1.278 3.13.027 1.036 1.267 1.517 2.75 1.62 4.363-1.52.409-4.846.28-6.4-.252a7.852 7.852 0 0 1 1.65-4.138Zm-2.841 17.232c.064-.108.162-.199.221-.31.313-.587 1.056-.052 1.34-.465.269-.393.212-.967.793-1.21 1.134-.48 2.227-.421 3.428.091l.173 1.3 1.093-.17c1.875 2.627 1.205 5.377-1.622 6.641-1.52.68-3.087.87-4.593-.038-.416-.25-.87-.63-1.044-1.057-.648-1.602-.704-3.226.21-4.782ZM244.37 152.833c-2.788 1.108-5.588 2.185-8.551 2.75-2.339.445-4.65.469-7.035.081-10.786-1.758-21.58-3.472-32.392-5.062-13.342-1.963-26.689-3.903-40.06-5.648-22.372-2.921-44.735-5.936-67.203-8.062-7.063-.669-14.122-1.378-21.193-1.954-6.943-.563-13.898-.962-20.846-1.465-9.434-.684-18.881-1.203-28.282-2.281-2.73-.313-5.45-.724-8.169-1.119-.68-.099-1.409-.111-2.182-.769.57-.379.99-.651 1.401-.937.313-.219.635-.433.915-.69.379-.35.52-.943.297-1.199-.346-.394-.823-.369-1.236-.203-.53.21-1.012.535-1.52.802-.432.229-.87.446-1.455.745.073-.626.06-1.063.182-1.459.361-1.178.498-2.368.346-3.592-.18-1.445.115-2.787.846-4.046.915-1.577 1.42-3.251 1.36-5.107-.023-.749.221-1.507.354-2.259.309-1.757.67-3.508.917-5.273.123-.876.108-1.786.038-2.672-.102-1.305-.007-2.547.69-3.692.1-.162.172-.342.248-.518.461-1.061.53-2.117-.196-3.085-.606-.806-.59-1.597-.267-2.516.53-1.507.849-3.069 1-4.668.076-.822.232-1.65.467-2.44.466-1.571.507-3.15.189-4.734-.348-1.73-.236-3.43.181-5.12.308-1.248.442-2.493.381-3.788-.109-2.318.751-4.374 2.011-6.269.493-.74 1.108-1.401 1.623-2.13.84-1.186.654-2.143-.587-2.881-.6-.356-1.274-.586-1.91-.883-.928-.434-1.832-.904-2.532-1.687-.536-.6-.873-1.259-.718-2.086.238-1.268.181-2.53.046-3.81-.066-.615.061-1.265.182-1.883.21-1.07.39-2.127.198-3.224-.17-.968.038-1.898.414-2.802.467-1.121.872-2.264.731-3.58 1.892-1.795 4.06-3.175 6.462-4.352-.232.576-.44 1.164-.7 1.727a509.127 509.127 0 0 1-2.519 5.37c-.955 2.008-1.406 4.082-.996 6.314.21 1.14.106 2.281-.17 3.417a9.24 9.24 0 0 0-.27 2.08c-.016 1.8.753 3.215 2.315 4.132.711.42 1.47.774 2.241 1.067 1.551.59 3.128 1.111 4.69 1.676.641.232 1.27.502 2.109.837-.365.236-.544.387-.75.478-.699.309-1.438.54-2.107.904-1.403.761-2.343 1.917-2.843 3.455-.54 1.66-.739 3.369-.785 5.09-.049 1.81-.412 3.527-.986 5.239-.423 1.261-.624 2.597-.94 3.896a72.81 72.81 0 0 1-.764 2.953c-.176.61-.442 1.196-.636 1.802-.475 1.49-.315 2.897.596 4.194.074.104.133.22.216.316.927 1.077.925 2.109.046 3.264-1.698 2.23-2.273 4.855-2.146 7.584.089 1.911-.319 3.683-.975 5.41-.658 1.732-1.317 3.453-1.695 5.274a11.708 11.708 0 0 1-1.365 3.558 6.595 6.595 0 0 0-.547 1.219c-.72 2.131.058 4.152 2.068 5.158.79.394 1.665.688 2.533.84 4.847.846 9.694 1.697 14.559 2.434 27.936 4.232 56.018 7.355 84.035 10.972 14.517 1.875 29.029 3.782 43.546 5.649 15.152 1.95 30.326 3.707 45.533 5.172 8.462.817 16.918 1.686 25.384 2.448 4.581.412 9.179.645 13.769.97.86.061 1.74.016 2.614.264-.103.21-.128.373-.205.404Zm5.899-15.238c-1.105.794-1.487 1.844-1.311 3.169.1.754.167 1.524.13 2.282-.048.953-.28 1.898-.317 2.851-.036.945.072 1.897.117 2.859-1.061 1.188-2.47 1.275-3.875 1.348-.379.02-.763-.06-1.146-.098-16.984-1.666-33.975-3.267-50.95-5.023-11.317-1.171-22.618-2.502-33.912-3.87-28.302-3.425-56.594-6.929-84.894-10.365-14.785-1.793-29.556-3.691-44.3-5.803-3.606-.516-7.215-1.029-10.8-1.67-1.623-.291-3.198-.867-4.78-1.364-.41-.13-.796-.41-1.13-.695-.58-.495-.842-1.114-.495-1.876.105-.232.146-.499.276-.712 1.01-1.663 1.501-3.503 1.963-5.368.274-1.109.724-2.174 1.074-3.266.466-1.456.962-2.905 1.343-4.382.171-.663.14-1.392.12-2.088-.078-2.554.373-4.947 1.939-7.051 1.253-1.685 1.301-3.404.058-5.13-.186-.26-.35-.535-.526-.802-.414-.625-.49-1.3-.293-2.014.017-.062.023-.128.05-.184 1.488-3.085 1.43-6.592 2.687-9.748.518-1.3.658-2.717.712-4.134.05-1.272.197-2.544.37-3.807.302-2.218 1.624-3.538 3.772-4.06.619-.15 1.25-.25 1.879-.36.313-.053.635-.058.95-.11.73-.12 1.393-.389 1.567-1.19.173-.793-.297-1.361-.9-1.764-.687-.458-1.402-.904-2.162-1.217-1.534-.63-3.105-1.17-4.663-1.744-.958-.352-1.923-.688-2.877-1.05a14.05 14.05 0 0 1-1.22-.551c-1.24-.609-1.768-1.605-1.58-2.971.06-.442.116-.889.227-1.32a9.593 9.593 0 0 0 .164-3.989c-.271-1.632-.028-3.172.654-4.662.424-.928.856-1.853 1.256-2.792.875-2.052 1.79-4.089 2.568-6.178.353-.949.9-1.53 1.847-1.717.747-.148 1.514-.28 2.271-.273 2.364.022 4.727.105 7.09.18 3.065.095 6.13.199 9.195.314.886.033 1.77.12 2.691.184l.868 7.819c-.064.087-.24.35-.442.59-.924 1.104-1.46 2.39-1.785 3.772-.71 3.028.96 5.879 4 6.623 2.917.715 5.466-.102 7.47-2.321 1.7-1.88 1.848-4.858.475-7.155-.326-.543-.732-1.039-1.183-1.674.918-2.173 1.362-4.542 1.629-6.93.917-.348 1.748-.191 2.56-.15 2.298.118 4.595.237 6.89.415 7.9.613 15.803 1.215 23.7 1.887 11.654.994 23.304 2.037 34.955 3.074 6.239.555 12.478 1.118 18.713 1.72 9.67.932 19.343 1.851 29.005 2.865 13.921 1.462 27.835 3 41.751 4.513.746.081 1.513.098 2.181.36a37572 37572 0 0 0 .109 8.117c-.054.062-.239.32-.472.526-3.059 2.708-2.063 9.49 2.876 11.177 2.714.928 5.306.644 7.591-1.214 1.961-1.595 2.565-3.872 1.542-6.186-.483-1.094-1.228-2.071-2.018-3.37.222-.977.57-2.262.793-3.569.225-1.317.326-2.655.482-3.994.603-.436 1.245-.157 1.851-.081 7.738.962 15.474 1.94 23.211 2.919 1.776.224 3.551.458 5.324.7.558.077 1.111.197 1.743.311.008.455.052.827.016 1.191-.288 2.856-.449 5.735-1.305 8.5-.453 1.46-.986 2.896-1.493 4.338-.512 1.454-.959 2.924-.721 4.488.124.816.294 1.638.563 2.415.472 1.362.551 2.728.392 4.149-.155 1.393-.174 2.8-.301 4.198-.086.936-.363 1.304-1.291 1.37-1.844.13-3.705.263-5.545.16-5.488-.31-10.968-.745-16.452-1.103-1.784-.117-3.573-.2-5.36-.19-.879.006-1.768.212-2.632.414-.663.155-1.131.63-1.237 1.32-.109.706.273 1.242.832 1.61a5.86 5.86 0 0 0 1.367.677c1.21.404 2.421.837 3.664 1.105 2.185.472 4.386.89 6.596 1.222 4.74.716 9.494 1.338 14.234 2.055 1.257.19 2.504.512 3.717.897 1.136.361 1.381.876 1.116 2.06-.167.743-.449 1.46-.678 2.19-.286.913-.614 1.815-.85 2.739-.693 2.718-1.332 5.451-2.03 8.168-.369 1.434-.559 2.876-.493 4.355.02.446-.028.898.019 1.34.236 2.211-.207 4.337-.918 6.394-.904 2.617-1.262 5.33-1.685 8.039-.231 1.471.196 2.609 1.373 3.533.849.665 1.646 1.41 1.878 2.475-.307.733-.927.994-1.434 1.358Z" fill="#FFCD4D"/><path fill-rule="evenodd" clip-rule="evenodd" d="M249.825 133.762c-1.177-.924-1.604-2.062-1.373-3.533.423-2.709.781-5.422 1.685-8.039.711-2.057 1.154-4.183.918-6.394-.047-.442.001-.894-.019-1.34-.066-1.479.124-2.921.493-4.355.698-2.717 1.337-5.45 2.03-8.168.236-.925.564-1.826.85-2.739.229-.73.511-1.447.678-2.19.266-1.184.02-1.699-1.116-2.06-1.213-.385-2.46-.708-3.717-.897-4.74-.717-9.494-1.34-14.234-2.055-2.21-.333-4.411-.75-6.596-1.222-1.243-.268-2.454-.7-3.664-1.105a5.856 5.856 0 0 1-1.367-.676c-.559-.37-.941-.906-.832-1.611.106-.69.574-1.165 1.237-1.32.864-.202 1.753-.408 2.631-.413 1.788-.01 3.577.072 5.361.189 5.485.358 10.964.793 16.452 1.103 1.84.103 3.701-.03 5.545-.16.928-.066 1.205-.434 1.291-1.37.127-1.397.146-2.805.301-4.198.159-1.42.08-2.787-.392-4.149-.269-.777-.439-1.6-.563-2.415-.238-1.564.209-3.034.721-4.488.507-1.442 1.04-2.878 1.493-4.338.856-2.765 1.017-5.644 1.305-8.5.036-.364-.008-.736-.016-1.19-.632-.115-1.185-.235-1.743-.312a518.587 518.587 0 0 0-5.324-.7c-7.737-.979-15.473-1.957-23.211-2.92-.606-.075-1.248-.354-1.851.082-.156 1.34-.257 2.677-.482 3.994-.223 1.307-.571 2.591-.793 3.569.79 1.299 1.535 2.276 2.018 3.37 1.023 2.314.419 4.591-1.542 6.186-2.285 1.858-4.877 2.142-7.591 1.214-4.939-1.687-5.935-8.47-2.876-11.177.233-.205.418-.465.472-.526l-.109-8.117c-.668-.262-1.435-.279-2.181-.36-13.916-1.512-27.83-3.051-41.751-4.513-9.662-1.014-19.335-1.933-29.005-2.866a2538.4 2538.4 0 0 0-18.713-1.719c-11.651-1.037-23.301-2.08-34.955-3.074-7.897-.672-15.8-1.274-23.7-1.887-2.295-.178-4.592-.297-6.89-.414-.812-.043-1.643-.199-2.56.15-.267 2.387-.71 4.755-1.63 6.929.453.635.858 1.13 1.183 1.674 1.374 2.297 1.226 5.274-.473 7.155-2.005 2.22-4.554 3.036-7.47 2.322-3.042-.745-4.711-3.596-4.001-6.624.324-1.382.861-2.668 1.785-3.771.202-.241.378-.504.442-.591l-.868-7.819c-.92-.064-1.804-.15-2.69-.184-3.066-.115-6.13-.219-9.196-.314-2.363-.075-4.727-.159-7.09-.18-.757-.007-1.524.125-2.27.273-.948.187-1.495.768-1.848 1.717-.778 2.089-1.693 4.126-2.568 6.178-.4.939-.832 1.864-1.256 2.792-.683 1.49-.925 3.03-.654 4.662a9.595 9.595 0 0 1-.164 3.99c-.11.43-.167.877-.228 1.319-.187 1.366.34 2.362 1.581 2.97.4.198.803.394 1.22.552.954.362 1.92.698 2.877 1.05 1.558.574 3.13 1.113 4.663 1.744.76.313 1.475.759 2.162 1.217.603.403 1.073.97.9 1.763-.174.802-.837 1.071-1.567 1.191-.315.052-.637.056-.95.11-.629.11-1.26.21-1.879.36-2.148.522-3.47 1.842-3.773 4.06-.172 1.263-.32 2.535-.369 3.807-.054 1.417-.194 2.834-.712 4.134-1.258 3.156-1.199 6.663-2.687 9.748-.027.056-.033.122-.05.184-.198.715-.121 1.388.294 2.014.176.267.339.542.525.801 1.244 1.727 1.195 3.446-.058 5.13-1.566 2.105-2.017 4.498-1.94 7.052.021.696.052 1.425-.118 2.087-.381 1.478-.878 2.927-1.344 4.382-.35 1.093-.8 2.158-1.074 3.267-.462 1.865-.954 3.705-1.963 5.368-.13.213-.17.48-.276.712-.347.762-.085 1.381.495 1.876.334.285.72.565 1.13.695 1.582.497 3.157 1.073 4.78 1.364 3.585.641 7.194 1.154 10.8 1.67 14.744 2.111 29.515 4.01 44.3 5.803 28.3 3.436 56.593 6.94 84.894 10.365 11.294 1.368 22.595 2.699 33.912 3.87 16.975 1.756 33.966 3.357 50.95 5.023.383.038.767.118 1.146.098 1.405-.073 2.814-.16 3.875-1.348-.045-.962-.153-1.914-.117-2.859.037-.953.269-1.898.317-2.852.037-.757-.03-1.527-.13-2.281-.175-1.325.206-2.375 1.311-3.169.507-.364 1.127-.625 1.434-1.358-.232-1.065-1.029-1.81-1.878-2.475Z" fill="#FFCD4D"/><path fill-rule="evenodd" clip-rule="evenodd" d="M224.47 51.69c-2.074-.214-4.121-.595-6.401-.633-.396 2.4-.479 4.577.044 6.867 1.894-.354 3.605.027 5.289.631.087.032.225-.082.406-.156.465-1.01.61-2.148.724-3.278.112-1.102.49-2.228-.062-3.43ZM48.498 35.467c-.362-.038-.737.048-1.086.075-.347 2.057-.092 4.848.591 6.432 1.59-.444 3.21-.407 4.864.064.73-2.05 1.264-4.03 1.184-6.267-1.899-.293-3.74-.114-5.553-.304Z" fill="#FFCD4D"/><path opacity=".1" fill-rule="evenodd" clip-rule="evenodd" d="M202.065 126.235c-5.035-1.693-10.236-2.725-15.443-3.71-3.198-.605-6.417-1.112-9.628-1.652-8.441-1.42-16.897-2.729-25.413-3.612-4.958-.514-9.926-.842-14.914-.608-3.586.169-7.107.719-10.515 1.879-2.247.765-4.377 1.768-6.273 3.22-.919.704-1.734 1.507-2.319 2.517-1.199 2.07-.766 4.332 1.144 5.784.451.343.975.601 1.493.838.235.108.537.067 1.18.13-.768-.561-1.229-.882-1.674-1.225-2.236-1.724-2.433-3.818-.467-5.868.698-.727 1.529-1.355 2.38-1.906 2.382-1.54 5.019-2.487 7.768-3.144 4.514-1.078 9.105-1.265 13.701-1.001 4.397.252 8.798.603 13.164 1.168 5.951.77 11.879 1.734 17.801 2.71 4.598.758 9.199 1.544 13.75 2.535 5.549 1.21 11.047 2.65 16.569 3.983 1.044.251 2.096.466 3.144.698l.139-.384c-.378-.204-.741-.444-1.136-.605-1.477-.601-2.942-1.24-4.451-1.747Z" fill="#000"/><path fill-rule="evenodd" clip-rule="evenodd" d="M147.424 90.585c.001-.019.004-.035.006-.053l-.035.007.029.046Z" fill="#000"/><path opacity=".1" fill-rule="evenodd" clip-rule="evenodd" d="M153.061 78.535c-1.909-2.026-4.186-3.523-6.694-4.706-3.369-1.589-6.935-2.596-10.53-3.466a183.85 183.85 0 0 1-14.901-4.287c-6.703-2.235-13.573-3.588-20.637-3.925-2.872-.137-5.739-.345-8.611-.441-4.021-.135-8.043-.179-12.061.112-.624.045-1.243.094-2.03.451 1.03.323 1.857.26 2.674.272.83.014 1.661-.02 2.49.012 3.892.15 7.788.247 11.675.495 4.014.257 8.024.605 12.026 1.02 4.655.483 9.164 1.647 13.613 3.085 3.339 1.08 6.69 2.128 10.069 3.076 3.196.896 6.438 1.623 9.651 2.46 2.599.678 5.118 1.591 7.502 2.843 1.997 1.05 3.794 2.378 5.252 4.1a11.95 11.95 0 0 1 1.644 2.556c.56 1.178.389 2.394-.4 3.434-.495.653-1.062 1.299-1.723 1.771-1.244.886-2.58 1.641-3.873 2.458-.291.183-.712.24-.768.677 2.766-.502 5.173-1.704 7.02-3.84 1.33-1.538 1.512-3.322.687-5.19-.497-1.124-1.238-2.08-2.075-2.966Z" fill="#000"/><path opacity=".1" fill-rule="evenodd" clip-rule="evenodd" d="M136.621 77.833c.11.294.301.498.493.7.611.648 1.3 1.24 1.818 1.955.982 1.356.937 2.781-.175 4.03-.625.702-1.41 1.293-2.21 1.8-1.359.86-2.897 1.317-4.461 1.67-2.815.64-5.68.859-8.554.897-4.856.065-9.703-.12-14.554-.377-7.56-.402-14.965-1.727-22.338-3.339a466.142 466.142 0 0 0-11.077-2.252c-3.826-.739-7.671-1.376-11.492-2.14-1.432-.287-2.832-.77-4.22-1.243-.59-.2-1.15-.554-1.655-.93-.6-.447-.744-1.064-.332-1.693.448-.684.981-1.342 1.59-1.885 1.486-1.325 3.192-2.331 4.989-3.184 1.965-.931 4-1.674 6.103-2.239.59-.158 1.26-.17 1.984-.884-.675-.078-1.052-.161-1.429-.156a7.439 7.439 0 0 0-1.328.143c-4.157.815-7.861 2.592-11.107 5.305a7.736 7.736 0 0 0-1.295 1.401c-1.295 1.804-.997 3.237.97 4.235 1.073.545 2.237.94 3.396 1.278 4.18 1.215 8.491 1.815 12.75 2.663 3.632.724 7.252 1.508 10.88 2.255 3.378.696 6.74 1.495 10.142 2.047 9.799 1.591 19.672 2.215 29.597 1.943 2.619-.072 5.222-.367 7.773-1 1.745-.434 3.412-1.062 4.921-2.061.914-.606 1.732-1.314 2.285-2.276.795-1.379.918-2.796-.007-4.15-.842-1.23-2.049-2.013-3.457-2.513Zm65.126 58.296c-1.103-.906-2.411-1.422-3.732-1.901-4.274-1.55-8.722-2.449-13.147-3.42-4.738-1.041-9.502-1.966-14.244-2.993-6.689-1.446-13.433-2.516-20.265-2.966-2.867-.188-5.741-.204-8.604.13-1.525.176-3.03.457-4.456 1.053-.889.372-1.721.84-2.377 1.568-1.041 1.156-1.332 2.475-.679 3.893.805 1.75 2.103 3.024 3.966 3.647.209.069.466-.003 1.196-.024-.9-.763-1.464-1.182-1.955-1.674-.628-.629-1.29-1.255-1.767-1.992-.831-1.286-.611-2.43.629-3.345.655-.483 1.417-.902 2.197-1.119a23.84 23.84 0 0 1 3.934-.764c3.633-.378 7.272-.179 10.9.127 6.314.532 12.514 1.788 18.707 3.059 4.815.988 9.624 2.013 14.418 3.094 3.112.702 6.213 1.473 9.283 2.334 1.464.412 2.877 1.045 4.259 1.695 1.116.523 2.058 1.299 2.353 2.612.015.068.187.101.31.162.078-.173.193-.337.226-.516.209-1.137-.313-1.971-1.152-2.66ZM79.975 110.071c-1.587-1.195-3.313-2.152-5.123-2.966-5.952-2.678-12.127-4.712-18.447-6.304-5.02-1.267-9.937-2.821-14.75-4.727-2.133-.844-4.303-1.618-6.506-2.252-2.278-.655-4.628-.958-7.008-.563-.222.037-.424.191-.904.418.803.094 1.296.143 1.787.21 1.2.165 2.407.295 3.597.517 2.968.553 5.738 1.718 8.518 2.84 4.264 1.723 8.601 3.236 13.058 4.369 5.264 1.339 10.44 2.937 15.463 5.007 2.477 1.02 4.94 2.073 7.239 3.47 4.307 2.617 6.88 6.362 7.508 11.393.076.613.19 1.221.31 1.98.229-.246.427-.358.449-.499.562-3.529.161-6.863-2.07-9.806a15.835 15.835 0 0 0-3.12-3.087Z" fill="#000"/><path opacity=".1" fill-rule="evenodd" clip-rule="evenodd" d="M191.117 137.986c-1.419-.567-2.834-1.164-4.295-1.6-4.355-1.299-8.843-1.976-13.32-2.679-4.987-.784-9.915-1.836-14.8-3.103-2.604-.675-5.248-1.117-7.947-1.105-1.925.009-3.826.222-5.609 1.013-.834.368-1.652.853-1.742 1.863-.1 1.115.692 1.729 1.568 2.191 1.544.813 3.206 1.25 4.94 1.41.215.02.436-.026.861-.057-.573-.787-1.264-.959-1.878-1.228-.934-.409-1.896-.754-2.825-1.174-.454-.205-.946-.427-1.07-1.013.302-.558.873-.705 1.411-.884 1.344-.444 2.734-.592 4.144-.632 2.778-.079 5.468.456 8.129 1.149a157.23 157.23 0 0 0 14.803 3.084c2.712.434 5.432.839 8.113 1.418a71.467 71.467 0 0 1 7.011 1.911c1.552.506 3.014 1.293 4.874 2.111-.224-.578-.291-.891-.454-1.141-.466-.715-1.133-1.222-1.914-1.534ZM69.601 117.077a13.13 13.13 0 0 0-2.522-2.32 32.247 32.247 0 0 0-4.118-2.415c-4.726-2.325-9.767-3.725-14.89-4.833-4.076-.881-8.035-1.99-11.559-4.364-2.754-1.856-5.93-2.289-9.17-2.152-1.324.056-2.644.377-3.947.666-.447.099-1 .241-1.245.94.5-.007.927.014 1.35-.02 1.397-.113 2.79-.296 4.188-.361 3.007-.137 5.865.449 8.397 2.131 3.192 2.12 6.725 3.311 10.426 4.151 4.11.933 8.157 2.093 12.07 3.682 2.783 1.132 5.488 2.42 7.888 4.258 2.275 1.741 3.88 3.873 3.828 7.13.291-.24.42-.301.478-.403.093-.163.167-.347.203-.531.398-2.062-.027-3.958-1.377-5.559Zm-15.417 1.557a7.327 7.327 0 0 0-1.686-1.238 19.735 19.735 0 0 0-2.79-1.239 307.431 307.431 0 0 0-8.52-2.842c-3.501-1.1-6.786-2.568-9.538-5.071a5.858 5.858 0 0 0-2.868-1.448c-2.298-.439-4.57-.245-6.812.357-.276.074-.512.297-.98.58.569.066.871.139 1.172.13 1.082-.033 2.162-.108 3.244-.14 2.323-.071 4.38.552 6.135 2.168a16.425 16.425 0 0 0 5.351 3.275c2.084.788 4.2 1.488 6.298 2.241 2.517.903 5.044 1.782 7.532 2.756.814.318 1.576.838 2.269 1.382.879.689 1.146 1.652.837 2.745-.147.518-.305 1.032-.494 1.668 2.279-1.529 2.58-3.612.85-5.324Zm71.795-40.67a5.678 5.678 0 0 0-1.452-1.219c-.935-.54-1.901-1.054-2.908-1.438-5.726-2.185-11.713-3.012-17.795-3.283-.475-.02-.958.154-1.662.276.751.532 1.389.535 1.988.628 2.269.356 4.543.68 6.812 1.035 3.03.474 6.011 1.169 8.895 2.218 1.253.455 2.466 1.036 3.658 1.637.607.306 1.267.645 1.485 1.637-2.342 1.384-5.059 1.292-7.678 1.755 2.133.843 5.384.828 7.241.082.351-.14.699-.32 1.007-.538 1.059-.755 1.237-1.815.409-2.79Zm124.152-5.29c-.697-.308-1.396-.664-2.133-.822-4.025-.863-8.005-.617-11.896.715a9.034 9.034 0 0 0-2.369 1.22c-1.496 1.095-1.615 2.569-.426 3.96.207.241.447.456.688.664 1.691 1.462 5.094 2.811 7.554 2.744-.444-.228-.894-.445-1.331-.686-1.397-.77-2.813-1.51-4.17-2.344-.641-.394-1.208-.938-1.728-1.49-.468-.494-.403-1.086.113-1.514.389-.322.819-.634 1.283-.818.886-.35 1.794-.686 2.723-.889 3.533-.773 7.082-.949 10.638-.111.465.11.952.313 1.373.068.14-.448-.125-.61-.319-.697Zm-22.85-2.352c-.922.413-1.793.989-2.588 1.613-.533.419-.962 1.017-1.314 1.61-.545.918-.253 1.774.487 2.768.098-.836.007-1.534.281-2.035.35-.642.905-1.27 1.528-1.647 1.303-.79 2.658-1.537 4.077-2.078 4.469-1.707 9.104-2.426 13.894-2.027.801.066 1.615.268 2.476-.296-.364-.09-.724-.2-1.093-.265-6.162-1.066-12.074-.19-17.748 2.357Zm-138.318.444c-3.64-.375-7.266-.234-10.871.355a26.96 26.96 0 0 0-2.799.622 6.425 6.425 0 0 0-1.579.668c-1.096.656-1.122 1.772-.063 2.44.426.269.905.505 1.392.619 1.61.375 3.236.688 4.856 1.026.01-.111.018-.223.026-.334-.953-.349-1.903-.703-2.858-1.045-1.92-.687-1.921-.684-2.707-1.576.748-.545 1.616-.723 2.479-.913 2.625-.58 5.296-.787 7.972-.941 1.886-.107 3.777-.162 5.823-.247-.522-.67-1.133-.618-1.671-.674Z" fill="#000"/><path d="M135.83 64.23c-8.219-.959-15.613 4.53-16.514 12.26-.902 7.73 5.031 14.773 13.25 15.731 8.219.959 15.613-4.53 16.514-12.26.902-7.73-5.03-14.773-13.25-15.731Z" fill="#202020"/><path fill-rule="evenodd" clip-rule="evenodd" d="M130.753 72.278c.161-1.379 1.479-2.357 2.945-2.186l2.858.333c1.466.17 2.524 1.427 2.363 2.805l-8.166-.952Zm-3.216 2.738c.161-1.378 1.479-2.357 2.945-2.186l8.574 1c1.466.17 2.524 1.427 2.363 2.805l-13.882-1.619Zm.341.624c-1.015-.118-1.927.56-2.039 1.513-.111.955.621 1.824 1.636 1.943l13.066 1.523c1.015.119 1.927-.559 2.039-1.513.111-.954-.621-1.824-1.636-1.942l-13.066-1.524Zm-.697 4.2c-.161 1.379.897 2.635 2.363 2.806l8.574 1c1.466.17 2.785-.808 2.945-2.187l-13.882-1.619Zm4.658 6.187c-1.465-.171-2.523-1.427-2.362-2.806l8.37.976c-.161 1.379-1.48 2.358-2.945 2.187l-3.063-.357Z" fill="#FFCD4D"/><path d="m44.422 88.166 3.325.388-.945 8.102 3.567.416.945-8.102 3.325.388-2.32 19.9-3.326-.388 1.045-8.955-3.567-.416-1.044 8.955-3.326-.388 2.321-19.9Zm15.146 22.225c-1.632-.19-2.831-.772-3.596-1.745-.764-.972-1.054-2.255-.869-3.847l1.22-10.462c.186-1.592.763-2.773 1.731-3.544.968-.77 2.269-1.06 3.901-.87 1.633.19 2.832.772 3.596 1.745.765.972 1.055 2.255.87 3.847l-1.22 10.462c-.187 1.592-.764 2.773-1.732 3.544-.968.77-2.269 1.061-3.9.87Zm.332-2.843c1.148.134 1.8-.453 1.952-1.76l1.266-10.86c.153-1.308-.346-2.028-1.494-2.162-1.149-.134-1.8.453-1.952 1.76l-1.267 10.86c-.152 1.308.346 2.028 1.495 2.162Zm9.32-16.49 4.171.486 1.845 12.289.06.007 1.39-11.911 2.962.345-2.32 19.9-3.416-.398-2.296-14.992-.06-.008-1.695 14.527-2.962-.345 2.32-19.9Zm12.9 1.504 9.068 1.058-.331 2.843-5.743-.67-.614 5.259 4.565.533-.332 2.842-4.564-.532-.713 6.112 5.743.67-.331 2.843-9.069-1.058 2.32-19.9Zm12.702 13.065L92.134 93.73l3.537.413 1.415 7.57.06.007 3.119-7.041 3.235.377-5.353 10.959-.988 8.472-3.325-.388.988-8.472Zm10.176-10.396 4.897.57c1.652.193 2.843.755 3.572 1.685.73.93 1 2.2.812 3.812l-.229 1.961c-.188 1.611-.743 2.786-1.667 3.523-.924.738-2.212 1.01-3.864.817l-1.571-.183-.945 8.102-3.326-.388 2.321-19.9Zm3.853 9.526c.544.063.963-.032 1.259-.286.315-.251.512-.718.592-1.4l.275-2.36c.08-.682-.005-1.182-.254-1.5-.229-.314-.615-.503-1.159-.567l-1.572-.183-.713 6.112 1.572.184Zm10.261 12.578c-1.633-.19-2.832-.772-3.596-1.745-.766-.973-1.055-2.255-.869-3.847l1.22-10.462c.185-1.592.762-2.773 1.731-3.544.968-.77 2.268-1.06 3.901-.87 1.632.19 2.83.772 3.595 1.745.765.972 1.054 2.255.868 3.847l-1.22 10.461c-.185 1.592-.762 2.774-1.73 3.545-.969.77-2.268 1.06-3.9.87Zm.331-2.843c1.148.134 1.8-.453 1.952-1.76l1.266-10.86c.153-1.308-.346-2.029-1.494-2.162-1.149-.135-1.799.452-1.952 1.76l-1.266 10.86c-.153 1.307.345 2.028 1.494 2.162Zm11.469-13.358-3.476-.405.332-2.843 10.277 1.199-.331 2.842-3.477-.405-1.989 17.057-3.325-.388 1.989-17.057Zm13.584-1.297 8.797 1.026-.331 2.843-5.472-.639-.647 5.544 4.293.501-.331 2.842-4.293-.5-1.011 8.671-3.325-.388 2.32-19.9Zm10.392 1.212 3.325.387-2.321 19.9-3.325-.387 2.321-19.9Zm5.815.678 4.172.486 1.845 12.289.061.007 1.389-11.911 2.962.345-2.32 19.9-3.416-.398-2.296-14.993-.061-.007-1.694 14.527-2.962-.345 2.32-19.9Zm15.471 1.804 4.503.525 1.125 20.302-3.325-.388-.143-4.022-.007.057-3.779-.441-1.059 3.825-3.083-.36 5.768-19.498Zm2.075 13.728-.335-10.01-.059-.006-2.599 9.667 2.993.349Zm7.487-12.613 4.172.487 1.845 12.288.061.007 1.389-11.911 2.963.345-2.321 19.9-3.416-.398-2.296-14.992-.061-.007-1.694 14.527-2.962-.346 2.32-19.9Zm15.233 22.235c-1.593-.185-2.761-.754-3.508-1.705-.728-.95-1-2.201-.819-3.755l1.247-10.69c.181-1.554.734-2.709 1.66-3.465.946-.755 2.214-1.039 3.807-.853 1.591.185 2.751.753 3.478 1.702.747.952 1.03 2.205.849 3.759l-.246 2.103-3.143-.366.268-2.303c.144-1.232-.339-1.913-1.447-2.042-1.108-.129-1.734.422-1.878 1.654l-1.296 11.116c-.142 1.213.342 1.884 1.45 2.013 1.108.129 1.734-.412 1.875-1.625l.355-3.042 3.143.366-.328 2.815c-.181 1.554-.745 2.708-1.691 3.462-.926.757-2.185 1.042-3.776.856Zm9.24-19.381 9.069 1.058-.332 2.843-5.743-.67-.613 5.259 4.564.532-.331 2.843-4.565-.532-.713 6.112 5.744.67-.332 2.843-9.068-1.058 2.32-19.9Z" fill="#202020"/></svg>