<svg width="478" height="50" fill="none" xmlns="http://www.w3.org/2000/svg" viewBox="0 0 478 50"><path d="M240.504 94.144h-371.237l.971-53.525c1.604-2.514 4.628-3.182 7.661-3.522 5.485-.59 10.037-4.57 11.617-10.137 1.105-3.943 3.786-6.601 6.68-6.601 3.288 0 5.822 3.274 6.797 8.749 1.725 9.638 5.196 15.389 9.307 15.389 4.06 0 7.735-5.514 9.344-14.066 2.216-11.722 6.283-19.29 10.369-19.29 1.82 0 4.411 1.545 6.32 8.918.367 1.388.697 2.75 1 4.047 1.68 6.98 2.9 12.023 6.88 12.023l.236-.014c.616-.025 1.194-.117 1.745-.209.59-.092 1.157-.184 1.68-.184.237 0 .472.014.681.053 1.019.196 1.808.68 2.371 1.44.983 1.35 2.15 2.057 3.342 2.057 1.27 0 2.555-.786 3.616-2.213 2.752-3.745 5.552-5.71 8.093-5.71 2.697 0 5.066 2.213 6.837 6.431 3.203 7.596 8.172 12.31 12.99 12.31 5.619 0 9.524-6.573 10.187-17.142.674-11.159 5.55-17.17 9.807-17.17 3.458 0 7.497 4.021 8.445 15.337 1.292 15.414 4.342 23.456 9.324 24.582 1.383.3 2.585.445 3.686.445 3.862 0 6.464-1.911 8.429-6.208 2.66-5.828 6.968-9.454 11.25-9.454 3.576 0 6.779 2.474 9.029 6.966 2.565 5.16 6.152 8.12 9.832 8.12 2.868 0 5.468-1.794 7.533-5.174 3.672-6.064 6.645-10.346 11.542-10.346.131 0 .262.013.407.013.17.014.34.014.51.014 4.007 0 6.68-2.28 8.712-7.387 2.428-6.13 5.578-9.364 9.101-9.364 2.672 0 5.429 1.794 8.22 5.355.485.669.945 1.336 1.391 1.979 1.519 2.226 2.82 4.138 4.842 5.213.895.459 1.703.694 2.502.694 1.022 0 1.841-.38 2.633-.747.687-.327 1.347-.63 2.055-.63h.183c.995.065 1.785.524 2.628.995.337.196.687.393 1.063.564.805.379 1.679.59 2.531.59 2.031 0 3.66-1.1 4.482-3.026.93-2.201 1.279-5.54 1.566-10.555.745-12.913 5.997-18.69 10.868-18.69 4.899 0 10.268 5.777 11.226 18.664.366 5.094 1.606 5.383 4.317 6.024.808.196 1.735.407 2.736.786 5.009 1.1 8.53 3.405 10.743 7.033 2.466 4.087 5.594 6.43 8.579 6.43 3.129 0 5.624-2.501 6.842-6.848.49-1.742.898-3.34 1.279-4.793 1.648-6.378 2.635-10.229 6.28-10.477.144-.014.289-.014.432-.014 2.92 0 3.891 2.11 5.793 6.3.265.576.541 1.204.857 1.859 1.335 2.908 3.466 4.584 5.849 4.584 1.558 0 3.104-.708 4.502-2.03 1.653-1.585 3.319-2.396 4.929-2.396 1.728 0 3.349.93 4.836 2.75 2.69 3.327 4.862 4.807 7.038 4.807 1.143 0 2.015-.24 2.718-.609 3.245-1.7 3.102-4.589 7.614-2.621 1.701.742 3.041 1.736 5.344 1.736 5.082 0 6.741-4.304 7.266-8.012 1.201-8.395 4.834-13.818 9.261-13.818 4.388 0 8.161 4.967 10.084 12.814 1.586 6.467 4.452 9.265 8.367 9.265 1.493 0 3.1-.55 4.743-1.636 2.586-1.717 4.605-2.514 6.372-2.514 2.148 0 3.946 1.218 5.485 3.706 3.475 5.54 8.118 8.722 12.743 8.722 10.359 0 12.172-10.452 13.768-19.672 1.303-7.582 2.546-14.746 8.439-14.746 7.794 0 9.202 9.73 10.562 19.134 1.256 8.736 2.457 16.973 8.311 17.694.209.025.432.039.666.039 3.104 0 6.226-2.397 8.314-6.404a90.711 90.711 0 0 0 1.47-2.986c2.138-4.479 3.825-8.015 8.307-8.12 3.195 0 5.787 3.641 7.905 11.146 1.674 5.918 4.978 9.324 9.077 9.324 3.274 0 6.734-2.24 9.727-6.3 4.861-6.601 8.721-10.675 12.859-10.675 2.109 0 4.236 1.087 6.5 3.327 2.201 2.174 4.393 3.274 6.555 3.274 2.252 0 4.462-1.218 6.562-3.628 2.635-3.026 5.293-4.492 8.11-4.492 2.711 0 5.554 1.335 8.713 4.086 2.891 2.318 5.568 3.483 7.979 3.483 8.657 0 12.647-14.983 14.474-27.569 1.226-8.42 5.471-11.42 9.034-11.42 3.576 0 6.787 2.775 7.789 6.77 3.032 11.918 8.135 17.235 16.53 17.235 1.585 0 3.33-.198 5.17-.602 2.774-.59 5.137-.878 7.232-.878 5.657 0 9.404 2.134 11.433 6.51 3.239 7.018 7.084 14.497 11.629 14.497 1.794 0 3.611-1.231 5.397-3.653 1.275-1.728 2.185-3.576 3.07-5.344 1.712-3.458 3.207-6.431 6.534-6.457.249.026.511.053.772.053 1.586 0 3.484-.655 3.54-3.812.301-14.472 6.55-19.605 11.816-19.605 10.987 0 10.693 17.694 10.586 24.36-.097 6.063 2.843 9.98 7.48 9.98 2.201 0 4.575-.956 6.676-2.698 2.234-1.859 4.517-2.828 6.612-2.828 1.926 0 3.626.838 4.803 2.383.742.969 1.257 2.173 1.535 3.55l-.987 54.43-371.242-.018Zm-342.53-46.848c-.652-3.772-2.359-5.697-5.084-5.697-1.585 0-3.442.629-5.534 1.872-7.083 4.178-10.153 11.722-9.236 15.298.221.85.779 1.859 2.192 1.859.616 0 1.339-.184 2.132-.563 2.258-1.048 3.799-1.533 5.189-1.625.117 0 .236-.013.354-.013 1.296 0 2.427.484 3.66 1.061.519.248 1.054.38 1.578.38 1.073 0 2.079-.538 2.922-1.533 1.929-2.25 2.606-6.389 1.827-11.039Zm625.077-8.839c-.357-4.177-2.01-6.13-5.206-6.13-.864 0-1.876.145-3.073.446-.817.21-1.555.46-2.266.708l-.197.064c-1.199.419-1.846.602-3.063.602-.485 0-1.074-.039-1.859-.078a22.736 22.736 0 0 0-1.584-.065c-3.995 0-6.752 1.113-7.968 3.208-1.068 1.834-.854 4.467.556 6.838 1.816 3.09 5.987 6.391 12.248 6.391.523 0 1.047-.013 1.585-.064 3.49-.315 6.369-1.69 8.31-3.982 1.837-2.175 2.754-5.07 2.517-7.938Z" fill="#202020"/></svg>