<svg width="30" height="25" viewBox="0 0 24 16" fill="none" xmlns="http://www.w3.org/2000/svg">
<rect width="24" height="24" fill="black"/>
<g clip-path="url(#clip0_21_3)">
<path d="M15.7269 10.3744V9.43651C16.3042 9.23851 16.7246 8.62364 16.7246 7.89588C16.7246 7.16812 16.3042 6.55152 15.7269 6.35524V5.41732C16.2706 5.23147 16.676 4.67392 16.7209 4H16.0595V4.28659C16.0595 4.50718 15.925 4.70171 15.7269 4.79898V4.66523C15.7269 4.46896 15.555 4.30917 15.3439 4.30917H15.3103C15.0992 4.30917 14.9272 4.46896 14.9272 4.66523V4.79898C14.7292 4.70171 14.5947 4.50891 14.5947 4.28659V4H13.9333C13.9782 4.67392 14.3836 5.23147 14.9272 5.41732V6.35524C14.3518 6.55152 13.9296 7.16638 13.9296 7.89588C13.9296 8.62538 14.3499 9.24024 14.9272 9.43651V10.3744C14.3836 10.5603 13.9782 11.1179 13.9333 11.7917H14.5947V11.5052C14.5947 11.2846 14.7292 11.09 14.9272 10.9928V11.1265C14.9272 11.3228 15.0992 11.4826 15.3103 11.4826H15.3439C15.555 11.4826 15.7269 11.3228 15.7269 11.1265V10.9928C15.925 11.09 16.0595 11.2828 16.0595 11.5052V11.7917H16.7209C16.676 11.1179 16.2706 10.5603 15.7269 10.3744ZM14.5947 8.30579V7.48423C14.5947 7.26364 14.7292 7.06911 14.9272 6.97184V7.10559C14.9272 7.30186 15.0992 7.46165 15.3103 7.46165H15.3439C15.555 7.46165 15.7269 7.30186 15.7269 7.10559V6.97184C15.925 7.06911 16.0595 7.26191 16.0595 7.48423V8.30579C16.0595 8.52637 15.925 8.72091 15.7269 8.81817V8.68444C15.7269 8.48816 15.555 8.32837 15.3439 8.32837H15.3103C15.0992 8.32837 14.9272 8.48816 14.9272 8.68444V8.81817C14.7311 8.72091 14.5947 8.52812 14.5947 8.30579Z" fill="white"/>
<path d="M19.7848 8.39437V7.39565C20.3622 7.19764 20.7826 6.58278 20.7826 5.85502C20.7826 5.12725 20.3622 4.51065 19.7848 4.31438V4H18.9871V4.31438C18.4098 4.51239 17.9894 5.12725 17.9894 5.85502C17.9894 6.58278 18.4098 7.19938 18.9871 7.39565V8.39437C18.4098 8.59237 17.9894 9.20725 17.9894 9.93501C17.9894 10.6628 18.4098 11.2794 18.9871 11.4757V11.79H19.7848V11.4757C20.3622 11.2776 20.7826 10.6628 20.7826 9.93501C20.7826 9.20725 20.3622 8.59237 19.7848 8.39437ZM18.6526 6.26492V5.44337C18.6526 5.22278 18.7872 5.02825 18.9852 4.93098V5.06472C18.9852 5.261 19.1571 5.42079 19.3682 5.42079H19.4C19.6111 5.42079 19.783 5.261 19.783 5.06472V4.93098C19.9811 5.02825 20.1155 5.22104 20.1155 5.44337V6.26492C20.1155 6.48551 19.9811 6.68005 19.783 6.77731V6.64357C19.783 6.4473 19.6111 6.2875 19.4 6.2875H19.3664C19.1553 6.2875 18.9833 6.4473 18.9833 6.64357V6.77731C18.7891 6.68005 18.6526 6.48725 18.6526 6.26492ZM20.1174 10.3467C20.1174 10.5672 19.9829 10.7618 19.7848 10.859V10.6628C19.7848 10.4665 19.613 10.3067 19.4019 10.3067H19.3701C19.159 10.3067 18.9871 10.4665 18.9871 10.6628V10.859C18.7891 10.7618 18.6545 10.569 18.6545 10.3467V9.5251C18.6545 9.30451 18.7891 9.10998 18.9871 9.01271V9.08392C18.9871 9.28019 19.159 9.43999 19.3701 9.43999H19.4037C19.6148 9.43999 19.7867 9.28019 19.7867 9.08392V9.01271C19.9848 9.10998 20.1193 9.30277 20.1193 9.5251V10.3467H20.1174Z" fill="white"/>
<path d="M11.1552 7.10051C11.1477 7.06055 11.1384 7.02234 11.1235 6.98587C11.1291 6.97719 12.3696 5.37054 11.2206 4.37704C10.0735 3.38353 8.73386 4.67926 8.72639 4.68621C8.5134 4.62368 8.29855 4.58547 8.08556 4.5681C8.08556 4.5681 8.08556 4.5681 8.08369 4.5681C7.6465 4.50036 7.03369 4.5681 7.03369 4.5681C6.82258 4.58547 6.60959 4.62368 6.39847 4.68447C6.39099 4.67752 5.05141 3.38179 3.90427 4.3753C2.75712 5.36881 3.99581 6.97719 4.00142 6.98413C3.98834 7.02234 3.97713 7.06055 3.96965 7.09877C3.84635 7.78658 3 7.99849 3 9.19695C3 10.418 3.88371 11.3802 5.68851 11.3802H6.42836C6.4321 11.3837 6.71795 11.7624 7.30834 11.7849C7.30834 11.7849 7.44473 11.7988 7.7586 11.7884C8.38449 11.7884 8.68903 11.3872 8.69089 11.382H9.43074C11.2355 11.382 12.1192 10.4197 12.1192 9.19869C12.1248 8.00196 11.2785 7.78832 11.1552 7.10051Z" fill="white"/>
</g>
<defs>
<clipPath id="clip0_21_3">
<rect width="17.82" height="7.80876" fill="white" transform="translate(3 4)"/>
</clipPath>
</defs>
</svg>
