<svg width="1920" height="1920" viewBox="0 0 1920 1920" fill="none" xmlns="http://www.w3.org/2000/svg">
<path d="M361.1 1026.3C271.1 994.8 222.3 984 222.3 984C281.5 945.4 545 795.5 882.1 934.4C1173.7 1054.6 1297.5 883.4 1340.1 794.2C1318.9 750.4 1308 702.3 1308 653.9C1308 589 1327.6 523.5 1368.4 466.8C1433.2 513.4 1475.5 579.6 1492.9 651.5C1521.1 627.1 1553.5 607.5 1589 594C1624.5 580.5 1662.9 573.1 1703.1 573.1C1703.1 716.6 1609 838 1479.1 879.2C1446.3 924.8 1385.1 1006.1 1306.9 1092C1236.7 1135.2 1154.1 1157.7 1084 1169.2C996.6 1183.6 928.7 1181.2 928.7 1181.2C986.4 1228 996.3 1299.1 992.4 1356.8C988.7 1410.9 972.9 1453.4 972.9 1453.4C941.5 1440 914.1 1422.1 890.1 1402.1C789.8 1318.1 751.9 1195.2 751.9 1195.2C713.3 1175.8 676.5 1158 641.7 1141.8C591.1 1118.2 544.5 1097.9 502.4 1080.5C447.7 1057.8 400.5 1040.1 361.1 1026.3Z" fill="white"/>
<path d="M1306.9 1091.9C1248.3 1156.2 1180.2 1223.2 1107.3 1279.7C1066.9 1232.9 1084.4 1171.9 1084.4 1171.9L1083.9 1169.1C1154 1157.6 1236.6 1135.2 1306.9 1091.9ZM928.6 1181.2C986.3 1228 996.2 1299.1 992.3 1356.8C1031.5 1335 1070 1308.8 1107.4 1279.8C1067 1233 1084.5 1172 1084.5 1172L1084 1169.2C996.5 1183.6 928.6 1181.2 928.6 1181.2ZM751.8 1195.1C713.2 1175.7 676.4 1157.9 641.6 1141.7C641.6 1141.7 630.5 1235.7 703.2 1418C731.4 1420.7 760.1 1421.6 789.1 1420.6C822.5 1419.4 856.3 1412.9 890.1 1402.1C789.7 1317.9 751.8 1195.1 751.8 1195.1ZM502.2 1080.3C502.2 1080.3 479.6 1203.3 552.2 1385.6C599.8 1401.8 650.5 1412.9 703.1 1417.8C630.5 1235.5 641.5 1141.5 641.5 1141.5C591 1118.1 544.4 1097.8 502.2 1080.3ZM361.1 1026.3C360.8 1027.7 339.9 1136.7 412.1 1317.8C454.1 1345.4 501.4 1368.4 552.3 1385.7C479.7 1203.4 502.3 1080.4 502.3 1080.4C447.7 1057.8 400.5 1040.1 361.1 1026.3ZM361.1 1026.3C271.1 994.8 222.3 984 222.3 984C215.1 988.7 217.3 997 217.3 1005.5C216.1 1126.1 293.2 1239.9 412.1 1317.8C339.9 1136.7 360.8 1027.7 361.1 1026.3Z" fill="white"/>
<path d="M992.2 1356.8C1031.4 1335 1069.9 1308.8 1107.3 1279.8C1180.2 1223.2 1248.3 1156.3 1306.9 1092C1385.1 1006.1 1446.4 924.8 1479.1 879.2C1608.9 838 1703.1 716.6 1703.1 573.1C1662.9 573.1 1624.4 580.5 1589 594C1553.6 607.5 1521.1 627.1 1492.9 651.5C1475.4 579.6 1433.2 513.3 1368.4 466.8C1327.6 523.5 1308 589 1308 653.9C1308 702.3 1318.9 750.4 1340.1 794.2C1297.5 883.4 1173.7 1054.6 882.1 934.4C545 795.5 281.4 945.4 222.3 984C215.1 988.7 217.3 997 217.3 1005.5C216.1 1126.1 293.2 1239.9 412.1 1317.8C454.1 1345.4 501.4 1368.4 552.3 1385.7C599.9 1401.9 650.6 1413 703.2 1417.9C731.4 1420.6 760.1 1421.5 789.1 1420.5C822.5 1419.3 856.3 1412.8 890.1 1402" stroke="#231F20" stroke-width="50" stroke-miterlimit="10" stroke-linecap="round" stroke-linejoin="round"/>
<path d="M222.2 983.9C222.2 983.9 271 994.7 361 1026.2C400.4 1040 447.6 1057.7 502.2 1080.3C544.4 1097.7 590.9 1118.1 641.5 1141.6C676.3 1157.8 713.1 1175.6 751.7 1195C751.7 1195 789.6 1317.9 889.9 1401.9C913.8 1422 941.3 1439.8 972.7 1453.2C972.7 1453.2 988.5 1410.7 992.2 1356.6C996.1 1298.8 986.2 1227.8 928.5 1181C928.5 1181 996.4 1183.4 1083.8 1169C1153.9 1157.4 1236.5 1135 1306.7 1091.8" stroke="#231F20" stroke-width="50" stroke-miterlimit="10" stroke-linecap="round" stroke-linejoin="round"/>
<path d="M361.1 1026.3C360.8 1027.8 339.9 1136.7 412.1 1317.8" stroke="#231F20" stroke-width="50" stroke-miterlimit="10" stroke-linecap="round" stroke-linejoin="round"/>
<path d="M502.2 1080.3C502.2 1080.3 479.6 1203.3 552.2 1385.6" stroke="#231F20" stroke-width="50" stroke-miterlimit="10" stroke-linecap="round" stroke-linejoin="round"/>
<path d="M641.6 1141.7C641.6 1141.7 630.5 1235.7 703.2 1418" stroke="#231F20" stroke-width="50" stroke-miterlimit="10" stroke-linecap="round" stroke-linejoin="round"/>
<path d="M1084.4 1172C1084.4 1172 1066.9 1233 1107.3 1279.8" stroke="#231F20" stroke-width="50" stroke-miterlimit="10" stroke-linecap="round" stroke-linejoin="round"/>
</svg>
