<svg width="14" height="16" fill="none" xmlns="http://www.w3.org/2000/svg" viewBox="0 0 14 16"><path d="M10.31 10.149c-1.145-.855-2.408.142-2.896.748-.282 0-.995.413-1.594 2.066-.598 1.652 2.505 2.374 4.132 2.529l-.683-1.995 2.147.57-1.106-1.781 2.44.392c-.336-.487-1.295-1.674-2.44-2.53Z" fill="#F7931A"/><path d="M10.31 10.149c-1.145-.855-2.408.142-2.896.748-.282 0-.995.413-1.594 2.066-.598 1.652 2.505 2.374 4.132 2.529l-.683-1.995 2.147.57-1.106-1.781 2.44.392c-.336-.487-1.295-1.674-2.44-2.53Z" fill="url(#a)"/><path d="M10.31 10.149c-1.145-.855-2.408.142-2.896.748-.282 0-.995.413-1.594 2.066-.598 1.652 2.505 2.374 4.132 2.529l-.683-1.995 2.147.57-1.106-1.781 2.44.392c-.336-.487-1.295-1.674-2.44-2.53Z" stroke="#F7931A" stroke-opacity=".1" stroke-width=".455"/><path d="M10.508 8.974c.434-.424 1.158-1.37 1.058-1.965-.112-.655-2.118-2.617-4.173-2.93-.943-1.215-3.327-2.707-4.11-3.02-.7-.28-1.66-.388-2.216-.02-1.048.691-.655 3.065-.643 3.6.03 1.477 1.198 3.457 1.156 3.878-.031.323-.435.304-.179 1.498.161.787.368 1.563.618 2.326.138.407.33.845.722 1.02.57.256 1.707-.06 2.291-.379.201-.11.302-.125.47.078.33.402.725 1.196 1.418 1.141.198-.015.247-.122.238-.317a2.822 2.822 0 0 0-.326-1.199c.238-.094.453-.239.63-.423.257.258 1.096 1.038 1.465 1.064.37.027.625-.405.587-.772a2.836 2.836 0 0 0-.439-1.006c-.148-.274-.088-.26.505-1.055.436.587.619.88.89 1.025a.555.555 0 0 0 .655-.06c.332-.36-.098-1.058-.696-2.035-.113-.184-.11-.265.08-.449Z" fill="#fff"/><path d="M3.15 6.662a1.804 1.804 0 0 0 1.184 1.901 1.537 1.537 0 0 0 2.023-1.787c-.344-1.624-2.872-1.901-3.207-.114Z" fill="url(#b)"/><path d="M5.893 7.912a1.435 1.435 0 0 1-2.001.22c-.66-.476-.63-1.16-.731-1.155-.07.003-.124.825.535 1.398a1.747 1.747 0 0 0 2.919-1.257c.01-1.09-.971-2.04-2.07-1.866-.793.116-1.358.69-1.42 1.202-.04.27.007.413.033.412.034.001.05-.143.133-.367.235-.677 1.262-1.126 2.023-.758.793.374 1.152 1.454.58 2.17Z" fill="#000"/><path d="M5.187 9.634c2.15-.192 3.107-2.698 1.621-4.37a2.637 2.637 0 0 0-3.541-.385c-.163.098-.3.234-.401.395.016.018.156-.127.458-.306C5.601 3.613 7.84 5.86 7.12 7.872c-.531 1.53-2.585 2.084-3.932.827-.85-.785-.811-1.791-.885-1.785-.05 0-.063 1.11.752 1.923a2.728 2.728 0 0 0 2.132.797Z" fill="#000"/><path d="M11.186 6.014a8.168 8.168 0 0 0-3.7-2.189A14.028 14.028 0 0 0 3.259.793C-.745-.803-.606 4.469 1.252 8.308a8.222 8.222 0 0 0 .729 4.63 1.107 1.107 0 0 0 .859.743c.76.163 1.807-.169 2.507-.572.148.185.621.75.784.91.745.74 1.411.072 1.14-.69-.296-.841-.533-.332.293-.816.43.47.935 1.143 1.53.957a.809.809 0 0 0 .544-.71c.042-.43-.193-.889-.434-1.336-.116-.216-.06.037.38-.667.497.604.722.898 1.078.973a.582.582 0 0 0 .67-.468c.098-.4-.153-.867-.395-1.284-.57-.979-.595-.267.343-1.553.952-1.362.53-1.767-.094-2.41ZM.625 4.492a6.74 6.74 0 0 0 1.093-.54c.354-.224.544-.405.517-.444-.04-.061-.354.133-1.658.631C.413 2.713.595.954 2.03 1.024c.68.028 1.49.438 2.075.785C2.487 3.276 2.43 3.31 2.456 3.351c.025.04.313-.084.727-.368.43-.303.84-.632 1.23-.984 3.18 2.013 4.95 4.815 5.223 6.35a37.021 37.021 0 0 0-1.72 1.42c-.884-.522-1.652.246-1.567 1.025-.448.21-1.443.727-1.878.979C2.891 10.6 1.13 7.82.625 4.492Zm1.961 8.47c-.262-.38-.947-2.055-.991-3.999.778 1.384 2.16 3.18 3.718 3.715-.686.355-2.328.86-2.727.283Zm4.234.059c.1.234.257.56.161.796-.226.555-.797-.248-1.42-.84.356-.23.105-.16.63-.104.68.069.487-.187.629.148Zm-.588-.525a3.777 3.777 0 0 1-1.456-.52 7.883 7.883 0 0 0 1.655-.873c.153.367.488.703.894 1.148-.33.19-.712.276-1.093.245Zm2.983.215c-.04.338-.308.5-.697.17-.34-.313-.659-.648-.956-1.002-.463-.501-1.268-1.158-.6-1.798a.648.648 0 0 1 .727-.116c.518.291 1.586 2.214 1.526 2.746ZM8.162 9.955a8.042 8.042 0 0 0 1.524-1.227 3.116 3.116 0 0 1-.723 2.281 5.956 5.956 0 0 0-.8-1.054Zm2.746.701c.23.546.008.779-.189.744-.237-.036-.43-.309-1.01-.864.116-.22.206-.452.27-.692.108-.099.224-.207.343-.325.225.363.42.743.586 1.137Zm-.82-1.456c.129-1.628-1.065-3.542-2.082-4.782 1.782.823 3.31 2.306 3.316 2.683-.061.685-.782 1.568-1.234 2.1Z" fill="#000"/><path d="M4.653 9.324a.113.113 0 0 0 .116.005.13.13 0 0 0 .07-.155.102.102 0 0 0-.03-.043.091.091 0 0 0-.042-.02h-.012.002L4.75 9.11a.102.102 0 0 0-.093.045.043.043 0 0 1-.006.009.136.136 0 0 0-.032.053.1.1 0 0 0 .035.107Zm.039-.251a.039.039 0 0 0 .04.004.04.04 0 0 0 .023-.034.043.043 0 0 0-.014-.036A.034.034 0 0 0 4.727 9l-.002-.001-.002-.001h-.011a.028.028 0 0 0-.023.015s0 .002-.002.003a.038.038 0 0 0-.01.018.041.041 0 0 0 .015.039Zm-.114.047a.039.039 0 0 0 .04.005.04.04 0 0 0 .023-.035.043.043 0 0 0-.014-.035.037.037 0 0 0-.015-.008h-.004l-.006-.001h-.005a.028.028 0 0 0-.023.015l-.001.002a.041.041 0 0 0-.01.018.041.041 0 0 0 .015.04Zm-.045.13a.039.039 0 0 0 .04.004.04.04 0 0 0 .023-.034.043.043 0 0 0-.014-.036.035.035 0 0 0-.015-.008h-.004l-.003-.001h-.008a.028.028 0 0 0-.022.013l-.002.002a.04.04 0 0 0-.01.02.04.04 0 0 0 .015.04Zm.029.121a.038.038 0 0 0 .04.005.04.04 0 0 0 .023-.035.043.043 0 0 0-.014-.035.037.037 0 0 0-.015-.008h-.004l-.003-.001H4.58a.028.028 0 0 0-.022.012l-.002.002a.041.041 0 0 0-.011.02.041.041 0 0 0 .016.04Z" fill="#BF8B4E"/><path d="M4.727 9.335a.111.111 0 0 1-.04-.209c.014-.008 0-.028-.014-.02a.14.14 0 0 0-.065.146.135.135 0 0 0 .115.107.013.013 0 0 0 .013-.01.012.012 0 0 0-.009-.014Z" fill="#000"/><path d="M6.788 7.62a.142.142 0 0 0-.06.014.043.043 0 0 1-.01.004.095.095 0 0 0-.063.053.1.1 0 0 0-.01.03l.001-.002-.002.006v.005a.092.092 0 0 0 .006.046.102.102 0 0 0 .082.061.13.13 0 0 0 .119-.04.115.115 0 0 0 .029-.112.099.099 0 0 0-.092-.065Zm-.193.002c-.007 0-.013 0-.02.004a.01.01 0 0 1-.003.001.027.027 0 0 0-.021.018.028.028 0 0 0-.002.007v.003h-.001v.002l-.001.002c0 .005 0 .01.003.016a.043.043 0 0 0 .03.024.04.04 0 0 0 .04-.012.04.04 0 0 0 .007-.04.04.04 0 0 0-.032-.025Zm.079-.095a.042.042 0 0 0-.02.004.012.012 0 0 1-.004 0 .028.028 0 0 0-.02.019.07.07 0 0 0-.003.01m.183-.037a.041.041 0 0 0-.021.005h-.002a.028.028 0 0 0-.02.018.044.044 0 0 0-.002.007v.007c0 .006 0 .011.003.016a.043.043 0 0 0 .03.025.04.04 0 0 0 .039-.012.04.04 0 0 0-.005-.058.041.041 0 0 0-.021-.008Zm.108.063a.042.042 0 0 0-.022.005l-.002.001a.028.028 0 0 0-.02.017.044.044 0 0 0-.002.008v.007a.035.035 0 0 0 .014.031.043.043 0 0 0 .018.009.04.04 0 0 0 .04-.012.04.04 0 0 0-.006-.057.04.04 0 0 0-.02-.009Z" fill="#BF8B4E"/><path d="M6.294 9.728c.241-.01.47-.141.542-.381" stroke="#000" stroke-width=".006" stroke-linecap="round" stroke-linejoin="round"/><path d="M4.068 7.155a.286.286 0 0 0-.086-.094.436.436 0 0 0-.133-.065l.219.159Zm0 0a.297.297 0 0 1 .029.209v.001a.433.433 0 0 1-.119.24.258.258 0 0 1-.09.049.325.325 0 0 1-.101.016.426.426 0 0 1-.216-.056.299.299 0 0 1-.128-.146.35.35 0 0 1 .005-.276v-.001a.35.35 0 0 1 .135-.173l.485.137Zm-.503.469a.464.464 0 0 0 .222.057.336.336 0 0 0 .105-.017.268.268 0 0 0 .094-.051.444.444 0 0 0 .122-.246.308.308 0 0 0-.03-.218l-.513.475Zm1.479-1.188a.286.286 0 0 1-.064-.11.436.436 0 0 1-.023-.145l.087.255Zm0 0a.297.297 0 0 0 .191.09h.001c.089.015.179 0 .264-.041a.257.257 0 0 0 .074-.071.325.325 0 0 0 .046-.093.427.427 0 0 0 .01-.223.299.299 0 0 0-.102-.165.35.35 0 0 0-.264-.078h-.001a.35.35 0 0 0-.205.078l-.014.503Zm.597-.34a.465.465 0 0 1-.01.229.336.336 0 0 1-.048.095.268.268 0 0 1-.077.075.444.444 0 0 1-.272.043.308.308 0 0 1-.198-.094l.605-.348Z" fill="#88571C" stroke="#000" stroke-width=".023"/><path d="M3.81 7.16a.256.256 0 0 0-.077-.009.151.151 0 0 0-.064.015.15.15 0 0 0-.068.079.145.145 0 0 0 .002.128.165.165 0 0 0 .071.072.278.278 0 0 0 .116.03c.02 0 .038-.001.054-.006a.132.132 0 0 0 .047-.021.176.176 0 0 0 .058-.11.13.13 0 0 0-.02-.099.16.16 0 0 0-.047-.046.266.266 0 0 0-.071-.032Zm1.316-.968a.276.276 0 0 1 .014-.077.151.151 0 0 1 .034-.056.15.15 0 0 1 .095-.042.145.145 0 0 1 .122.04c.021.019.038.05.047.09a.278.278 0 0 1-.005.119.19.19 0 0 1-.022.05.132.132 0 0 1-.035.038.176.176 0 0 1-.121.023.13.13 0 0 1-.089-.048.16.16 0 0 1-.03-.059.266.266 0 0 1-.01-.078Z" fill="#BF8B4E"/><path d="M4.961 8.57c.299-.034.598-.225.826-.413l-1.689.005c.133.176.318.305.53.369.107.03.22.04.332.028l.001.01Zm0 0-.001-.011m.001.01-.001-.01m.82-.41c.19-.156.341-.354.395-.592a.976.976 0 0 0-.18-.788.963.963 0 0 0-.704-.404c-.26-.016-.483.09-.713.211l-.006-.01M5.78 8.148l-1.84-.272a.862.862 0 0 1 .014-.6 1.34 1.34 0 0 1 .624-.7l-.006-.01M5.78 8.148c-.228.188-.525.377-.82.41m.82-.41-.82.41m-.388-1.992a1.35 1.35 0 0 0-.629.707l2.243.286a.988.988 0 0 0-.181-.797.974.974 0 0 0-.713-.409c-.265-.016-.49.092-.72.213Z" fill="#88571C" stroke="#000" stroke-width=".023"/><path d="M4.347 6.874c.042.038.108.07.165.044.045-.02.069-.082.032-.117-.004-.004-.01-.003-.013.003a.01.01 0 0 0 .007.013c.053.007.138.013.152-.051.015-.064-.052-.099-.102-.117-.015-.005-.025.018-.01.023.036.014.096.036.088.087-.007.046-.086.039-.127.034-.007-.001-.013-.004-.02-.002a.013.013 0 0 0-.006.006.012.012 0 0 0 0 .01c.001.006.009.008.013.013a.043.043 0 0 1 .007.046.068.068 0 0 1-.054.037c-.044.006-.087-.02-.117-.048-.011-.01-.027.008-.016.02v-.001Z" fill="#000"/><path d="M5.314 7.497c-.174.011-.352.17-.37.34-.016.15.089.316.254.319a.459.459 0 0 0 .342-.147.34.34 0 0 0 .069-.342c-.044-.118-.166-.179-.295-.17Z" fill="#BF8B4E"/><path d="M5.432 7.87a.041.041 0 0 1 .002.048.158.158 0 0 1-.033.033.24.24 0 0 1-.042.026c-.013.006-.03.01-.045-.002-.015-.013-.018-.033-.021-.05a.245.245 0 0 1 0-.078c.001-.005 0-.01.004-.015a.03.03 0 0 1 .018-.01.046.046 0 0 1 .024.002.342.342 0 0 1 .05.015c.016.005.03.016.043.03Z" fill="#E9B9B9"/><path d="M4.85 8.22a.096.096 0 0 0-.088-.04.238.238 0 0 0-.1.04.255.255 0 0 0-.096.099.109.109 0 0 0-.012.076.096.096 0 0 0 .081.07c.015.003.03.002.045-.002a.322.322 0 0 0 .117-.065.2.2 0 0 0 .064-.082.104.104 0 0 0-.011-.096Zm1.275-.939a.096.096 0 0 0-.088-.039.238.238 0 0 0-.1.039.254.254 0 0 0-.096.099.11.11 0 0 0-.012.076.1.1 0 0 0 .045.059.11.11 0 0 0 .036.012.12.12 0 0 0 .045-.002.323.323 0 0 0 .117-.066.2.2 0 0 0 .063-.081.103.103 0 0 0-.01-.097Z" fill="#BF8B4E"/><path d="M5.189 7.94a.064.064 0 0 0 .07.038.082.082 0 0 0 .063-.063c.02-.076-.049-.135-.084-.193-.009-.014-.029.001-.02.014.029.048.083.093.083.154a.065.065 0 0 1-.034.06.042.042 0 0 1-.032.003.04.04 0 0 1-.023-.021.012.012 0 0 0-.015-.006.013.013 0 0 0-.008.014Z" fill="#000"/><path d="M5.233 7.728c.017.031.038.06.062.085a.206.206 0 0 0 .069.051.082.082 0 0 0 .07 0 .082.082 0 0 0 .037-.047.058.058 0 0 0-.021-.066.012.012 0 0 0-.01-.002.013.013 0 0 0-.01.014.01.01 0 0 0 .004.008.035.035 0 0 1 .014.039.037.037 0 0 1-.007.013.05.05 0 0 1-.053.023.142.142 0 0 1-.07-.043.372.372 0 0 1-.06-.081c-.004-.006-.007-.013-.013-.014-.003 0-.007 0-.01.003a.013.013 0 0 0-.004.008c0 .003 0 .006.002.009Zm-.001-.001Z" fill="#000"/><path d="M5.265 7.636c-.008-.01-.023-.011-.038-.005a.37.37 0 0 0-.078.055c-.01.01-.02.023-.017.036.003.013.018.017.03.02a.178.178 0 0 0 .062.005c.004 0 .01 0 .013-.002a.047.047 0 0 0 .024-.032.264.264 0 0 0 .01-.041.05.05 0 0 0-.006-.036Z" fill="#000"/><path d="m5.227 7.66.008-.001a.013.013 0 0 0 .008-.01.008.008 0 0 0-.007-.01c-.002 0-.005 0-.007.002-.01.004-.01.016-.002.019Zm-.077.05c-.003-.006.015-.022.021-.027.024-.017.034-.027.04-.021.008.006-.015.025-.023.03-.009.006-.034.026-.038.018Z" fill="#FF9FA8"/><path d="M5.21 7.019a.042.042 0 0 0-.019-.027.06.06 0 0 0-.018-.008c-.021-.01-.047-.025-.071-.019-.024.006-.037.04-.046.063a.579.579 0 0 0-.02.063c-.004.013-.01.027-.01.041a.051.051 0 0 0 .02.04.116.116 0 0 0 .039.016.178.178 0 0 0 .034.005.088.088 0 0 0 .026-.004.046.046 0 0 0 .028-.02c.009-.015.011-.036.016-.052.007-.027.016-.055.02-.083a.045.045 0 0 0 0-.015Zm-.646.505c.028.001.058-.004.086-.006.016-.002.038 0 .055-.007a.047.047 0 0 0 .023-.024.088.088 0 0 0 .01-.043.117.117 0 0 0-.01-.057.05.05 0 0 0-.036-.027c-.014-.002-.028.001-.042.002a.558.558 0 0 0-.067.01c-.024.005-.059.01-.07.035-.011.026.001.05.006.074a.06.06 0 0 0 .006.019.042.042 0 0 0 .04.024Z" fill="#BF8B4E"/><path d="M5.01 8.06a.279.279 0 0 0 .219.1c.016 0 .013-.026-.004-.026a.25.25 0 0 1-.195-.09c-.01-.013-.032.002-.021.016Zm.295.112.053-.021a.02.02 0 0 0 .01-.01.017.017 0 0 0 .002-.005v-.007a.014.014 0 0 0-.01-.008.018.018 0 0 0-.012 0l-.053.022a.02.02 0 0 0-.01.009.016.016 0 0 0-.001.012.014.014 0 0 0 .008.009.018.018 0 0 0 .013 0Zm.211-.137a.36.36 0 0 0 .1-.144.33.33 0 0 0 .016-.168c-.003-.018-.032-.014-.03.004a.303.303 0 0 1-.014.154.33.33 0 0 1-.09.132c-.013.012.003.034.017.022Zm.015-.429c-.002.007.003.012.007.017a.151.151 0 0 1 .03.047c0 .004.003.006.006.006.004 0 .009 0 .013-.003a.034.034 0 0 0 .011-.01c.005-.006.003-.014 0-.021a.168.168 0 0 0-.035-.05c-.001-.002-.005-.003-.01-.002a.03.03 0 0 0-.012.005.03.03 0 0 0-.01.011Zm-.525.395a.102.102 0 0 1-.022-.082c.001-.003 0-.007-.001-.01a.012.012 0 0 0-.01-.004.018.018 0 0 0-.01.003.018.018 0 0 0-.007.01.127.127 0 0 0 .024.102.012.012 0 0 0 .01.005.018.018 0 0 0 .017-.014.012.012 0 0 0-.001-.01Zm-.446-.564a.384.384 0 0 1 .107-.022.013.013 0 0 0 .011-.014.012.012 0 0 0-.013-.01.418.418 0 0 0-.114.023c-.015.005-.006.028.009.023Zm.526-.306a.375.375 0 0 1 .03-.114A.012.012 0 0 0 5.1 7a.013.013 0 0 0-.007.007.397.397 0 0 0-.031.12.013.013 0 0 0 .01.015.013.013 0 0 0 .014-.01Z" fill="#000"/><path d="m4.04 7.908.013.001.002-.004-.015.003Z" fill="#B24930"/><path d="M5.329 7.257a.156.156 0 0 0 .095.06.14.14 0 0 0 .105-.023.133.133 0 0 0 .054-.094.15.15 0 0 0-.004-.056c-.005-.019-.055-.075-.067-.09l-.07.12-.113.083Z" fill="#FF9FA8"/><path d="M5.436 7.24a.062.062 0 0 0 .04.004.056.056 0 0 0 .032-.086.056.056 0 0 0-.027-.021.06.06 0 0 0-.039 0 .057.057 0 0 0-.006.103Z" fill="#000"/><path d="m5.395 7.219.046-.05.026-.025a3.65 3.65 0 0 1 .14-.127.108.108 0 0 0 .026-.03c.002-.006-.003-.007-.014-.004a.461.461 0 0 0-.095.064 2.78 2.78 0 0 0-.243.23c-.008.01-.011.017-.008.02.003.002.012 0 .026-.007a.357.357 0 0 0 .09-.066l.006-.005Z" fill="#000"/><path d="M4.799 7.647a.156.156 0 0 1 .03.109.14.14 0 0 1-.055.093.133.133 0 0 1-.105.024.15.15 0 0 1-.053-.021c-.016-.01-.055-.075-.066-.09l.136-.032.113-.083Z" fill="#FF9FA8"/><path d="M4.75 7.744a.062.062 0 0 1-.008.04.056.056 0 0 1-.104-.028.06.06 0 0 1 .011-.037.057.057 0 0 1 .101.025Z" fill="#000"/><path d="M4.743 7.698a1.95 1.95 0 0 0-.061.03l-.032.017a3.638 3.638 0 0 0-.163.096.108.108 0 0 1-.037.016c-.006 0-.006-.005.001-.014a.463.463 0 0 1 .089-.072 2.78 2.78 0 0 1 .293-.163c.012-.005.019-.006.02-.003.001.004-.004.012-.014.023a.357.357 0 0 1-.09.067l-.006.003Z" fill="#000"/><path d="m5.588 6.437.032.014-1.714 1.261a.992.992 0 0 1-.01-.126v-.068l.002-.032a1.25 1.25 0 0 1 .5-.901 1.246 1.246 0 0 1 1.009-.209l.03.008a.872.872 0 0 1 .15.053Zm-.084-.049v-.003a.348.348 0 0 1 .005-.082c.008-.05.028-.104.076-.133l.018-.01a.583.583 0 0 0 .094-.064.117.117 0 0 0 .038-.067.26.26 0 0 1 .031.115c.003.078-.031.18-.183.275l-.079-.031Z" fill="#FFCD4D" stroke="#000" stroke-width=".015"/><path d="M5.57 6.423a.765.765 0 0 0 .103-.08.91.91 0 0 0 .183-.22.35.35 0 0 1 .01.157.186.186 0 0 1-.067.117c-.04.03-.1.051-.192.05l-.036-.024Zm.013.015.042.02L3.91 7.719a1.03 1.03 0 0 1-.015-.139.8.8 0 0 1 0-.04l1.561-1.15h.003l.035.012h.002c.029.01.058.022.086.036Z" fill="#FFCD4D" stroke="#000" stroke-width=".015"/><path d="M4.468 6.745a.04.04 0 0 1 .008-.055l.035-.025a.04.04 0 0 1 .055.008l-.098.072Zm-.006.065a.04.04 0 0 1 .009-.056l.102-.075a.04.04 0 0 1 .055.008l-.166.122Zm.01.003a.027.027 0 0 0-.006.038.027.027 0 0 0 .038.005l.079-.057.078-.058a.027.027 0 0 0 .006-.038.027.027 0 0 0-.038-.005l-.157.115Zm.037.055a.04.04 0 0 0 .055.008l.103-.076a.04.04 0 0 0 .008-.055l-.166.123Zm.115.023a.04.04 0 0 1-.055-.008l.1-.074a.04.04 0 0 1-.008.055l-.037.027Z" fill="#000"/><defs><linearGradient id="a" x1="8.978" y1="7.973" x2="8.978" y2="17.336" gradientUnits="userSpaceOnUse"><stop offset=".401" stop-color="#E8D37C" stop-opacity=".13"/><stop offset="1" stop-color="#FCD729"/></linearGradient><linearGradient id="b" x1="3.306" y1="6.047" x2="6.423" y2="6.953" gradientUnits="userSpaceOnUse"><stop stop-color="#FFD340"/><stop offset="1" stop-color="#F65429"/></linearGradient></defs></svg>