<svg width="24" height="24" viewBox="0 0 24 24" fill="none" xmlns="http://www.w3.org/2000/svg">
<g clip-path="url(#clip0_2250_6243)">
<path d="M11.7247 0C5.34089 0 0.165894 5.175 0.165894 11.5588C0.165894 17.9426 5.34089 23.1176 11.7247 23.1176C18.1085 23.1176 23.2835 17.9426 23.2835 11.5588C23.2835 5.175 18.1085 0 11.7247 0Z" fill="#FFCD4D"/>
<path d="M17.3488 6.64851L15.2842 17.0577C15.2842 17.0577 14.9955 17.7795 14.2014 17.433L9.43724 13.7805L7.70486 12.9432L4.78861 11.9614C4.78861 11.9614 4.34107 11.8026 4.29773 11.4562C4.25438 11.1097 4.80306 10.922 4.80306 10.922L16.3958 6.37435C16.3958 6.37435 17.3488 5.95553 17.3488 6.64851Z" fill="black"/>
<path d="M9.07155 16.9409C9.07155 16.9409 8.93248 16.9279 8.7591 16.3792C8.58599 15.8307 7.70526 12.9433 7.70526 12.9433L14.7072 8.49678C14.7072 8.49678 15.1115 8.25134 15.097 8.49678C15.097 8.49678 15.1692 8.54013 14.9525 8.74222C14.7361 8.94441 9.45217 13.6941 9.45217 13.6941" fill="#FFCD4D"/>
<path d="M11.2645 15.1815L9.38013 16.8996C9.38013 16.8996 9.23276 17.0114 9.07166 16.9413L9.43251 13.75" fill="#FFCD4D"/>
</g>
<defs>
<clipPath id="clip0_2250_6243">
<rect width="23.1176" height="23.1176" fill="white" transform="translate(0.165894)"/>
</clipPath>
</defs>
</svg>
