<svg width="133" height="133" viewBox="0 0 133 133" fill="none" xmlns="http://www.w3.org/2000/svg">
<path id="Vector" opacity="0.3" d="M78.1494 131.302L66.5006 63.4729L89.2208 128.234L78.1494 131.302ZM60.7687 132.108L78.1494 131.302L66.5006 63.4746L60.7687 132.108ZM54.8504 131.302L66.4988 63.4729L43.7786 128.236L54.8504 131.302ZM43.7786 128.236L66.5006 63.4729L28.339 119.95L43.7786 128.236ZM23.6021 116.195L66.4988 63.4746L15.4978 107.815L23.6021 116.195ZM15.4978 107.815L66.5006 63.4729L6.13313 92.6599L15.4978 107.815ZM3.84941 86.9586L66.4988 63.4729L0.103516 69.3979L3.84941 86.9586ZM0.103516 69.3979L66.4988 63.4746L0.103516 57.5495V69.3979ZM0.883593 51.4314L66.5006 63.4729L5.71958 33.9785L0.883593 51.4314ZM6.13313 34.2871L66.4988 63.4746L11.865 24.0263L6.13313 34.2871ZM15.4978 19.1296L66.4988 63.4729L23.6021 10.7522L15.4978 19.1296ZM23.6021 10.7522L66.5006 63.4746L38.2653 1.07175L23.6021 10.7522ZM43.7786 -1.28896L66.4988 63.4729L54.8504 -4.35475L43.7786 -1.28896ZM54.8504 -4.35475L66.4988 63.4729L72.2307 -5.16113L54.8504 -4.35475ZM78.1494 -4.3567L66.5006 63.4729L89.2191 -1.28896L78.1494 -4.3567ZM89.2191 -1.28896L66.4988 63.4729L104.661 6.99687L89.2191 -1.28896ZM109.396 10.7522L66.4988 63.4729L117.5 19.1296L109.396 10.7522ZM117.5 19.1296L66.4988 63.4729L126.865 34.2852L117.5 19.1296ZM129.15 39.9863L66.4988 63.4729L132.116 51.4314L129.15 39.9863ZM132.116 51.4314L66.5006 63.4729L132.896 69.3956L132.116 51.4314ZM132.116 75.5156L66.4988 63.4746L129.149 86.9609L132.116 75.5156ZM129.149 86.9609L66.4988 63.4729L121.135 102.921L129.149 86.9609ZM117.502 107.815L66.4988 63.4729L109.396 116.193L117.502 107.815ZM109.396 116.193L66.4988 63.4729L94.7346 125.873L109.396 116.193Z" fill="url(#paint0_radial_4822_31969)"/>
<defs>
<radialGradient id="paint0_radial_4822_31969" cx="0" cy="0" r="1" gradientUnits="userSpaceOnUse" gradientTransform="translate(66.5 63.4734) rotate(4.34918) scale(66.5882 68.8334)">
<stop stop-color="#F7C340"/>
<stop offset="0.266108" stop-color="#FADA89"/>
<stop offset="0.734375" stop-color="#FBDA87"/>
<stop offset="1" stop-color="#FBCA4E" stop-opacity="0"/>
</radialGradient>
</defs>
</svg>
