<svg width="1441" height="300" viewBox="0 0 1441 300" fill="none" xmlns="http://www.w3.org/2000/svg">
<circle cx="177.601" cy="150" r="120" fill="black" stroke="white" stroke-width="4.8"/>
<path d="M179.578 189.365C229.219 203.996 248.349 202.687 278.7 193.886C274.342 204.816 268.123 214.85 260.421 223.623C237.267 230.021 217.933 229.118 176.923 214.8C138.268 201.304 113.304 201.582 86.4959 208.376C82.2886 201.334 78.9132 193.767 76.5 185.801C108.011 177.937 135.08 176.25 179.578 189.365Z" fill="#DCEFFE"/>
<path d="M94.8729 220.375C114.427 244.559 144.848 260.1 179.016 260.1C204.276 260.1 227.488 251.606 245.776 237.404C228.008 239.806 209.567 237.34 177.361 227.165C142.393 216.118 118.962 215.573 94.8729 220.375Z" fill="#DCEFFE"/>
<path fill-rule="evenodd" clip-rule="evenodd" d="M259.497 187.592C236.707 194.239 218.006 193.486 177.803 178.999C146.379 167.675 124.294 166.048 102.656 169.831C106.419 154.505 110.15 140.49 112.13 134.771C113.403 131.096 114.48 127.985 115.165 125.855C115.793 123.901 116.476 121.98 117.212 120.096C112.061 115.401 108.695 107.636 108.695 98.8501C108.695 84.5183 117.653 72.9 128.704 72.9C135.286 72.9 141.127 77.0223 144.773 83.3848C146.852 81.9228 148.993 80.6021 151.189 79.4298C159.265 75.1189 167.921 72.9 176.662 72.9C185.404 72.9 194.06 75.1189 202.136 79.4298C205.12 81.0231 208.004 82.8906 210.766 85.0142C214.31 77.7349 220.568 72.9 227.697 72.9C238.748 72.9 247.706 84.5183 247.706 98.8501C247.706 108.922 243.282 117.653 236.817 121.954C237.289 123.239 237.737 124.539 238.16 125.855C239.165 128.982 241.262 134.197 243.7 140.261L243.713 140.292C246.712 147.752 253.635 168.509 259.497 187.592ZM135.491 91.2773C133.428 93.3702 131.458 95.6228 129.594 98.0253C127.287 100.999 125.158 104.18 123.221 107.54C121.416 105.453 120.279 102.412 120.279 99.0254C120.279 92.7311 124.208 87.6285 129.055 87.6285C131.598 87.6285 133.888 89.033 135.491 91.2773ZM162.406 119.54C162.406 123.22 159.34 126.203 155.559 126.203C151.778 126.203 148.713 123.22 148.713 119.54C148.713 115.86 151.778 112.877 155.559 112.877C159.34 112.877 162.406 115.86 162.406 119.54ZM196.806 148.354C196.806 154.003 184.717 164.427 178.376 164.427C171.44 164.427 159.946 154.003 159.946 148.354C159.946 142.705 168.198 138.126 178.376 138.126C188.554 138.126 196.806 142.705 196.806 148.354ZM207.688 119.54C207.688 123.22 204.623 126.203 200.842 126.203C197.061 126.203 193.995 123.22 193.995 119.54C193.995 115.86 197.061 112.877 200.842 112.877C204.623 112.877 207.688 115.86 207.688 119.54ZM223.414 98.0253C221.55 95.6228 219.58 93.3702 217.517 91.2773C219.12 89.033 221.41 87.6285 223.953 87.6285C228.8 87.6285 232.729 92.7311 232.729 99.0254C232.729 102.412 231.592 105.453 229.786 107.54C227.85 104.18 225.721 100.999 223.414 98.0253Z" fill="white"/>
<path d="M377.641 76.2001C380.361 74.6 384.441 73.08 389.881 71.64C395.481 70.2 401.081 69.48 406.681 69.48C414.681 69.48 421.721 70.68 427.801 73.0801C434.041 75.3201 438.041 78.92 439.801 83.88C442.681 92.2 445.801 101.88 449.161 112.92C452.521 123.96 455.881 135.4 459.241 147.24C462.601 158.92 465.881 170.52 469.081 182.04C472.281 193.4 475.081 203.48 477.481 212.28C475.561 214.52 472.681 216.28 468.841 217.56C465.001 219 460.441 219.72 455.161 219.72C451.321 219.72 448.041 219.4 445.321 218.76C442.761 218.12 440.601 217.16 438.841 215.88C437.241 214.6 435.881 212.92 434.761 210.84C433.801 208.76 432.921 206.36 432.121 203.64L427.801 187.08H384.361C383.081 191.88 381.801 196.84 380.521 201.96C379.241 207.08 377.961 212.04 376.681 216.84C374.441 217.64 372.041 218.28 369.481 218.76C367.081 219.4 364.121 219.72 360.601 219.72C352.441 219.72 346.361 218.36 342.361 215.64C338.521 212.76 336.601 208.84 336.601 203.88C336.601 201.64 336.921 199.4 337.561 197.16C338.201 194.92 338.921 192.28 339.721 189.24C340.841 184.92 342.361 179.56 344.281 173.16C346.361 166.76 348.601 159.88 351.001 152.52C353.401 145 355.961 137.32 358.681 129.48C361.401 121.64 363.961 114.28 366.361 107.4C368.761 100.36 370.921 94.12 372.841 88.6801C374.921 83.24 376.521 79.08 377.641 76.2001ZM406.441 107.16C404.201 113.88 401.641 121.4 398.761 129.72C396.041 137.88 393.561 146.2 391.321 154.68H421.081C418.841 146.04 416.521 137.64 414.121 129.48C411.881 121.16 409.801 113.72 407.881 107.16H406.441Z" fill="white"/>
<path d="M547.354 221.16C538.874 221.16 530.954 219.88 523.594 217.32C516.234 214.92 509.834 211.16 504.394 206.04C498.954 200.92 494.714 194.52 491.674 186.84C488.634 179.16 487.114 170.12 487.114 159.72C487.114 149.64 488.714 140.76 491.914 133.08C495.114 125.24 499.594 118.68 505.354 113.4C511.274 107.96 518.314 103.88 526.474 101.16C534.794 98.44 543.994 97.08 554.074 97.08C563.034 97.08 571.434 98.28 579.274 100.68C587.114 103.08 593.114 105.72 597.274 108.6C600.474 110.84 602.954 113.4 604.714 116.28C606.634 119.16 607.594 122.76 607.594 127.08V257.64C605.994 258.12 603.434 258.6 599.914 259.08C596.394 259.72 592.794 260.04 589.114 260.04C585.594 260.04 582.394 259.8 579.514 259.32C576.794 258.84 574.474 257.88 572.554 256.44C570.634 255 569.194 253 568.234 250.44C567.274 248.04 566.794 244.84 566.794 240.84V218.04C564.074 219.16 561.034 219.96 557.674 220.44C554.314 220.92 550.874 221.16 547.354 221.16ZM567.034 131.4C565.594 130.76 563.914 130.2 561.994 129.72C560.074 129.24 557.834 129 555.274 129C546.634 129 539.994 131.56 535.354 136.68C530.714 141.64 528.394 149.16 528.394 159.24C528.394 169.8 530.634 177.4 535.114 182.04C539.594 186.68 545.914 189 554.074 189C559.514 189 563.834 187.88 567.034 185.64V131.4Z" fill="white"/>
<path d="M633.014 102.36C634.614 101.88 637.094 101.4 640.454 100.92C643.974 100.44 647.574 100.2 651.254 100.2C654.774 100.2 657.894 100.44 660.614 100.92C663.494 101.4 665.894 102.36 667.814 103.8C669.734 105.24 671.174 107.24 672.134 109.8C673.254 112.2 673.814 115.4 673.814 119.4V171C673.814 177.56 675.414 182.28 678.614 185.16C681.814 187.88 686.454 189.24 692.534 189.24C696.214 189.24 699.174 188.92 701.414 188.28C703.814 187.64 705.654 187 706.934 186.36V102.36C708.534 101.88 711.014 101.4 714.374 100.92C717.894 100.44 721.494 100.2 725.174 100.2C728.694 100.2 731.814 100.44 734.534 100.92C737.414 101.4 739.814 102.36 741.734 103.8C743.654 105.24 745.094 107.24 746.054 109.8C747.174 112.2 747.734 115.4 747.734 119.4V192.36C747.734 200.36 744.374 206.36 737.654 210.36C732.054 213.88 725.334 216.52 717.494 218.28C709.814 220.2 701.414 221.16 692.294 221.16C683.654 221.16 675.654 220.2 668.294 218.28C661.094 216.36 654.854 213.4 649.574 209.4C644.294 205.4 640.214 200.28 637.334 194.04C634.454 187.64 633.014 179.96 633.014 171V102.36Z" fill="white"/>
<path d="M822.621 191.4C825.341 191.4 828.301 191.16 831.501 190.68C834.861 190.04 837.341 189.24 838.941 188.28V169.08L821.661 170.52C817.181 170.84 813.501 171.8 810.621 173.4C807.741 175 806.301 177.4 806.301 180.6C806.301 183.8 807.501 186.44 809.901 188.52C812.461 190.44 816.701 191.4 822.621 191.4ZM820.701 97.08C829.341 97.08 837.181 97.96 844.221 99.7201C851.421 101.48 857.501 104.2 862.461 107.88C867.581 111.4 871.501 115.96 874.221 121.56C876.941 127 878.301 133.48 878.301 141V194.76C878.301 198.92 877.101 202.36 874.701 205.08C872.461 207.64 869.741 209.88 866.541 211.8C856.141 218.04 841.501 221.16 822.621 221.16C814.141 221.16 806.461 220.36 799.581 218.76C792.861 217.16 787.021 214.76 782.061 211.56C777.261 208.36 773.501 204.28 770.781 199.32C768.221 194.36 766.941 188.6 766.941 182.04C766.941 171 770.221 162.52 776.781 156.6C783.341 150.68 793.501 147 807.261 145.56L838.701 142.2V140.52C838.701 135.88 836.621 132.6 832.461 130.68C828.461 128.6 822.621 127.56 814.941 127.56C808.861 127.56 802.941 128.2 797.181 129.48C791.421 130.76 786.221 132.36 781.581 134.28C779.501 132.84 777.741 130.68 776.301 127.8C774.861 124.76 774.141 121.64 774.141 118.44C774.141 114.28 775.101 111 777.021 108.6C779.101 106.04 782.221 103.88 786.381 102.12C791.021 100.36 796.461 99.0801 802.701 98.2801C809.101 97.48 815.101 97.08 820.701 97.08Z" fill="white"/>
<path d="M947.168 187.32C949.408 187.96 952.288 188.44 955.808 188.76C959.328 188.92 962.688 189 965.888 189C972.288 189 977.568 187.72 981.728 185.16C986.048 182.44 988.208 178.28 988.208 172.68C988.208 167.4 986.448 163.64 982.928 161.4C979.408 159.16 974.048 158.04 966.848 158.04H947.168V187.32ZM947.168 128.76H964.688C971.568 128.76 976.528 127.48 979.568 124.92C982.768 122.36 984.368 118.6 984.368 113.64C984.368 109.32 982.528 105.88 978.848 103.32C975.328 100.76 969.968 99.48 962.768 99.48C960.368 99.48 957.568 99.5601 954.368 99.7201C951.328 99.8801 948.928 100.12 947.168 100.44V128.76ZM962.768 221.16C960.048 221.16 956.848 221.08 953.168 220.92C949.488 220.76 945.648 220.44 941.648 219.96C937.808 219.48 933.968 218.84 930.128 218.04C926.288 217.4 922.768 216.44 919.568 215.16C910.768 211.8 906.368 205.96 906.368 197.64V85.56C906.368 82.2 907.248 79.64 909.008 77.88C910.928 75.96 913.488 74.44 916.688 73.32C922.128 71.4 928.928 70.04 937.088 69.24C945.248 68.28 953.648 67.8 962.288 67.8C982.768 67.8 998.528 71.24 1009.57 78.12C1020.61 85.0001 1026.13 95.6401 1026.13 110.04C1026.13 117.24 1024.05 123.48 1019.89 128.76C1015.73 133.88 1010.13 137.64 1003.09 140.04C1011.09 142.28 1017.73 146.36 1023.01 152.28C1028.45 158.2 1031.17 165.64 1031.17 174.6C1031.17 190.44 1025.25 202.2 1013.41 209.88C1001.73 217.4 984.848 221.16 962.768 221.16Z" fill="white"/>
<path d="M1112.82 221.16C1103.38 221.16 1094.58 219.88 1086.42 217.32C1078.42 214.6 1071.38 210.6 1065.3 205.32C1059.38 200.04 1054.66 193.4 1051.14 185.4C1047.78 177.4 1046.1 168.04 1046.1 157.32C1046.1 146.76 1047.78 137.72 1051.14 130.2C1054.66 122.52 1059.22 116.28 1064.82 111.48C1070.42 106.52 1076.82 102.92 1084.02 100.68C1091.22 98.28 1098.58 97.08 1106.1 97.08C1114.58 97.08 1122.26 98.36 1129.14 100.92C1136.18 103.48 1142.18 107 1147.14 111.48C1152.26 115.96 1156.18 121.32 1158.9 127.56C1161.78 133.8 1163.22 140.6 1163.22 147.96C1163.22 153.4 1161.7 157.56 1158.66 160.44C1155.62 163.32 1151.38 165.16 1145.94 165.96L1086.66 174.84C1088.42 180.12 1092.02 184.12 1097.46 186.84C1102.9 189.4 1109.14 190.68 1116.18 190.68C1122.74 190.68 1128.9 189.88 1134.66 188.28C1140.58 186.52 1145.38 184.52 1149.06 182.28C1151.62 183.88 1153.78 186.12 1155.54 189C1157.3 191.88 1158.18 194.92 1158.18 198.12C1158.18 205.32 1154.82 210.68 1148.1 214.2C1142.98 216.92 1137.22 218.76 1130.82 219.72C1124.42 220.68 1118.42 221.16 1112.82 221.16ZM1106.1 126.84C1102.26 126.84 1098.9 127.48 1096.02 128.76C1093.3 130.04 1091.06 131.72 1089.3 133.8C1087.54 135.72 1086.18 137.96 1085.22 140.52C1084.42 142.92 1083.94 145.4 1083.78 147.96L1124.82 141.24C1124.34 138.04 1122.58 134.84 1119.54 131.64C1116.5 128.44 1112.02 126.84 1106.1 126.84Z" fill="white"/>
<path d="M1223.66 217.08C1222.06 217.56 1219.5 218.04 1215.98 218.52C1212.62 219 1209.1 219.24 1205.42 219.24C1201.9 219.24 1198.7 219 1195.82 218.52C1193.1 218.04 1190.78 217.08 1188.86 215.64C1186.94 214.2 1185.42 212.28 1184.3 209.88C1183.34 207.32 1182.86 204.04 1182.86 200.04V128.04C1182.86 124.36 1183.5 121.24 1184.78 118.68C1186.22 115.96 1188.22 113.56 1190.78 111.48C1193.34 109.4 1196.46 107.56 1200.14 105.96C1203.98 104.2 1208.06 102.68 1212.38 101.4C1216.7 100.12 1221.18 99.16 1225.82 98.52C1230.46 97.7201 1235.1 97.3201 1239.74 97.3201C1247.42 97.3201 1253.5 98.8401 1257.98 101.88C1262.46 104.76 1264.7 109.56 1264.7 116.28C1264.7 118.52 1264.38 120.76 1263.74 123C1263.1 125.08 1262.3 127 1261.34 128.76C1257.98 128.76 1254.54 128.92 1251.02 129.24C1247.5 129.56 1244.06 130.04 1240.7 130.68C1237.34 131.32 1234.14 132.04 1231.1 132.84C1228.22 133.48 1225.74 134.28 1223.66 135.24V217.08Z" fill="white"/>
<path d="M1327.93 191.4C1330.65 191.4 1333.61 191.16 1336.81 190.68C1340.17 190.04 1342.65 189.24 1344.25 188.28V169.08L1326.97 170.52C1322.49 170.84 1318.81 171.8 1315.93 173.4C1313.05 175 1311.61 177.4 1311.61 180.6C1311.61 183.8 1312.81 186.44 1315.21 188.52C1317.77 190.44 1322.01 191.4 1327.93 191.4ZM1326.01 97.08C1334.65 97.08 1342.49 97.96 1349.53 99.7201C1356.73 101.48 1362.81 104.2 1367.77 107.88C1372.89 111.4 1376.81 115.96 1379.53 121.56C1382.25 127 1383.61 133.48 1383.61 141V194.76C1383.61 198.92 1382.41 202.36 1380.01 205.08C1377.77 207.64 1375.05 209.88 1371.85 211.8C1361.45 218.04 1346.81 221.16 1327.93 221.16C1319.45 221.16 1311.77 220.36 1304.89 218.76C1298.17 217.16 1292.33 214.76 1287.37 211.56C1282.57 208.36 1278.81 204.28 1276.09 199.32C1273.53 194.36 1272.25 188.6 1272.25 182.04C1272.25 171 1275.53 162.52 1282.09 156.6C1288.65 150.68 1298.81 147 1312.57 145.56L1344.01 142.2V140.52C1344.01 135.88 1341.93 132.6 1337.77 130.68C1333.77 128.6 1327.93 127.56 1320.25 127.56C1314.17 127.56 1308.25 128.2 1302.49 129.48C1296.73 130.76 1291.53 132.36 1286.89 134.28C1284.81 132.84 1283.05 130.68 1281.61 127.8C1280.17 124.76 1279.45 121.64 1279.45 118.44C1279.45 114.28 1280.41 111 1282.33 108.6C1284.41 106.04 1287.53 103.88 1291.69 102.12C1296.33 100.36 1301.77 99.0801 1308.01 98.2801C1314.41 97.48 1320.41 97.08 1326.01 97.08Z" fill="white"/>
</svg>
