<svg width="37" height="15" viewBox="0 0 37 15" fill="none" xmlns="http://www.w3.org/2000/svg">
<path d="M1.088 12V0.799999H3.52L7.088 7.904L10.608 0.799999H13.04V12H10.992V4.272L7.872 10.4H6.256L3.136 4.272V12H1.088ZM14.653 12L18.749 0.799999H21.053L25.149 12H22.973L22.077 9.408H17.709L16.797 12H14.653ZM18.269 7.808H21.517L19.885 3.152L18.269 7.808ZM26.2077 12L29.7118 6.336L26.1597 0.799999H28.5117L31.0237 4.704L33.3278 0.799999H35.6318L32.1277 6.432L35.7118 12H33.3598L30.8158 8.048L28.5117 12H26.2077Z" fill="#F7931A"/>
<path d="M1.088 12V0.799999H3.52L7.088 7.904L10.608 0.799999H13.04V12H10.992V4.272L7.872 10.4H6.256L3.136 4.272V12H1.088ZM14.653 12L18.749 0.799999H21.053L25.149 12H22.973L22.077 9.408H17.709L16.797 12H14.653ZM18.269 7.808H21.517L19.885 3.152L18.269 7.808ZM26.2077 12L29.7118 6.336L26.1597 0.799999H28.5117L31.0237 4.704L33.3278 0.799999H35.6318L32.1277 6.432L35.7118 12H33.3598L30.8158 8.048L28.5117 12H26.2077Z" fill="url(#paint0_linear_2528_6663)"/>
<path d="M0 14H14.288V14.8H0V14ZM14.285 14H36.2077V14.8H14.285V14Z" fill="#F7931A"/>
<path d="M0 14H14.288V14.8H0V14ZM14.285 14H36.2077V14.8H14.285V14Z" fill="url(#paint1_linear_2528_6663)"/>
<defs>
<linearGradient id="paint0_linear_2528_6663" x1="17.0769" y1="-2.9" x2="17.0769" y2="16.9" gradientUnits="userSpaceOnUse">
<stop offset="0.401038" stop-color="#E8D37C" stopOpacity="0.13"/>
<stop offset="1" stop-color="#FCD729"/>
</linearGradient>
<linearGradient id="paint1_linear_2528_6663" x1="17.0769" y1="-2.9" x2="17.0769" y2="16.9" gradientUnits="userSpaceOnUse">
<stop offset="0.401038" stop-color="#E8D37C" stopOpacity="0.13"/>
<stop offset="1" stop-color="#FCD729"/>
</linearGradient>
</defs>
</svg>
